<svg width="438" height="137" viewBox="0 0 438 137" fill="none" xmlns="http://www.w3.org/2000/svg">
<g style="mix-blend-mode:soft-light" clip-path="url(#clip0_805_6072)">
<path d="M256.233 4.30502C254.481 4.30502 253.068 3.16076 253.068 1.74187C253.068 0.322982 254.481 -0.821289 256.233 -0.821289C257.985 -0.821289 259.398 0.322982 259.398 1.74187C259.398 3.16076 257.985 4.30502 256.233 4.30502Z" fill="white" fill-opacity="0.2"/>
<path d="M282.005 11.1488C280.253 11.1488 278.84 10.0045 278.84 8.58561C278.84 7.16672 280.253 6.02246 282.005 6.02246C283.757 6.02246 285.17 7.16672 285.17 8.58561C285.17 10.0045 283.757 11.1488 282.005 11.1488Z" fill="white" fill-opacity="0.2"/>
<path d="M307.748 17.9925C305.996 17.9925 304.583 16.8483 304.583 15.4294C304.583 14.0105 305.996 12.8662 307.748 12.8662C309.5 12.8662 310.913 14.0105 310.913 15.4294C310.913 16.8483 309.5 17.9925 307.748 17.9925Z" fill="white" fill-opacity="0.2"/>
<path d="M333.521 24.8333C331.769 24.8333 330.356 23.6891 330.356 22.2702C330.356 20.8513 331.769 19.707 333.521 19.707C335.273 19.707 336.686 20.8513 336.686 22.2702C336.686 23.6891 335.273 24.8333 333.521 24.8333Z" fill="white" fill-opacity="0.2"/>
<path d="M359.293 31.6771C357.541 31.6771 356.128 30.5328 356.128 29.1139C356.128 27.695 357.541 26.5508 359.293 26.5508C361.045 26.5508 362.458 27.695 362.458 29.1139C362.458 30.5328 361.045 31.6771 359.293 31.6771Z" fill="white" fill-opacity="0.2"/>
<path d="M385.065 38.5423C383.313 38.5423 381.9 37.3981 381.9 35.9792C381.9 34.5603 383.313 33.416 385.065 33.416C386.817 33.416 388.23 34.5603 388.23 35.9792C388.23 37.3981 386.817 38.5423 385.065 38.5423Z" fill="white" fill-opacity="0.2"/>
<path d="M410.837 45.3851C409.085 45.3851 407.672 44.2408 407.672 42.8219C407.672 41.4031 409.085 40.2588 410.837 40.2588C412.589 40.2588 414.002 41.4031 414.002 42.8219C414.002 44.2408 412.589 45.3851 410.837 45.3851Z" fill="white" fill-opacity="0.2"/>
<path d="M436.609 52.2279C434.857 52.2279 433.444 51.0836 433.444 49.6647C433.444 48.2458 434.857 47.1016 436.609 47.1016C438.361 47.1016 439.774 48.2458 439.774 49.6647C439.774 51.0836 438.361 52.2279 436.609 52.2279Z" fill="white" fill-opacity="0.2"/>
<path d="M333.521 2.88803C331.769 2.88803 330.356 1.74376 330.356 0.32487C330.356 -1.09402 331.769 -2.23828 333.521 -2.23828C335.273 -2.23828 336.686 -1.09402 336.686 0.32487C336.686 1.74376 335.273 2.88803 333.521 2.88803Z" fill="white" fill-opacity="0.2"/>
<path d="M359.293 9.7308C357.541 9.7308 356.128 8.58653 356.128 7.16764C356.128 5.74875 357.541 4.60449 359.293 4.60449C361.045 4.60449 362.458 5.74875 362.458 7.16764C362.458 8.58653 361.045 9.7308 359.293 9.7308Z" fill="white" fill-opacity="0.2"/>
<path d="M385.065 16.5726C383.313 16.5726 381.9 15.4283 381.9 14.0094C381.9 12.5906 383.313 11.4463 385.065 11.4463C386.817 11.4463 388.23 12.5906 388.23 14.0094C388.23 15.4283 386.817 16.5726 385.065 16.5726Z" fill="white" fill-opacity="0.2"/>
<path d="M410.837 23.4154C409.085 23.4154 407.672 22.2711 407.672 20.8522C407.672 19.4333 409.085 18.2891 410.837 18.2891C412.589 18.2891 414.002 19.4333 414.002 20.8522C414.002 22.2711 412.589 23.4154 410.837 23.4154Z" fill="white" fill-opacity="0.2"/>
<path d="M436.609 30.2581C434.857 30.2581 433.444 29.1139 433.444 27.695C433.444 26.2761 434.857 25.1318 436.609 25.1318C438.361 25.1318 439.774 26.2761 439.774 27.695C439.774 29.1139 438.361 30.2581 436.609 30.2581Z" fill="white" fill-opacity="0.2"/>
<path d="M178.917 5.97549C176.996 5.97549 175.441 4.7168 175.441 3.16059C175.441 1.60439 176.996 0.345703 178.917 0.345703C180.839 0.345703 182.393 1.60439 182.393 3.16059C182.393 4.7168 180.839 5.97549 178.917 5.97549Z" fill="white" fill-opacity="0.2"/>
<path d="M204.689 12.8416C202.767 12.8416 201.185 11.5829 201.185 10.0038C201.185 8.42471 202.739 7.16602 204.689 7.16602C206.639 7.16602 208.193 8.42471 208.193 10.0038C208.193 11.5829 206.639 12.8416 204.689 12.8416Z" fill="white" fill-opacity="0.2"/>
<path d="M230.461 19.6834C228.54 19.6834 226.957 18.4247 226.957 16.8456C226.957 15.2665 228.511 14.0078 230.461 14.0078C232.411 14.0078 233.965 15.2665 233.965 16.8456C233.965 18.4247 232.411 19.6834 230.461 19.6834Z" fill="white" fill-opacity="0.2"/>
<path d="M256.234 26.5028C254.312 26.5028 252.758 25.2441 252.758 23.6879C252.758 22.1317 254.312 20.873 256.234 20.873C258.155 20.873 259.709 22.1317 259.709 23.6879C259.709 25.2441 258.155 26.5028 256.234 26.5028Z" fill="white" fill-opacity="0.2"/>
<path d="M282.005 33.3234C280.112 33.3234 278.586 32.0876 278.586 30.5543C278.586 29.021 280.112 27.7852 282.005 27.7852C283.899 27.7852 285.425 29.021 285.425 30.5543C285.425 32.0876 283.899 33.3234 282.005 33.3234Z" fill="white" fill-opacity="0.2"/>
<path d="M307.749 40.1438C305.884 40.1438 304.358 38.908 304.358 37.3976C304.358 35.8872 305.884 34.6514 307.749 34.6514C309.615 34.6514 311.14 35.8872 311.14 37.3976C311.14 38.908 309.615 40.1438 307.749 40.1438Z" fill="white" fill-opacity="0.2"/>
<path d="M333.521 46.94C331.684 46.94 330.187 45.7271 330.187 44.2395C330.187 42.752 331.684 41.5391 333.521 41.5391C335.358 41.5391 336.856 42.752 336.856 44.2395C336.856 45.7271 335.358 46.94 333.521 46.94Z" fill="white" fill-opacity="0.2"/>
<path d="M359.293 53.7614C357.484 53.7614 355.986 52.5714 355.986 51.0838C355.986 49.5963 357.456 48.4062 359.293 48.4062C361.129 48.4062 362.599 49.5963 362.599 51.0838C362.599 52.5714 361.129 53.7614 359.293 53.7614Z" fill="white" fill-opacity="0.2"/>
<path d="M385.065 60.581C383.257 60.581 381.815 59.391 381.815 57.9492C381.815 56.5074 383.285 55.3174 385.065 55.3174C386.845 55.3174 388.315 56.5074 388.315 57.9492C388.315 59.391 386.845 60.581 385.065 60.581Z" fill="white" fill-opacity="0.2"/>
<path d="M410.837 67.377C412.616 67.377 414.058 66.209 414.058 64.7681C414.058 63.3272 412.616 62.1592 410.837 62.1592C409.058 62.1592 407.615 63.3272 407.615 64.7681C407.615 66.209 409.058 67.377 410.837 67.377Z" fill="white" fill-opacity="0.2"/>
<path d="M436.609 74.1976C434.857 74.1976 433.444 73.0533 433.444 71.6344C433.444 70.2155 434.857 69.0713 436.609 69.0713C438.361 69.0713 439.774 70.2155 439.774 71.6344C439.774 73.0533 438.361 74.1976 436.609 74.1976Z" fill="white" fill-opacity="0.2"/>
<path d="M75.8577 0.529324C73.9644 0.529324 72.4102 -0.729362 72.4102 -2.26268C72.4102 -3.79599 73.9644 -5.05469 75.8577 -5.05469C77.7511 -5.05469 79.3053 -3.79599 79.3053 -2.26268C79.3053 -0.729362 77.7511 0.529324 75.8577 0.529324Z" fill="white" fill-opacity="0.2"/>
<path d="M101.629 7.39333C99.7075 7.39333 98.125 6.13464 98.125 4.55556C98.125 2.97647 99.6792 1.71777 101.629 1.71777C103.579 1.71777 105.133 2.97647 105.133 4.55556C105.133 6.13464 103.579 7.39333 101.629 7.39333Z" fill="white" fill-opacity="0.2"/>
<path d="M127.402 14.2605C125.48 14.2605 123.897 13.0018 123.897 11.4227C123.897 9.84366 125.452 8.58496 127.402 8.58496C129.351 8.58496 130.906 9.84366 130.906 11.4227C130.906 13.0018 129.351 14.2605 127.402 14.2605Z" fill="white" fill-opacity="0.2"/>
<path d="M153.173 21.1043C151.223 21.1043 149.669 19.8227 149.669 18.2665C149.669 16.7103 151.251 15.4287 153.173 15.4287C155.095 15.4287 156.677 16.7103 156.677 18.2665C156.677 19.8227 155.095 21.1043 153.173 21.1043Z" fill="white" fill-opacity="0.2"/>
<path d="M178.917 27.9675C176.967 27.9675 175.413 26.686 175.413 25.1298C175.413 23.5736 176.996 22.292 178.917 22.292C180.839 22.292 182.421 23.5736 182.421 25.1298C182.421 26.686 180.839 27.9675 178.917 27.9675Z" fill="white" fill-opacity="0.2"/>
<path d="M204.69 34.8112C202.74 34.8112 201.157 33.5296 201.157 31.9505C201.157 30.3714 202.74 29.0898 204.69 29.0898C206.639 29.0898 208.222 30.3714 208.222 31.9505C208.222 33.5296 206.639 34.8112 204.69 34.8112Z" fill="white" fill-opacity="0.2"/>
<path d="M230.461 41.6764C228.511 41.6764 226.929 40.3948 226.929 38.8157C226.929 37.2367 228.511 35.9551 230.461 35.9551C232.411 35.9551 233.993 37.2367 233.993 38.8157C233.993 40.3948 232.411 41.6764 230.461 41.6764Z" fill="white" fill-opacity="0.2"/>
<path d="M256.234 48.4959C254.312 48.4959 252.729 47.2143 252.729 45.6581C252.729 44.1019 254.284 42.8203 256.234 42.8203C258.183 42.8203 259.738 44.1019 259.738 45.6581C259.738 47.2143 258.183 48.4959 256.234 48.4959Z" fill="white" fill-opacity="0.2"/>
<path d="M282.005 55.295C280.112 55.295 278.558 54.0363 278.558 52.5029C278.558 50.9696 280.112 49.7109 282.005 49.7109C283.899 49.7109 285.453 50.9696 285.453 52.5029C285.453 54.0363 283.899 55.295 282.005 55.295Z" fill="white" fill-opacity="0.2"/>
<path d="M307.749 62.1135C305.856 62.1135 304.33 60.8776 304.33 59.3443C304.33 57.811 305.856 56.5752 307.749 56.5752C309.643 56.5752 311.169 57.811 311.169 59.3443C311.169 60.8776 309.643 62.1135 307.749 62.1135Z" fill="white" fill-opacity="0.2"/>
<path d="M333.521 68.9096C331.656 68.9096 330.158 67.6967 330.158 66.1862C330.158 64.6758 331.656 63.4629 333.521 63.4629C335.386 63.4629 336.884 64.6758 336.884 66.1862C336.884 67.6967 335.386 68.9096 333.521 68.9096Z" fill="white" fill-opacity="0.2"/>
<path d="M359.293 75.7311C357.456 75.7311 355.986 74.5182 355.986 73.0536C355.986 71.5889 357.484 70.376 359.293 70.376C361.101 70.376 362.599 71.5889 362.599 73.0536C362.599 74.5182 361.101 75.7311 359.293 75.7311Z" fill="white" fill-opacity="0.2"/>
<path d="M385.065 82.5272C383.257 82.5272 381.787 81.3371 381.787 79.8725C381.787 78.4078 383.257 77.2178 385.065 77.2178C386.874 77.2178 388.343 78.4078 388.343 79.8725C388.343 81.3371 386.874 82.5272 385.065 82.5272Z" fill="white" fill-opacity="0.2"/>
<path d="M410.837 89.3477C409.056 89.3477 407.615 88.1806 407.615 86.7388C407.615 85.297 409.056 84.1299 410.837 84.1299C412.617 84.1299 414.058 85.297 414.058 86.7388C414.058 88.1806 412.617 89.3477 410.837 89.3477Z" fill="white" fill-opacity="0.2"/>
<path d="M436.609 96.1439C434.857 96.1439 433.444 94.9996 433.444 93.5807C433.444 92.1618 434.857 91.0176 436.609 91.0176C438.361 91.0176 439.774 92.1618 439.774 93.5807C439.774 94.9996 438.361 96.1439 436.609 96.1439Z" fill="white" fill-opacity="0.2"/>
<path d="M-1.42957 2.0182C-3.37942 2.0182 -4.96191 0.736623 -4.96191 -0.842462C-4.96191 -2.42155 -3.37942 -3.70313 -1.42957 -3.70313C0.520285 -3.70313 2.10277 -2.42155 2.10277 -0.842462C2.10277 0.736623 0.520285 2.0182 -1.42957 2.0182Z" fill="white" fill-opacity="0.2"/>
<path d="M24.3414 9.06685C22.2502 9.06685 20.5547 7.69374 20.5547 6.00022C20.5547 4.30671 22.2502 2.93359 24.3414 2.93359C26.4325 2.93359 28.128 4.30671 28.128 6.00022C28.128 7.69374 26.4325 9.06685 24.3414 9.06685Z" fill="white" fill-opacity="0.2"/>
<path d="M50.0859 16.1136C47.8535 16.1136 46.0449 14.6489 46.0449 12.841C46.0449 11.033 47.8535 9.56836 50.0859 9.56836C52.3184 9.56836 54.1269 11.033 54.1269 12.841C54.1269 14.6489 52.3184 16.1136 50.0859 16.1136Z" fill="white" fill-opacity="0.2"/>
<path d="M75.8568 23.1642C73.4831 23.1642 71.5615 21.608 71.5615 19.6856C71.5615 17.7632 73.4831 16.207 75.8568 16.207C78.2306 16.207 80.1522 17.7632 80.1522 19.6856C80.1522 21.608 78.2306 23.1642 75.8568 23.1642Z" fill="white" fill-opacity="0.2"/>
<path d="M101.63 30.1885C99.143 30.1885 97.1084 28.5408 97.1084 26.5269C97.1084 24.513 99.143 22.8652 101.63 22.8652C104.117 22.8652 106.151 24.513 106.151 26.5269C106.151 28.5408 104.117 30.1885 101.63 30.1885Z" fill="white" fill-opacity="0.2"/>
<path d="M127.401 37.1703C124.829 37.1703 122.738 35.4768 122.738 33.3942C122.738 31.3117 124.829 29.6182 127.401 29.6182C129.973 29.6182 132.064 31.3117 132.064 33.3942C132.064 35.4768 129.973 37.1703 127.401 37.1703Z" fill="white" fill-opacity="0.2"/>
<path d="M153.174 44.15C150.518 44.15 148.342 42.3878 148.342 40.2366C148.342 38.0854 150.518 36.3232 153.174 36.3232C155.83 36.3232 158.006 38.0854 158.006 40.2366C158.006 42.3878 155.83 44.15 153.174 44.15Z" fill="white" fill-opacity="0.2"/>
<path d="M178.917 51.0841C176.176 51.0841 173.972 49.299 173.972 47.0791C173.972 44.8593 176.176 43.0742 178.917 43.0742C181.658 43.0742 183.862 44.8593 183.862 47.0791C183.862 49.299 181.658 51.0841 178.917 51.0841Z" fill="white" fill-opacity="0.2"/>
<path d="M204.689 57.9948C201.92 57.9948 199.659 56.164 199.659 53.9212C199.659 51.6785 201.92 49.8477 204.689 49.8477C207.459 49.8477 209.719 51.6785 209.719 53.9212C209.719 56.164 207.459 57.9948 204.689 57.9948Z" fill="white" fill-opacity="0.2"/>
<path d="M230.462 64.93C227.636 64.93 225.347 63.0763 225.347 60.7877C225.347 58.4992 227.636 56.6455 230.462 56.6455C233.287 56.6455 235.576 58.4992 235.576 60.7877C235.576 63.0763 233.287 64.93 230.462 64.93Z" fill="white" fill-opacity="0.2"/>
<path d="M256.234 71.7959C253.38 71.7959 251.062 69.9194 251.062 67.6079C251.062 65.2965 253.38 63.4199 256.234 63.4199C259.088 63.4199 261.405 65.2965 261.405 67.6079C261.405 69.9194 259.088 71.7959 256.234 71.7959Z" fill="white" fill-opacity="0.2"/>
<path d="M282.005 78.6611C279.151 78.6611 276.806 76.7845 276.806 74.4502C276.806 72.1159 279.123 70.2393 282.005 70.2393C284.888 70.2393 287.205 72.1159 287.205 74.4502C287.205 76.7845 284.888 78.6611 282.005 78.6611Z" fill="white" fill-opacity="0.2"/>
<path d="M307.749 85.5271C304.867 85.5271 302.521 83.6276 302.521 81.2933C302.521 78.959 304.867 77.0596 307.749 77.0596C310.632 77.0596 312.977 78.959 312.977 81.2933C312.977 83.6276 310.632 85.5271 307.749 85.5271Z" fill="white" fill-opacity="0.2"/>
<path d="M333.521 92.4148C330.638 92.4148 328.293 90.5153 328.293 88.181C328.293 85.8467 330.638 83.9473 333.521 83.9473C336.403 83.9473 338.749 85.8467 338.749 88.181C338.749 90.5153 336.403 92.4148 333.521 92.4148Z" fill="white" fill-opacity="0.2"/>
<path d="M359.292 99.2128C362.164 99.2128 364.492 97.3275 364.492 95.0019C364.492 92.6763 362.164 90.791 359.292 90.791C356.421 90.791 354.093 92.6763 354.093 95.0019C354.093 97.3275 356.421 99.2128 359.292 99.2128Z" fill="white" fill-opacity="0.2"/>
<path d="M385.065 106.03C382.211 106.03 379.922 104.154 379.922 101.865C379.922 99.5768 382.239 97.7002 385.065 97.7002C387.891 97.7002 390.208 99.5768 390.208 101.865C390.208 104.154 387.919 106.03 385.065 106.03Z" fill="white" fill-opacity="0.2"/>
<path d="M410.837 112.827C408.011 112.827 405.75 110.973 405.75 108.708C405.75 106.442 408.039 104.565 410.837 104.565C413.634 104.565 415.951 106.419 415.951 108.708C415.951 110.996 413.662 112.827 410.837 112.827Z" fill="white" fill-opacity="0.2"/>
<path d="M436.609 119.648C433.811 119.648 431.551 117.817 431.551 115.552C431.551 113.286 433.811 111.455 436.609 111.455C439.407 111.455 441.667 113.286 441.667 115.552C441.667 117.817 439.407 119.648 436.609 119.648Z" fill="white" fill-opacity="0.2"/>
<path d="M-1.43024 23.8499C-3.29532 23.8499 -4.82129 22.6141 -4.82129 21.1037C-4.82129 19.5932 -3.29532 18.3574 -1.43024 18.3574C0.434839 18.3574 1.96081 19.5932 1.96081 21.1037C1.96081 22.6141 0.434839 23.8499 -1.43024 23.8499Z" fill="white" fill-opacity="0.2"/>
<path d="M24.3419 30.8325C22.3637 30.8325 20.7812 29.551 20.7812 27.949C20.7812 26.347 22.3637 25.0654 24.3419 25.0654C26.32 25.0654 27.9025 26.347 27.9025 27.949C27.9025 29.551 26.32 30.8325 24.3419 30.8325Z" fill="white" fill-opacity="0.2"/>
<path d="M50.0847 37.8114C48.0501 37.8114 46.3828 36.4611 46.3828 34.8134C46.3828 33.1657 48.0501 31.8154 50.0847 31.8154C52.1193 31.8154 53.7866 33.1657 53.7866 34.8134C53.7866 36.4611 52.1193 37.8114 50.0847 37.8114Z" fill="white" fill-opacity="0.2"/>
<path d="M75.8578 44.7688C73.7384 44.7688 72.0146 43.3727 72.0146 41.6563C72.0146 39.94 73.7384 38.5439 75.8578 38.5439C77.9772 38.5439 79.701 39.94 79.701 41.6563C79.701 43.3727 77.9772 44.7688 75.8578 44.7688Z" fill="white" fill-opacity="0.2"/>
<path d="M101.629 51.7261C99.4249 51.7261 97.6729 50.2843 97.6729 48.4993C97.6729 46.7142 99.4532 45.2725 101.629 45.2725C103.805 45.2725 105.614 46.7142 105.614 48.4993C105.614 50.2843 103.833 51.7261 101.629 51.7261Z" fill="white" fill-opacity="0.2"/>
<path d="M127.401 58.6137C125.169 58.6137 123.389 57.149 123.389 55.364C123.389 53.5789 125.197 52.1143 127.401 52.1143C129.606 52.1143 131.414 53.5789 131.414 55.364C131.414 57.149 129.606 58.6137 127.401 58.6137Z" fill="white" fill-opacity="0.2"/>
<path d="M153.173 65.5031C150.912 65.5031 149.104 64.0155 149.104 62.2076C149.104 60.3997 150.94 58.9121 153.173 58.9121C155.405 58.9121 157.242 60.3997 157.242 62.2076C157.242 64.0155 155.405 65.5031 153.173 65.5031Z" fill="white" fill-opacity="0.2"/>
<path d="M178.918 72.3915C181.196 72.3915 183.044 70.8956 183.044 69.0502C183.044 67.2049 181.196 65.709 178.918 65.709C176.639 65.709 174.792 67.2049 174.792 69.0502C174.792 70.8956 176.639 72.3915 178.918 72.3915Z" fill="white" fill-opacity="0.2"/>
<path d="M204.689 79.2809C202.372 79.2809 200.507 77.7704 200.507 75.8939C200.507 74.0173 202.372 72.5068 204.689 72.5068C207.006 72.5068 208.871 74.0173 208.871 75.8939C208.871 77.7704 207.006 79.2809 204.689 79.2809Z" fill="white" fill-opacity="0.2"/>
<path d="M230.461 86.1673C228.116 86.1673 226.223 84.634 226.223 82.7346C226.223 80.8351 228.116 79.3018 230.461 79.3018C232.807 79.3018 234.7 80.8351 234.7 82.7346C234.7 84.634 232.807 86.1673 230.461 86.1673Z" fill="white" fill-opacity="0.2"/>
<path d="M256.233 93.0326C253.887 93.0326 251.994 91.4993 251.994 89.5998C251.994 87.7003 253.887 86.167 256.233 86.167C258.578 86.167 260.472 87.7003 260.472 89.5998C260.472 91.4993 258.578 93.0326 256.233 93.0326Z" fill="white" fill-opacity="0.2"/>
<path d="M282.005 99.8519C279.66 99.8519 277.767 98.3186 277.767 96.4191C277.767 94.5196 279.66 92.9863 282.005 92.9863C284.351 92.9863 286.244 94.5196 286.244 96.4191C286.244 98.3186 284.351 99.8519 282.005 99.8519Z" fill="white" fill-opacity="0.2"/>
<path d="M307.749 106.696C305.431 106.696 303.538 105.162 303.538 103.286C303.538 101.409 305.431 99.876 307.749 99.876C310.066 99.876 311.959 101.409 311.959 103.286C311.959 105.162 310.066 106.696 307.749 106.696Z" fill="white" fill-opacity="0.2"/>
<path d="M333.52 113.515C331.203 113.515 329.338 112.005 329.338 110.128C329.338 108.252 331.203 106.741 333.52 106.741C335.837 106.741 337.702 108.252 337.702 110.128C337.702 112.005 335.837 113.515 333.52 113.515Z" fill="white" fill-opacity="0.2"/>
<path d="M359.293 120.313C357.004 120.313 355.167 118.826 355.167 116.972C355.167 115.118 357.004 113.631 359.293 113.631C361.582 113.631 363.419 115.118 363.419 116.972C363.419 118.826 361.582 120.313 359.293 120.313Z" fill="white" fill-opacity="0.2"/>
<path d="M385.064 127.11C382.832 127.11 381.023 125.645 381.023 123.814C381.023 121.983 382.832 120.519 385.064 120.519C387.297 120.519 389.134 121.983 389.134 123.814C389.134 125.645 387.325 127.11 385.064 127.11Z" fill="white" fill-opacity="0.2"/>
<path d="M410.837 133.883C408.633 133.883 406.853 132.442 406.853 130.657C406.853 128.871 408.633 127.43 410.837 127.43C413.041 127.43 414.822 128.871 414.822 130.657C414.822 132.442 413.041 133.883 410.837 133.883Z" fill="white" fill-opacity="0.2"/>
<path d="M436.609 140.679C434.433 140.679 432.681 139.261 432.681 137.498C432.681 135.736 434.433 134.317 436.609 134.317C438.785 134.317 440.537 135.736 440.537 137.498C440.537 139.261 438.785 140.679 436.609 140.679Z" fill="white" fill-opacity="0.2"/>
<path d="M-1.43301 44.3095C-2.28077 44.3095 -2.95898 43.7602 -2.95898 43.0737C-2.95898 42.3871 -2.28077 41.8379 -1.43301 41.8379C-0.585249 41.8379 0.0929606 42.3871 0.0929606 43.0737C0.0929606 43.7602 -0.585249 44.3095 -1.43301 44.3095Z" fill="white" fill-opacity="0.2"/>
<path d="M24.3401 51.2669C23.4076 51.2669 22.6729 50.6719 22.6729 49.9166C22.6729 49.1614 23.4076 48.5664 24.3401 48.5664C25.2727 48.5664 26.0074 49.1614 26.0074 49.9166C26.0074 50.6719 25.2727 51.2669 24.3401 51.2669Z" fill="white" fill-opacity="0.2"/>
<path d="M50.083 58.2242C49.0939 58.2242 48.2744 57.5606 48.2744 56.7596C48.2744 55.9586 49.0939 55.2949 50.083 55.2949C51.072 55.2949 51.8915 55.9586 51.8915 56.7596C51.8915 57.5606 51.072 58.2242 50.083 58.2242Z" fill="white" fill-opacity="0.2"/>
<path d="M75.8551 65.1797C74.7813 65.1797 73.9053 64.4702 73.9053 63.6006C73.9053 62.7309 74.7813 62.0215 75.8551 62.0215C76.929 62.0215 77.805 62.7309 77.805 63.6006C77.805 64.4702 76.929 65.1797 75.8551 65.1797Z" fill="white" fill-opacity="0.2"/>
<path d="M101.627 72.1614C100.469 72.1614 99.5361 71.4062 99.5361 70.4679C99.5361 69.5296 100.469 68.7744 101.627 68.7744C102.786 68.7744 103.718 69.5296 103.718 70.4679C103.718 71.4062 102.786 72.1614 101.627 72.1614Z" fill="white" fill-opacity="0.2"/>
<path d="M127.399 79.1188C126.156 79.1188 125.167 78.3178 125.167 77.3109C125.167 76.3039 126.156 75.5029 127.399 75.5029C128.643 75.5029 129.632 76.3039 129.632 77.3109C129.632 78.3178 128.643 79.1188 127.399 79.1188Z" fill="white" fill-opacity="0.2"/>
<path d="M153.172 86.0762C151.872 86.0762 150.798 85.2065 150.798 84.1538C150.798 83.1011 151.872 82.2314 153.172 82.2314C154.472 82.2314 155.545 83.0782 155.545 84.1538C155.545 85.2294 154.5 86.0762 153.172 86.0762Z" fill="white" fill-opacity="0.2"/>
<path d="M178.915 93.0316C177.531 93.0316 176.4 92.1162 176.4 90.9948C176.4 89.8734 177.531 88.958 178.915 88.958C180.3 88.958 181.43 89.8734 181.43 90.9948C181.43 92.1162 180.3 93.0316 178.915 93.0316Z" fill="white" fill-opacity="0.2"/>
<path d="M204.688 99.9899C203.218 99.9899 202.031 99.0288 202.031 97.8387C202.031 96.6487 203.218 95.6875 204.688 95.6875C206.157 95.6875 207.344 96.6487 207.344 97.8387C207.344 99.0288 206.157 99.9899 204.688 99.9899Z" fill="white" fill-opacity="0.2"/>
<path d="M230.46 106.946C228.934 106.946 227.662 105.939 227.662 104.681C227.662 103.422 228.905 102.415 230.46 102.415C232.014 102.415 233.257 103.422 233.257 104.681C233.257 105.939 232.014 106.946 230.46 106.946Z" fill="white" fill-opacity="0.2"/>
<path d="M256.231 113.904C254.62 113.904 253.292 112.851 253.292 111.524C253.292 110.196 254.592 109.144 256.231 109.144C257.87 109.144 259.17 110.196 259.17 111.524C259.17 112.851 257.87 113.904 256.231 113.904Z" fill="white" fill-opacity="0.2"/>
<path d="M282.003 120.884C280.308 120.884 278.923 119.762 278.923 118.389C278.923 117.016 280.308 115.895 282.003 115.895C283.699 115.895 285.083 117.016 285.083 118.389C285.083 119.762 283.699 120.884 282.003 120.884Z" fill="white" fill-opacity="0.2"/>
<path d="M307.747 127.841C305.967 127.841 304.554 126.674 304.554 125.232C304.554 123.79 305.995 122.623 307.747 122.623C309.499 122.623 310.94 123.79 310.94 125.232C310.94 126.674 309.499 127.841 307.747 127.841Z" fill="white" fill-opacity="0.2"/>
<path d="M333.519 134.799C331.682 134.799 330.185 133.586 330.185 132.075C330.185 130.565 331.682 129.375 333.519 129.375C335.356 129.375 336.882 130.588 336.882 132.075C336.882 133.563 335.384 134.799 333.519 134.799Z" fill="white" fill-opacity="0.2"/>
<path d="M359.29 141.756C361.21 141.756 362.766 140.495 362.766 138.941C362.766 137.386 361.21 136.126 359.29 136.126C357.371 136.126 355.814 137.386 355.814 138.941C355.814 140.495 357.371 141.756 359.29 141.756Z" fill="white" fill-opacity="0.2"/>
<path d="M24.3402 72.8239C23.6903 72.8239 23.1816 72.4119 23.1816 71.8856C23.1816 71.3592 23.6903 70.9473 24.3402 70.9473C24.9902 70.9473 25.4989 71.3592 25.4989 71.8856C25.4989 72.4119 24.9619 72.8239 24.3402 72.8239Z" fill="white" fill-opacity="0.2"/>
<path d="M50.084 79.6228C49.4903 79.6228 48.9814 79.2335 48.9814 78.7298C48.9814 78.2261 49.4621 77.8369 50.084 77.8369C50.706 77.8369 51.1866 78.2261 51.1866 78.7298C51.1866 79.2335 50.706 79.6228 50.084 79.6228Z" fill="white" fill-opacity="0.2"/>
<path d="M75.8565 86.4636C75.2345 86.4636 74.7539 86.0743 74.7539 85.5707C74.7539 85.067 75.2345 84.6777 75.8565 84.6777C76.4784 84.6777 76.9591 85.067 76.9591 85.5707C76.9591 86.0743 76.4784 86.4636 75.8565 86.4636Z" fill="white" fill-opacity="0.2"/>
<path d="M101.628 93.3288C101.006 93.3288 100.525 92.9167 100.525 92.4359C100.525 91.9551 101.034 91.543 101.628 91.543C102.222 91.543 102.731 91.9551 102.731 92.4359C102.731 92.9167 102.222 93.3288 101.628 93.3288Z" fill="white" fill-opacity="0.2"/>
<path d="M127.399 100.172C126.777 100.172 126.297 99.7595 126.297 99.2787C126.297 98.7979 126.806 98.3857 127.399 98.3857C127.993 98.3857 128.502 98.7979 128.502 99.2787C128.502 99.7595 127.993 100.172 127.399 100.172Z" fill="white" fill-opacity="0.2"/>
<path d="M153.171 107.084C152.521 107.084 151.984 106.649 151.984 106.122C151.984 105.596 152.521 105.161 153.171 105.161C153.821 105.161 154.358 105.596 154.358 106.122C154.358 106.649 153.821 107.084 153.171 107.084Z" fill="white" fill-opacity="0.2"/>
<path d="M178.915 113.993C178.209 113.993 177.644 113.536 177.644 112.963C177.644 112.391 178.209 111.934 178.915 111.934C179.622 111.934 180.187 112.391 180.187 112.963C180.187 113.536 179.622 113.993 178.915 113.993Z" fill="white" fill-opacity="0.2"/>
<path d="M204.687 120.928C203.924 120.928 203.331 120.425 203.331 119.83C203.331 119.235 203.953 118.731 204.687 118.731C205.422 118.731 206.044 119.235 206.044 119.83C206.044 120.425 205.422 120.928 204.687 120.928Z" fill="white" fill-opacity="0.2"/>
<path d="M230.459 127.839C229.639 127.839 228.989 127.313 228.989 126.649C228.989 125.985 229.639 125.459 230.459 125.459C231.278 125.459 231.928 125.985 231.928 126.649C231.928 127.313 231.278 127.839 230.459 127.839Z" fill="white" fill-opacity="0.2"/>
<path d="M256.231 134.775C255.383 134.775 254.677 134.203 254.677 133.516C254.677 132.83 255.383 132.258 256.231 132.258C257.079 132.258 257.785 132.83 257.785 133.516C257.785 134.203 257.079 134.775 256.231 134.775Z" fill="white" fill-opacity="0.2"/>
<path d="M-1.43137 88.3411C-2.33565 88.3411 -3.09863 87.7461 -3.09863 86.9908C-3.09863 86.2356 -2.3639 85.6406 -1.43137 85.6406C-0.498827 85.6406 0.235901 86.2356 0.235901 86.9908C0.235901 87.7461 -0.498827 88.3411 -1.43137 88.3411Z" fill="white" fill-opacity="0.2"/>
<path d="M24.3396 95.4132C23.2657 95.4132 22.418 94.7037 22.418 93.857C22.418 93.0102 23.294 92.3008 24.3396 92.3008C25.3851 92.3008 26.2612 93.0102 26.2612 93.857C26.2612 94.7037 25.3851 95.4132 24.3396 95.4132Z" fill="white" fill-opacity="0.2"/>
<path d="M50.0841 102.484C48.8689 102.484 47.8799 101.683 47.8799 100.699C47.8799 99.7151 48.8689 98.9141 50.0841 98.9141C51.2992 98.9141 52.2882 99.7151 52.2882 100.699C52.2882 101.683 51.2992 102.484 50.0841 102.484Z" fill="white" fill-opacity="0.2"/>
<path d="M75.8549 109.556C74.4985 109.556 73.3682 108.664 73.3682 107.542C73.3682 106.421 74.4702 105.528 75.8549 105.528C77.2396 105.528 78.3417 106.421 78.3417 107.542C78.3417 108.664 77.2396 109.556 75.8549 109.556Z" fill="white" fill-opacity="0.2"/>
<path d="M101.628 116.604C100.102 116.604 98.8867 115.597 98.8867 114.384C98.8867 113.171 100.13 112.164 101.628 112.164C103.126 112.164 104.369 113.171 104.369 114.384C104.369 115.597 103.126 116.604 101.628 116.604Z" fill="white" fill-opacity="0.2"/>
<path d="M127.4 123.676C129.07 123.676 130.423 122.579 130.423 121.227C130.423 119.875 129.07 118.778 127.4 118.778C125.73 118.778 124.376 119.875 124.376 121.227C124.376 122.579 125.73 123.676 127.4 123.676Z" fill="white" fill-opacity="0.2"/>
<path d="M153.171 130.84C151.306 130.84 149.78 129.604 149.78 128.094C149.78 126.583 151.306 125.348 153.171 125.348C155.036 125.348 156.562 126.583 156.562 128.094C156.562 129.604 155.036 130.84 153.171 130.84Z" fill="white" fill-opacity="0.2"/>
<path d="M178.915 137.957C176.852 137.957 175.156 136.606 175.156 134.913C175.156 133.219 176.824 131.869 178.915 131.869C181.006 131.869 182.673 133.219 182.673 134.913C182.673 136.606 181.006 137.957 178.915 137.957Z" fill="white" fill-opacity="0.2"/>
<path d="M-1.48871 114.202C-5.07757 114.202 -7.95996 111.845 -7.95996 108.961C-7.95996 106.078 -5.04931 103.721 -1.48871 103.721C2.0719 103.721 4.98255 106.078 4.98255 108.961C4.98255 111.845 2.0719 114.202 -1.48871 114.202Z" fill="white" fill-opacity="0.2"/>
<path d="M24.2269 120.747C20.8358 120.747 18.0947 118.527 18.0947 115.781C18.0947 113.034 20.8358 110.814 24.2269 110.814C27.6179 110.814 30.359 113.034 30.359 115.781C30.359 118.527 27.6179 120.747 24.2269 120.747Z" fill="white" fill-opacity="0.2"/>
<path d="M49.9436 127.247C46.7786 127.247 44.207 125.164 44.207 122.601C44.207 120.038 46.7786 117.955 49.9436 117.955C53.1085 117.955 55.6801 120.038 55.6801 122.601C55.6801 125.164 53.1085 127.247 49.9436 127.247Z" fill="white" fill-opacity="0.2"/>
<path d="M75.63 133.746C72.6911 133.746 70.3174 131.824 70.3174 129.444C70.3174 127.064 72.6911 125.142 75.63 125.142C78.5689 125.142 80.9427 127.064 80.9427 129.444C80.9427 131.824 78.5689 133.746 75.63 133.746Z" fill="white" fill-opacity="0.2"/>
<path d="M101.346 140.246C98.6329 140.246 96.4287 138.461 96.4287 136.264C96.4287 134.067 98.6329 132.305 101.346 132.305C104.059 132.305 106.234 134.09 106.234 136.264C106.234 138.438 104.03 140.246 101.346 140.246Z" fill="white" fill-opacity="0.2"/>
<path d="M-1.43263 136.723C-5.38885 136.723 -8.61035 134.114 -8.61035 130.911C-8.61035 127.707 -5.38885 125.098 -1.43263 125.098C2.5236 125.098 5.74509 127.707 5.74509 130.911C5.74509 134.114 2.5236 136.723 -1.43263 136.723Z" fill="white" fill-opacity="0.2"/>
<path d="M24.3398 142.879C27.8201 142.879 30.6415 140.594 30.6415 137.775C30.6415 134.957 27.8201 132.672 24.3398 132.672C20.8595 132.672 18.0381 134.957 18.0381 137.775C18.0381 140.594 20.8595 142.879 24.3398 142.879Z" fill="white" fill-opacity="0.2"/>
</g>
<defs>
<clipPath id="clip0_805_6072">
<rect width="882.475" height="494.51" fill="white" transform="translate(-5.79004 -98.1055)"/>
</clipPath>
</defs>
</svg>
