<svg width="41" height="42" viewBox="0 0 41 42" fill="none" xmlns="http://www.w3.org/2000/svg">
<g id="omoore majame" clip-path="url(#clip0_1031_4598)">
<path id="Vector" d="M40.8619 4.0329C40.8607 2.0392 39.5646 0.739607 37.5755 0.738456C29.9391 0.737305 22.3027 0.737305 14.6663 0.737305C14.3348 0.737305 14.0056 0.762629 13.6844 0.850112C12.2559 1.24379 11.3949 2.42251 11.3937 4.00297C11.3903 9.01255 11.3822 14.021 11.403 19.0306C11.4064 19.8064 11.1946 20.4384 10.7065 21.0404C9.55199 22.4689 8.44348 23.9354 7.3108 25.3812C7.12663 25.6171 7.04605 25.8623 7.18303 26.1363C7.32001 26.4103 7.55253 26.4793 7.83225 26.469C7.93239 26.4655 8.03369 26.469 8.13384 26.469L22.8898 26.469C27.7796 26.469 32.6684 26.469 37.5582 26.4678C39.5611 26.4678 40.8607 25.1855 40.8619 23.1952C40.8653 16.8078 40.8642 10.4203 40.8619 4.0329ZM36.5614 14.7519C36.5545 15.2089 36.3219 15.4322 35.8638 15.4426C35.4897 15.4506 35.1156 15.4541 34.7426 15.4391C34.5642 15.4322 34.4928 15.4967 34.4537 15.6624C34.2511 16.5028 33.9277 17.2959 33.4684 18.0291C33.374 18.1822 33.3912 18.272 33.519 18.3906C33.7941 18.6449 34.0577 18.9085 34.3156 19.1791C34.6367 19.5163 34.6413 19.8248 34.3167 20.1563C33.7849 20.702 33.2462 21.2384 32.7006 21.7702C32.3564 22.1063 32.0468 22.0971 31.6899 21.7552C31.462 21.5365 31.2295 21.3201 31.0246 21.0818C30.8462 20.8746 30.7023 20.8378 30.4525 20.9943C29.7825 21.4168 29.0481 21.708 28.2769 21.8922C28.0375 21.9497 27.9396 22.0361 27.9558 22.2905C27.9776 22.6335 27.9673 22.9788 27.9592 23.323C27.9477 23.7765 27.752 24.0045 27.3146 24.0125C26.5238 24.0298 25.733 24.0298 24.9433 24.0137C24.5048 24.0045 24.3068 23.7788 24.2964 23.3265C24.2872 22.9673 24.2826 22.6082 24.2987 22.2502C24.3079 22.0361 24.2296 21.9509 24.0224 21.9026C23.2075 21.7126 22.4408 21.3926 21.7306 20.9529C21.5372 20.8332 21.4325 20.8735 21.2955 21.0208C21.0515 21.2833 20.7971 21.5377 20.5358 21.784C20.2169 22.0844 19.8923 22.0959 19.5873 21.8013C19.0209 21.251 18.4615 20.6939 17.9113 20.1264C17.62 19.826 17.6246 19.5186 17.909 19.2136C18.1634 18.9408 18.4293 18.6772 18.7032 18.4251C18.8529 18.287 18.8874 18.1845 18.7688 17.9957C18.3234 17.2878 18.0068 16.5223 17.8157 15.7073C17.7697 15.5128 17.6937 15.4242 17.4738 15.438C17.1297 15.4599 16.7843 15.4483 16.439 15.4426C15.9233 15.4357 15.7023 15.2204 15.6931 14.7139C15.6862 14.341 15.6908 13.968 15.6908 13.5951C15.6908 13.2509 15.6885 12.9067 15.6919 12.5625C15.6966 11.9778 15.9072 11.7694 16.5046 11.7625C16.82 11.7591 17.1377 11.7522 17.4531 11.766C17.65 11.774 17.7651 11.7314 17.8146 11.5139C18.0057 10.6851 18.3326 9.90926 18.7838 9.18752C18.8759 9.04018 18.8736 8.94579 18.7424 8.82377C18.4672 8.57168 18.2036 8.30693 17.9446 8.03642C17.6189 7.69685 17.6097 7.39181 17.9331 7.06029C18.473 6.50431 19.0209 5.95523 19.5781 5.41537C19.8958 5.10803 20.2031 5.11493 20.5266 5.41767C20.8512 5.72041 21.1286 6.22689 21.4912 6.29251C21.8377 6.35582 22.267 5.96559 22.6619 5.77797C23.0509 5.59264 23.4527 5.42803 23.8763 5.35436C24.2366 5.2922 24.3355 5.11493 24.2999 4.77306C24.2699 4.47492 24.2872 4.17103 24.2964 3.87059C24.3102 3.42282 24.5163 3.20986 24.9583 3.20526C25.7341 3.1972 26.5111 3.19835 27.287 3.20526C27.7347 3.20986 27.9431 3.41706 27.9581 3.86139C27.9742 4.30456 27.8176 4.86054 28.0294 5.15982C28.2366 5.45105 28.8168 5.47408 29.2289 5.62372C29.6893 5.78948 30.129 6.00128 30.5388 6.26488C30.7046 6.37078 30.8047 6.35812 30.9336 6.21884C31.1777 5.95523 31.4344 5.70314 31.6922 5.45451C32.0548 5.10572 32.3472 5.09536 32.7017 5.43954C33.2474 5.9702 33.7872 6.50776 34.3167 7.05338C34.6413 7.3872 34.6367 7.69339 34.3167 8.03182C34.0692 8.29312 33.816 8.54751 33.5512 8.78924C33.4004 8.92737 33.3694 9.02982 33.4879 9.2186C33.923 9.91501 34.2442 10.6644 34.4249 11.4667C34.4813 11.713 34.5953 11.7832 34.8382 11.7683C35.1823 11.7453 35.5288 11.751 35.873 11.7648C36.3311 11.7832 36.5556 12.01 36.5614 12.4705C36.5706 13.2302 36.5717 13.9911 36.5614 14.7519Z" fill="#2140A4"/>
<path id="Vector_2" d="M8.94943 40.3962C8.94598 40.9499 8.72382 41.1709 8.15748 41.1732C6.99487 41.179 5.83111 41.1755 4.6685 41.1755C3.50589 41.1755 2.34097 41.1778 1.17836 41.1744C0.55562 41.1721 0.33576 40.9672 0.350724 40.3467C0.378351 39.2612 0.225254 38.1654 0.487705 37.0914C0.990735 35.0333 2.94875 33.6266 4.99886 33.8373C7.21703 34.0663 8.85849 35.7653 8.94022 37.9455C8.97015 38.7617 8.95288 39.5801 8.94943 40.3962Z" fill="#2140A4"/>
<path id="Vector_3" d="M18.1488 40.4546C18.1488 40.9599 17.9139 41.1694 17.3879 41.1728C16.2103 41.1786 15.0327 41.1751 13.8552 41.1751C12.6776 41.1751 11.5576 41.1763 10.4088 41.174C9.75611 41.1728 9.54776 40.9749 9.56157 40.3291C9.58459 39.3288 9.47294 38.3227 9.6387 37.3259C9.97597 35.2965 11.9121 33.7264 13.9588 33.8162C16.1562 33.9129 17.937 35.5566 18.1165 37.662C18.196 38.5909 18.1499 39.5233 18.1488 40.4546Z" fill="#2140A4"/>
<path id="Vector_4" d="M27.3467 40.443C27.3433 40.9541 27.128 41.1693 26.602 41.1716C25.4232 41.1797 24.2445 41.1751 23.0646 41.1751C21.8848 41.1751 20.7648 41.1763 19.6137 41.174C18.9598 41.1728 18.7584 40.9829 18.7745 40.3256C18.7998 39.2804 18.6582 38.226 18.8735 37.1912C19.3006 35.1376 21.277 33.6515 23.311 33.8276C25.5844 34.0245 27.2811 35.7523 27.3387 37.9463C27.3605 38.7774 27.3513 39.6108 27.3467 40.443Z" fill="#2140A4"/>
<path id="Vector_5" d="M16.3015 30.7555C16.3015 32.108 15.2264 33.1901 13.8761 33.197C12.5063 33.2039 11.3944 32.108 11.3955 30.7543C11.3967 29.4225 12.4937 28.3175 13.8335 28.2991C15.1861 28.2806 16.3015 29.3903 16.3015 30.7555Z" fill="#2140A4"/>
<path id="Vector_6" d="M25.5172 30.7392C25.5264 32.0986 24.4237 33.1979 23.0539 33.1968C21.7036 33.1945 20.6124 32.1124 20.6055 30.7703C20.5986 29.4166 21.7175 28.2931 23.0654 28.2989C24.4007 28.3046 25.5092 29.4074 25.5172 30.7392Z" fill="#2140A4"/>
<path id="Vector_7" d="M7.10416 30.7609C7.09956 32.1077 6.01407 33.1909 4.66498 33.1967C3.29057 33.2024 2.20163 32.1181 2.20509 30.7483C2.20854 29.3992 3.28942 28.3102 4.63506 28.2999C5.9876 28.2895 7.10992 29.4084 7.10416 30.7609Z" fill="#2140A4"/>
<path id="Vector_8" d="M36.5615 12.47C36.5558 12.0096 36.3313 11.7828 35.8732 11.7644C35.529 11.7506 35.1825 11.7448 34.8383 11.7679C34.5954 11.7828 34.4815 11.7126 34.4251 11.4663C34.2444 10.664 33.9232 9.91459 33.4881 9.21818C33.3695 9.0294 33.4006 8.92695 33.5514 8.78882C33.8162 8.54709 34.0694 8.29269 34.3169 8.03139C34.6369 7.69297 34.6415 7.38678 34.3169 7.05296C33.7874 6.50734 33.2475 5.96978 32.7019 5.43912C32.3474 5.09494 32.055 5.1053 31.6924 5.45409C31.4345 5.70272 31.1778 5.95481 30.9338 6.21841C30.8049 6.3577 30.7047 6.37036 30.539 6.26446C30.1292 6.00086 29.6895 5.78905 29.229 5.6233C28.8169 5.47365 28.2368 5.45063 28.0296 5.1594C27.8178 4.86012 27.9743 4.30414 27.9582 3.86096C27.9432 3.41664 27.7349 3.20944 27.2871 3.20484C26.5113 3.19793 25.7343 3.19678 24.9585 3.20484C24.5164 3.20944 24.3104 3.4224 24.2966 3.87017C24.2874 4.17061 24.2701 4.4745 24.3 4.77263C24.3357 5.11451 24.2367 5.29178 23.8764 5.35394C23.4528 5.42761 23.0511 5.59222 22.662 5.77754C22.2672 5.96517 21.8378 6.3554 21.4913 6.29208C21.1287 6.22647 20.8513 5.71999 20.5267 5.41725C20.2033 5.11451 19.8959 5.1076 19.5782 5.41495C19.0211 5.95481 18.4732 6.50389 17.9333 7.05987C17.6098 7.39138 17.619 7.69642 17.9448 8.036C18.2038 8.30651 18.4674 8.57126 18.7425 8.82335C18.8737 8.94537 18.876 9.03976 18.784 9.1871C18.3327 9.90884 18.0058 10.6847 17.8147 11.5135C17.7652 11.731 17.6501 11.7736 17.4533 11.7656C17.1379 11.7517 16.8202 11.7587 16.5048 11.7621C15.9074 11.769 15.6967 11.9774 15.6921 12.5621C15.6887 12.9063 15.691 13.2505 15.691 13.5947C15.691 13.9676 15.6864 14.3406 15.6933 14.7135C15.7025 15.22 15.9235 15.4353 16.4392 15.4422C16.7845 15.4479 17.1298 15.4594 17.474 15.4376C17.6939 15.4237 17.7698 15.5124 17.8159 15.7069C18.007 16.5219 18.3235 17.2874 18.769 17.9953C18.8876 18.1841 18.853 18.2865 18.7034 18.4247C18.4294 18.6768 18.1635 18.9404 17.9091 19.2132C17.6248 19.5182 17.6202 19.8256 17.9114 20.126C18.4616 20.6935 19.0211 21.2506 19.5874 21.8008C19.8925 22.0955 20.2171 22.084 20.5359 21.7836C20.7972 21.5372 21.0516 21.2828 21.2957 21.0204C21.4326 20.8731 21.5374 20.8328 21.7308 20.9525C22.441 21.3922 23.2076 21.7122 24.0226 21.9021C24.2298 21.9505 24.3081 22.0357 24.2989 22.2498C24.2828 22.6078 24.2874 22.9669 24.2966 23.326C24.3069 23.7784 24.5049 24.004 24.9435 24.0132C25.7331 24.0294 26.5239 24.0294 27.3147 24.0121C27.7522 24.004 27.9479 23.7761 27.9594 23.3226C27.9674 22.9784 27.9778 22.6331 27.9559 22.2901C27.9398 22.0357 28.0376 21.9493 28.2771 21.8918C29.0483 21.7076 29.7827 21.4164 30.4526 20.9939C30.7024 20.8374 30.8463 20.8742 31.0247 21.0814C31.2296 21.3197 31.4622 21.5361 31.6901 21.7548C32.0469 22.0967 32.3566 22.1059 32.7007 21.7698C33.2464 21.2379 33.7851 20.7015 34.3169 20.1559C34.6415 19.8244 34.6369 19.5159 34.3157 19.1786C34.0579 18.9081 33.7943 18.6445 33.5192 18.3901C33.3914 18.2716 33.3741 18.1818 33.4685 18.0287C33.9278 17.2954 34.2513 16.5023 34.4539 15.662C34.493 15.4963 34.5644 15.4318 34.7428 15.4387C35.1157 15.4537 35.4899 15.4502 35.864 15.4422C36.3221 15.4318 36.5546 15.2085 36.5615 14.7515C36.5719 13.9906 36.5707 13.2298 36.5615 12.47ZM26.1176 17.2713C24.0905 17.2655 22.4398 15.6217 22.441 13.605C22.441 11.5756 24.1193 9.9192 26.159 9.93186C28.1746 9.94567 29.8334 11.6205 29.8138 13.6246C29.7942 15.6528 28.1493 17.2759 26.1176 17.2713Z" fill="white"/>
<path id="Vector_9" d="M26.1182 17.271C24.09 17.2664 22.4404 15.6214 22.4404 13.6059C22.4404 11.5765 24.1187 9.91889 26.1585 9.9327C28.1741 9.94536 29.8328 11.6214 29.8132 13.6254C29.7936 15.6537 28.1487 17.2767 26.117 17.271H26.1182Z" fill="#2140A4"/>
</g>
<defs>
<clipPath id="clip0_1031_4598">
<rect width="40.5336" height="40.4392" fill="white" transform="translate(0.331055 0.737305)"/>
</clipPath>
</defs>
</svg>
