<svg width="137" height="132" viewBox="0 0 137 132" fill="none" xmlns="http://www.w3.org/2000/svg">
<g id="chart" clip-path="url(#clip0_805_7039)">
<path id="Vector" d="M136.908 123.628V124.95C136.16 126.161 135.066 126.539 133.656 126.539C90.2878 126.518 46.9218 126.518 3.55574 126.539C2.14375 126.539 1.04939 126.161 0.304688 124.95V123.628C0.966642 122.345 2.03431 121.951 3.45965 121.994C6.19288 122.076 8.92878 122.023 11.6647 122.023C17.7611 122.028 23.8548 122.031 29.9512 122.033C34.4834 122.012 39.013 121.991 43.5426 121.97C49.615 121.972 55.6873 121.972 61.7597 121.972C66.3266 121.97 70.8909 121.967 75.4579 121.965C81.5276 121.965 87.5973 121.962 93.667 121.962C98.2072 121.967 102.75 121.972 107.293 121.978C113.365 121.978 119.438 121.978 125.51 121.975C128.254 121.988 130.998 122.062 133.739 121.994C135.167 121.957 136.24 122.337 136.908 123.628Z" fill="#404040"/>
<path id="Vector_2" d="M125.497 120.259C125.497 120.83 125.505 121.404 125.51 121.975C119.438 121.978 113.366 121.978 107.293 121.978C107.293 96.2269 107.309 70.4736 107.267 44.723C107.267 43.3587 107.59 42.9753 108.991 42.9991C114.012 43.0916 119.035 43.0758 124.056 43.007C125.23 42.9911 125.526 43.2873 125.524 44.456C125.486 69.7227 125.497 94.9921 125.497 120.259Z" fill="#E2E8F9"/>
<path id="Vector_3" d="M61.7589 121.973C55.6865 121.973 49.6142 121.973 43.5418 121.97C43.5418 101.444 43.5552 80.9184 43.5098 60.3951C43.5071 59.1022 43.8354 58.8061 45.1086 58.8272C50.1774 58.9039 55.2461 58.896 60.3149 58.8298C61.476 58.814 61.7829 59.0837 61.7829 60.2656C61.7429 80.8338 61.7562 101.405 61.7589 121.973Z" fill="#6F8AE2"/>
<path id="Vector_4" d="M130.15 2.73826C130.134 6.83393 130.113 10.9296 130.089 15.0253C130.086 15.3769 130.081 15.7312 130.033 16.0776C129.86 17.3864 129.088 18.1426 127.898 18.1929C126.654 18.2431 125.717 17.5001 125.573 16.1384C125.445 14.9195 125.506 13.6768 125.495 12.4473C125.485 11.3474 125.495 10.2474 125.495 9.14485C124.967 9.06288 124.871 9.49387 124.671 9.72919C111.343 25.554 98.0217 41.384 84.7025 57.2141C82.9729 59.2712 82.0493 59.3532 79.9514 57.5948C71.2659 50.3131 62.5697 43.0392 53.9083 35.7284C53.0435 34.996 52.563 34.9431 51.6795 35.776C38.3497 48.3485 24.9771 60.8788 11.6099 73.4143C11.2576 73.7448 10.8919 74.0965 10.4675 74.3107C9.4372 74.8289 8.46295 74.665 7.70758 73.7845C6.99224 72.949 6.9869 72.0077 7.59014 71.1034C7.83036 70.7438 8.16935 70.4398 8.48965 70.1357C22.5268 56.9576 36.5667 43.7796 50.6092 30.6041C52.1493 29.1578 53.0701 29.1525 54.7731 30.5803C63.5333 37.915 72.2962 45.2444 81.0297 52.6081C81.7531 53.2189 82.0867 53.3062 82.7593 52.5024C95.8543 36.8838 108.984 21.2997 122.1 5.69962C122.314 5.44579 122.626 5.23162 122.653 4.70545C119.941 4.70545 117.317 4.71338 114.696 4.70016C112.94 4.69223 111.832 3.78003 111.867 2.40775C111.904 1.0725 112.969 0.207884 114.661 0.20524C118.972 0.19202 123.285 0.194664 127.599 0.20524C129.206 0.210528 130.161 1.16768 130.153 2.74091L130.15 2.73826Z" fill="#C5D0F3"/>
<path id="Vector_5" d="M93.6661 121.962C87.5964 121.962 81.5267 121.965 75.457 121.965C75.4596 111.179 75.481 100.394 75.4356 89.6091C75.4303 88.4431 75.7266 88.139 76.9037 88.1549C82.0578 88.2236 87.212 88.213 92.3688 88.1602C93.4152 88.1496 93.6954 88.4299 93.6901 89.4716C93.65 100.302 93.6661 111.132 93.6661 121.962Z" fill="#A8B9ED"/>
<path id="Vector_6" d="M11.6641 122.023C11.6801 115.691 11.7281 109.355 11.6827 103.023C11.6774 101.894 12.0111 101.656 13.0921 101.666C18.2889 101.725 23.4858 101.719 28.68 101.669C29.6703 101.658 29.9399 101.899 29.9345 102.898C29.8998 109.276 29.9372 115.656 29.9506 122.034C23.8542 122.034 17.7605 122.028 11.6641 122.023Z" fill="#2140A4"/>
</g>
<defs>
<clipPath id="clip0_805_7039">
<rect width="136.656" height="130.866" fill="white" transform="translate(0.269531 0.197266)"/>
</clipPath>
</defs>
</svg>
