<svg width="76" height="76" viewBox="0 0 76 76" fill="none" xmlns="http://www.w3.org/2000/svg">
<g clip-path="url(#clip0_800_3812)">
<g clip-path="url(#clip1_800_3812)">
<path d="M58.4328 51.2701C52.4161 58.8226 41.8529 61.5233 32.8068 57.1646C22.2482 52.0779 17.7815 39.326 22.8212 28.6782C27.8657 18.0304 40.5096 13.5262 51.0681 18.6129C52.9375 19.5147 54.6096 20.6654 56.075 21.9946L66.394 9.82505C63.9422 7.71146 61.2227 5.92666 58.3154 4.52699C40.0493 -4.27961 17.8285 3.63929 9.10174 22.065C0.370284 40.4908 8.22342 62.8995 26.4989 71.7014C41.8247 79.0849 60.3162 74.8953 71.0392 61.6126L58.4375 51.2654L58.4328 51.2701Z" fill="#116B37"/>
<path d="M41.4538 51.7022C48.634 51.7022 54.4547 45.8332 54.4547 38.5933C54.4547 31.3534 48.634 25.4844 41.4538 25.4844C34.2736 25.4844 28.4529 31.3534 28.4529 38.5933C28.4529 45.8332 34.2736 51.7022 41.4538 51.7022Z" fill="#F9AF3D"/>
</g>
</g>
<defs>
<clipPath id="clip0_800_3812">
<rect width="74.3982" height="74.3982" fill="white" transform="translate(0.882324 0.924561)"/>
</clipPath>
<clipPath id="clip1_800_3812">
<rect width="65.507" height="74.3982" fill="white" transform="translate(5.53223 0.924561)"/>
</clipPath>
</defs>
</svg>
