<svg width="29" height="33" viewBox="0 0 29 33" fill="none" xmlns="http://www.w3.org/2000/svg">
<g id="conditional rule" clip-path="url(#clip0_1031_4743)">
<path id="Vector" d="M28.6371 13.7484C28.6371 9.35607 28.6326 4.96491 28.645 0.572611C28.6462 0.227188 28.5739 0.134624 28.215 0.135752C20.6551 0.14817 13.0965 0.147041 5.53666 0.136881C5.21156 0.136881 5.12238 0.211384 5.12238 0.545519C5.13254 9.32898 5.13367 18.1124 5.12012 26.8959C5.119 27.2921 5.24317 27.3429 5.59198 27.3429C13.1236 27.3328 20.6551 27.3316 28.1867 27.3452C28.566 27.3452 28.6473 27.247 28.6462 26.8812C28.6326 22.5036 28.6371 18.126 28.6371 13.7484ZM25.4978 13.3578C25.1061 14.3478 24.0213 15.0228 22.8643 14.9923C21.6508 14.9596 20.6224 14.2496 20.2894 13.2178C20.1675 12.843 20.1675 12.4897 20.3357 12.1161C20.952 10.7479 21.5458 9.37188 22.1757 7.93487C20.9272 7.93487 19.743 7.93713 18.56 7.93261C18.3997 7.93148 18.3128 7.97325 18.2485 8.13693C18.0983 8.51848 17.8274 8.80294 17.4346 8.94405C17.2686 9.00388 17.2427 9.10886 17.2427 9.26577C17.2461 12.6997 17.2472 16.1336 17.2415 19.5686C17.2415 19.7763 17.3104 19.8305 17.508 19.8249C17.9877 19.8125 18.4675 19.8159 18.9472 19.8215C20.1302 19.8373 21.0073 20.8815 20.8143 22.0363C20.7748 22.2722 20.636 22.3704 20.4057 22.3704C18.0509 22.3693 15.695 22.3693 13.3403 22.3693C13.0818 22.3693 12.9644 22.2327 12.9396 21.9798C12.8199 20.7731 13.6586 19.8305 14.871 19.8215C15.3225 19.8181 15.7741 19.8113 16.2245 19.8249C16.4333 19.8317 16.5214 19.7888 16.5214 19.5528C16.5135 16.1178 16.5146 12.6839 16.5202 9.24996C16.5202 9.08177 16.4638 8.99823 16.3103 8.9384C15.9366 8.79391 15.6612 8.52864 15.5268 8.15725C15.449 7.9439 15.3225 7.93261 15.143 7.93374C14.0718 7.93713 12.9994 7.94503 11.9281 7.92923C11.6087 7.92358 11.62 8.02179 11.7272 8.2611C12.2905 9.53104 12.8278 10.8123 13.408 12.0743C13.6011 12.4954 13.5943 12.8837 13.4487 13.2946C13.0807 14.3308 11.9168 15.0556 10.7316 14.9901C9.44808 14.919 8.43551 14.1468 8.16346 13.0395C8.09122 12.7426 8.10815 12.4683 8.23684 12.1815C8.80916 10.9003 9.36567 9.61232 9.92783 8.32658C9.97637 8.21369 10.0193 8.09968 10.0881 7.9281C9.86462 7.9281 9.68739 7.936 9.51016 7.92697C9.31036 7.91568 9.20086 7.79377 9.19522 7.59961C9.18844 7.38513 9.29794 7.24967 9.51919 7.23725C9.70206 7.22596 9.88606 7.23161 10.0689 7.23161C11.7475 7.23161 13.425 7.22709 15.1035 7.23612C15.3225 7.23612 15.4614 7.20226 15.5449 6.96972C15.6691 6.62429 15.9298 6.37256 16.2696 6.24501C16.492 6.16147 16.5281 6.03278 16.5191 5.83072C16.5067 5.54964 16.5089 5.26743 16.5191 4.98635C16.5293 4.7651 16.6342 4.60368 16.8815 4.60707C17.1264 4.60932 17.2246 4.76736 17.2427 4.99087C17.2472 5.06086 17.2472 5.13197 17.2438 5.20196C17.2156 5.71558 17.1546 6.23259 17.8127 6.44932C17.9392 6.48996 18.0724 6.65364 18.113 6.78797C18.2496 7.23951 18.5691 7.24289 18.9574 7.23838C20.6213 7.22145 22.2852 7.23161 23.9502 7.23161C24.062 7.23161 24.176 7.22822 24.2877 7.24177C24.4695 7.26547 24.5598 7.39303 24.5677 7.5601C24.5756 7.74635 24.4921 7.89875 24.29 7.9202C24.1083 7.93939 23.9243 7.92358 23.7459 7.92358C23.659 8.08049 23.7696 8.17983 23.8148 8.28368C24.3611 9.54459 24.9007 10.81 25.4753 12.0596C25.6807 12.5078 25.6694 12.9209 25.4967 13.3578H25.4978Z" fill="#2140A4"/>
<path id="Vector_2" d="M28.6456 31.0281C28.6151 31.448 28.6298 31.8725 28.6411 32.2946C28.6456 32.4956 28.5756 32.5825 28.3724 32.5577C28.3171 32.5498 28.2595 32.5565 28.2031 32.5565C19.9806 32.5565 11.7582 32.5554 3.53689 32.5588C2.8325 32.5588 2.18794 32.4109 1.68561 31.8894C1.01959 31.1985 0.831078 30.388 1.16973 29.4816C1.49145 28.618 2.30308 28.0502 3.26033 28.0367C4.4298 28.0209 5.60153 28.0322 6.77214 28.0322L15.7836 28.0322C19.9298 28.0322 24.076 28.0356 28.2223 28.0254C28.5474 28.0254 28.6727 28.0942 28.6444 28.4363C28.614 28.8144 28.6196 29.1971 28.6433 29.5753C28.6625 29.871 28.5665 29.9534 28.2685 29.9512C26.0684 29.9388 23.8683 29.9444 21.6682 29.9444C21.5554 29.9444 21.4425 29.9444 21.3307 29.9478C21.1174 29.958 20.9785 30.0607 20.9751 30.2819C20.9706 30.5235 21.1151 30.6364 21.3476 30.6443C21.4605 30.6488 21.5734 30.6465 21.6863 30.6465C23.8717 30.6465 26.0583 30.6533 28.2437 30.6386C28.553 30.6375 28.6693 30.7007 28.6456 31.0281Z" fill="#2140A4"/>
<path id="Vector_3" d="M4.40308 5.19877L4.40308 26.4773C4.40308 27.3352 4.40308 27.3578 3.5621 27.3296C2.5913 27.2968 1.75935 27.5768 1.0098 28.3636C1.0098 26.7087 1.01206 25.1509 1.00641 23.5943C1.00641 23.4272 1.06624 23.373 1.22767 23.3798C1.45343 23.3899 1.6792 23.3843 1.90497 23.3798C2.12735 23.3764 2.25039 23.2387 2.25265 23.0366C2.25378 22.8334 2.13073 22.698 1.90835 22.6889C1.83837 22.6867 1.76725 22.6856 1.69726 22.6856C1.23895 22.6803 1.0098 22.4549 1.0098 22.0094C1.0098 21.0239 1.01996 20.0396 1.00303 19.0541C0.998513 18.7877 1.07527 18.7053 1.33378 18.7324C1.52907 18.7538 1.72887 18.7437 1.92529 18.7312C2.14428 18.7166 2.26168 18.5709 2.25265 18.3666C2.24588 18.1849 2.13073 18.0562 1.9298 18.0404C1.88691 18.037 1.84514 18.037 1.80224 18.0348C1.27395 18.0069 1.0098 17.7318 1.0098 17.2096C1.0098 16.2805 1.02222 15.3515 1.0019 14.4225C0.996255 14.1369 1.08769 14.0545 1.35635 14.0838C1.53697 14.1041 1.7221 14.0917 1.9061 14.085C2.12622 14.0771 2.25152 13.9405 2.25265 13.7373C2.25378 13.533 2.12735 13.4009 1.9061 13.3919C1.84965 13.3896 1.79321 13.3896 1.73677 13.3885C1.25212 13.3787 1.0098 13.1239 1.0098 12.6242C1.0098 11.6817 1.02335 10.7391 1.0019 9.79652C0.993998 9.48947 1.09221 9.40368 1.37893 9.43755C1.55954 9.45899 1.74693 9.45109 1.92867 9.43529C2.14428 9.4161 2.26394 9.26935 2.25378 9.06503C2.24475 8.88329 2.12509 8.75912 1.92529 8.74218C1.89707 8.73993 1.86884 8.7388 1.84062 8.73654C1.57761 8.71396 1.22428 8.85394 1.06963 8.67671C0.890145 8.47126 1.01545 8.11342 1.01206 7.82218C1.00416 6.92137 1.0177 6.02056 1.00416 5.11975C0.999642 4.87367 1.04141 4.75175 1.32023 4.78901C1.50084 4.81271 1.68597 4.79465 1.86997 4.79239C2.1059 4.78788 2.25152 4.65919 2.25265 4.43229C2.25378 4.22459 2.1138 4.10493 1.89932 4.08913C1.84288 4.08461 1.78644 4.08348 1.73 4.08123C1.0098 4.05865 1.00077 4.05865 1.01206 3.35313C1.01996 2.84854 0.956746 2.34056 1.08543 1.84049C1.33039 0.886624 2.17815 0.187875 3.16136 0.150624C3.47179 0.138206 3.78335 0.166427 4.09152 0.138206C4.36808 0.113372 4.41098 0.222869 4.40872 0.470084C4.39856 2.04707 4.40308 3.62292 4.40308 5.19877Z" fill="#2140A4"/>
<path id="Vector_4" d="M25.4754 12.06C24.9008 10.8104 24.3612 9.545 23.8149 8.28409C23.7697 8.18024 23.6591 8.0809 23.746 7.92399C23.9244 7.92399 24.1084 7.93979 24.2901 7.9206C24.4922 7.89916 24.5757 7.74676 24.5678 7.56051C24.5599 7.39344 24.4696 7.26588 24.2879 7.24217C24.1761 7.22863 24.0621 7.23201 23.9503 7.23201C22.2853 7.23201 20.6214 7.22186 18.9575 7.23879C18.5692 7.2433 18.2497 7.23992 18.1131 6.78838C18.0725 6.65405 17.9393 6.49037 17.8129 6.44973C17.1548 6.233 17.2157 5.71599 17.2439 5.20237C17.2473 5.13238 17.2473 5.06127 17.2428 4.99128C17.2247 4.76777 17.1265 4.60973 16.8816 4.60747C16.6344 4.60409 16.5294 4.76551 16.5192 4.98676C16.5079 5.26784 16.5057 5.55005 16.5192 5.83113C16.5283 6.03319 16.4921 6.16188 16.2698 6.24541C15.93 6.37297 15.6692 6.6247 15.545 6.97013C15.4615 7.20267 15.3227 7.23653 15.1037 7.23653C13.4251 7.2275 11.7476 7.23201 10.0691 7.23201C9.8862 7.23201 9.7022 7.22637 9.51932 7.23766C9.29807 7.25008 9.18858 7.38554 9.19535 7.60001C9.20099 7.79417 9.31049 7.91609 9.51029 7.92738C9.68752 7.93641 9.86475 7.92851 10.0883 7.92851C10.0194 8.10009 9.9765 8.2141 9.92796 8.32698C9.3658 9.61273 8.80929 10.9007 8.23697 12.182C8.10828 12.4687 8.09135 12.743 8.16359 13.0399C8.43564 14.1473 9.44821 14.9194 10.7317 14.9905C11.917 15.056 13.0808 14.3313 13.4488 13.295C13.5944 12.8841 13.6012 12.4958 13.4082 12.0747C12.8279 10.8127 12.2906 9.53145 11.7273 8.26151C11.6201 8.0222 11.6088 7.92399 11.9283 7.92964C12.9995 7.94544 14.0719 7.93754 15.1432 7.93415C15.3227 7.93302 15.4491 7.94431 15.527 8.15766C15.6613 8.52905 15.9367 8.79432 16.3104 8.93881C16.4639 8.99864 16.5204 9.08217 16.5204 9.25037C16.5147 12.6843 16.5136 16.1182 16.5215 19.5532C16.5215 19.7892 16.4334 19.8321 16.2246 19.8253C15.7742 19.8117 15.3227 19.8185 14.8711 19.8219C13.6588 19.8309 12.82 20.7735 12.9397 21.9802C12.9645 22.2331 13.0819 22.3697 13.3404 22.3697C15.6952 22.3697 18.0511 22.3697 20.4058 22.3708C20.6361 22.3708 20.7749 22.2726 20.8144 22.0367C21.0075 20.8819 20.1304 19.8377 18.9474 19.8219C18.4676 19.8163 17.9878 19.8129 17.5081 19.8253C17.3105 19.8309 17.2417 19.7768 17.2417 19.569C17.2473 16.134 17.2462 12.7001 17.2428 9.26617C17.2428 9.10927 17.2688 9.00429 17.4347 8.94446C17.8275 8.80335 18.0985 8.51889 18.2486 8.13734C18.3129 7.97366 18.3999 7.93189 18.5602 7.93302C19.7432 7.93754 20.9273 7.93528 22.1758 7.93528C21.5459 9.37228 20.9522 10.7483 20.3358 12.1165C20.1676 12.4901 20.1676 12.8435 20.2895 13.2182C20.6225 14.25 21.6509 14.96 22.8644 14.9928C24.0215 15.0232 25.1063 14.3482 25.498 13.3582C25.6707 12.9213 25.682 12.5082 25.4765 12.06H25.4754ZM12.7151 13.2069C12.4046 13.8888 11.5636 14.3121 10.629 14.2624C9.84556 14.2206 8.97523 13.5862 8.89621 12.9134C10.1244 12.9134 11.3334 12.918 12.5412 12.9089C12.8133 12.9067 12.8076 13.0026 12.7151 13.2069ZM12.5446 11.911C12.6157 12.0736 12.7196 12.2226 12.4001 12.2192C11.2916 12.2102 10.182 12.2158 9.00909 12.2158C9.62092 10.8161 10.2136 9.46259 10.8434 8.0222C11.4327 9.37003 11.9881 10.6411 12.5446 11.911ZM18.944 20.5263C19.479 20.5319 19.9001 20.8604 20.0401 21.3041C20.1157 21.5411 20.1202 21.6879 19.7793 21.68C18.8085 21.6585 17.8366 21.6732 16.8658 21.6732C15.895 21.6732 14.9513 21.6563 13.994 21.6811C13.6181 21.6901 13.6339 21.5163 13.7321 21.2758C13.9252 20.7972 14.2977 20.5331 14.8057 20.5274C16.1851 20.5105 17.5645 20.5105 18.944 20.5263ZM16.8511 8.34392C16.4346 8.32924 16.114 7.99285 16.1185 7.57405C16.1219 7.14171 16.4775 6.80419 16.9098 6.82112C17.3196 6.83579 17.6548 7.1846 17.6492 7.59098C17.6435 8.01768 17.2823 8.35859 16.8511 8.34392ZM22.9163 8.0222C23.5293 9.42195 24.0948 10.7167 24.6649 12.0092C24.7507 12.2023 24.657 12.2181 24.5012 12.2169C23.3893 12.2147 22.2774 12.2158 21.0854 12.2158C21.6927 10.824 22.2831 9.47162 22.9163 8.0222ZM24.7417 13.2984C24.2269 14.2037 22.8746 14.5525 21.8812 14.0276C21.5256 13.8391 21.2389 13.5862 21.0515 13.2205C20.9352 12.9947 20.9499 12.901 21.2389 12.9078C21.7999 12.9236 22.3621 12.9123 22.9242 12.9123C23.4864 12.9123 23.9944 12.9338 24.5261 12.9055C24.9347 12.8841 24.8952 13.0286 24.7417 13.2984Z" fill="white"/>
<path id="Vector_5" d="M10.8443 8.02246C11.4335 9.37029 11.9889 10.6414 12.5454 11.9113C12.6165 12.0727 12.7204 12.2229 12.4009 12.2195C11.2924 12.2104 10.1828 12.2161 9.00879 12.2161C9.62175 10.8163 10.2133 9.46285 10.8431 8.02246H10.8443Z" fill="#2140A4"/>
<path id="Vector_6" d="M22.9179 8.02246C23.5308 9.42222 24.0964 10.717 24.6664 12.0084C24.7522 12.2014 24.6585 12.2172 24.5028 12.2172C23.3909 12.215 22.2778 12.2161 21.0869 12.2161C21.6954 10.8231 22.2846 9.47188 22.9179 8.02246Z" fill="#2140A4"/>
<path id="Vector_7" d="M16.8667 21.6732C15.9094 21.6732 14.9522 21.6574 13.9949 21.6811C13.6179 21.6902 13.6348 21.5175 13.7319 21.2759C13.9249 20.7973 14.2986 20.5331 14.8054 20.5275C16.1849 20.5117 17.5643 20.5117 18.9437 20.5275C19.4788 20.5331 19.901 20.8616 20.041 21.3052C20.1166 21.5434 20.1211 21.689 19.7791 21.6823C18.8083 21.6608 17.8363 21.6744 16.8655 21.6744L16.8667 21.6732Z" fill="#2140A4"/>
<path id="Vector_8" d="M22.925 12.9122C23.4589 12.9122 23.994 12.9336 24.5268 12.9054C24.9343 12.884 24.8959 13.0285 24.7424 13.2982C24.2277 14.2036 22.8753 14.5524 21.8819 14.0263C21.5264 13.8378 21.2385 13.585 21.0511 13.2204C20.9349 12.9946 20.9507 12.8998 21.2385 12.9077C21.8007 12.9235 22.3628 12.9122 22.925 12.9122Z" fill="#2140A4"/>
<path id="Vector_9" d="M8.89746 12.9136C10.1256 12.9136 11.3346 12.9181 12.5425 12.9102C12.8145 12.9079 12.8089 13.0039 12.7163 13.2071C12.4059 13.89 11.5649 14.3122 10.6302 14.2625C9.84681 14.2208 8.97648 13.5875 8.89746 12.9136Z" fill="#2140A4"/>
<path id="Vector_10" d="M17.6499 7.58989C17.6442 8.01659 17.283 8.35749 16.8518 8.34282C16.4364 8.32927 16.1147 7.99175 16.1192 7.57295C16.1237 7.14061 16.4782 6.80309 16.9105 6.81889C17.3214 6.8347 17.6555 7.18238 17.6499 7.58876V7.58989Z" fill="#2140A4"/>
</g>
<defs>
<clipPath id="clip0_1031_4743">
<rect width="27.6768" height="32.4269" fill="white" transform="translate(0.972656 0.134766)"/>
</clipPath>
</defs>
</svg>
