<svg width="46" height="45" viewBox="0 0 46 45" fill="none" xmlns="http://www.w3.org/2000/svg">
<g id="dashboard" clip-path="url(#clip0_805_6019)">
<path id="Vector" d="M45.0894 3.20398L45.0894 23.6119C45.0737 23.6354 45.0502 23.658 45.0433 23.6841C44.5063 25.5505 43.4177 26.3684 41.4666 26.3684C37.0675 26.3693 32.6675 26.3719 28.2676 26.3641C27.8942 26.3632 27.5105 26.3388 27.1511 26.2475C25.6325 25.8629 24.7031 24.5969 24.7013 22.9297C24.697 18.8636 24.6996 14.7975 24.6996 10.7314C24.6996 8.42995 24.6952 6.12934 24.7022 3.82873C24.7065 2.31907 25.4845 1.14701 26.8038 0.638855C27.017 0.557064 27.239 0.495285 27.4574 0.424805L42.3969 0.424805C43.1461 0.660608 43.8911 0.945139 44.3384 1.62471C44.6551 2.10675 44.8431 2.67408 45.0894 3.20398Z" fill="#49C1EA"/>
<path id="Vector_2" d="M21.001 11.9487C20.9836 13.8543 19.6034 15.2378 17.6958 15.2456C13.107 15.2665 8.51825 15.2656 3.93032 15.2456C1.98446 15.2378 0.622529 13.8204 0.619918 11.8669C0.615567 9.20436 0.617308 6.54091 0.619048 3.87833C0.619918 2.11807 1.49364 0.979074 3.20802 0.494415C3.24544 0.483973 3.27677 0.448298 3.31071 0.424805L18.2502 0.424805C18.8002 0.696283 19.4093 0.892061 19.888 1.25751C20.6808 1.86225 21.0019 2.75326 21.0045 3.74172C21.0115 6.47739 21.0254 9.21306 21.001 11.9487Z" fill="#49C1EA"/>
<path id="Vector_3" d="M45.0886 32.8173L45.0886 42.1094C45.0095 42.3547 44.9503 42.608 44.8485 42.8429C44.2976 44.1211 43.316 44.8633 41.9305 44.8729C37.2417 44.9068 32.5519 44.899 27.863 44.879C26.1347 44.8712 24.7432 43.4859 24.7154 41.703C24.671 38.8812 24.6666 36.0585 24.7171 33.2376C24.7502 31.3677 26.18 30.0686 28.0937 30.0634C31.364 30.0529 34.6353 30.0599 37.9065 30.0599C39.137 30.0599 40.3667 30.0581 41.5972 30.0599C43.4056 30.0642 44.5621 30.9579 45.0269 32.7033C45.0373 32.7442 45.0678 32.779 45.0886 32.8164L45.0886 32.8173Z" fill="#49C1EA"/>
<path id="Vector_4" d="M21.0068 41.4349C21.0051 43.5188 19.6292 44.8867 17.5493 44.8875C13.0493 44.8901 8.54926 44.8902 4.04923 44.8875C1.99459 44.8867 0.621343 43.5119 0.619603 41.4566C0.616992 38.2737 0.618732 35.0908 0.618732 31.9088C0.618732 28.7267 0.617862 25.5717 0.619603 22.4035C0.619603 20.3239 1.9885 18.9483 4.07099 18.9457C8.57102 18.9404 13.071 18.9396 17.5711 18.9457C19.6231 18.9491 21.0042 20.3283 21.0059 22.3818C21.012 28.7328 21.0111 35.0839 21.0068 41.4349Z" fill="#49C1EA"/>
</g>
<defs>
<clipPath id="clip0_805_6019">
<rect width="44.4712" height="44.4712" fill="white" transform="translate(0.618164 0.424805)"/>
</clipPath>
</defs>
</svg>
