<svg width="438" height="137" viewBox="0 0 438 137" fill="none" xmlns="http://www.w3.org/2000/svg">
<g style="mix-blend-mode:soft-light" clip-path="url(#clip0_805_6024)">
<path d="M307.637 194.007C269.856 194.007 239.978 177.62 211.079 161.779C182.405 146.054 152.74 129.784 115.486 129.784C78.2328 129.784 48.5679 146.043 19.894 161.779C4.52849 170.205 -11.3638 178.92 -28.2847 185.071L-28.9746 183.446C-12.2042 177.342 3.62538 168.673 18.9282 160.271C47.8279 144.418 77.706 128.043 115.486 128.043C153.267 128.043 183.145 144.429 212.045 160.271C240.718 175.996 270.383 192.254 307.637 192.254C344.89 192.254 374.555 175.996 403.229 160.271C432.129 144.418 462.007 128.043 499.787 128.043L499.787 129.784C462.521 129.784 432.869 146.043 404.195 161.779C375.295 177.632 345.417 194.007 307.637 194.007Z" fill="white" fill-opacity="0.2"/>
<path d="M307.637 182.321C269.856 182.321 239.978 165.935 211.079 150.094C182.405 134.369 152.74 118.11 115.486 118.11C78.2328 118.11 48.5679 134.369 19.894 150.094C4.52849 158.519 -11.3638 167.234 -28.2847 173.385L-28.9746 171.761C-12.2042 165.656 3.62538 156.987 18.9282 148.585C47.8279 132.744 77.706 116.357 115.486 116.357C153.267 116.357 183.145 132.744 212.045 148.585C240.718 164.31 270.383 180.569 307.637 180.569C344.89 180.569 374.555 164.31 403.229 148.585C432.129 132.744 462.007 116.357 499.787 116.357L499.787 118.098C462.521 118.098 432.869 134.357 404.195 150.082C375.295 165.923 345.417 182.31 307.637 182.31L307.637 182.321Z" fill="white" fill-opacity="0.2"/>
<path d="M307.637 170.646C269.856 170.646 239.978 154.26 211.079 138.419C182.405 122.694 152.74 106.435 115.486 106.435C78.2328 106.435 48.5679 122.694 19.894 138.419C4.52849 146.844 -11.3638 155.56 -28.2847 161.71L-28.9746 160.086C-12.2042 153.981 3.62538 145.301 18.9282 136.91C47.8279 121.069 77.706 104.683 115.486 104.683C153.267 104.683 183.145 121.069 212.045 136.91C240.718 152.635 270.383 168.894 307.637 168.894C344.89 168.894 374.555 152.635 403.229 136.91C432.129 121.058 462.007 104.683 499.787 104.683L499.787 106.423C462.521 106.423 432.869 122.682 404.195 138.407C375.295 154.26 345.417 170.635 307.637 170.635L307.637 170.646Z" fill="white" fill-opacity="0.2"/>
<path d="M307.637 158.972C269.856 158.972 239.978 142.585 211.079 126.744C182.405 111.019 152.74 94.7602 115.486 94.7602C78.2328 94.7602 48.5679 111.019 19.894 126.744C4.52849 135.169 -11.3638 143.885 -28.2847 150.036L-28.9746 148.411C-12.2042 142.307 3.62538 133.638 18.9282 125.235C47.8279 109.394 77.706 93.0078 115.486 93.0078C153.267 93.0078 183.145 109.394 212.045 125.235C240.718 140.96 270.383 157.219 307.637 157.219C344.89 157.219 374.555 140.96 403.229 125.235C432.129 109.383 462.007 93.0078 499.787 93.0078L499.787 94.7486C462.521 94.7486 432.869 111.007 404.195 126.732C375.295 142.585 345.417 158.96 307.637 158.96L307.637 158.972Z" fill="white" fill-opacity="0.2"/>
<path d="M307.637 147.296C269.856 147.296 239.978 130.909 211.079 115.068C182.405 99.3433 152.74 83.0844 115.486 83.0844C78.2328 83.0844 48.5679 99.3433 19.894 115.068C4.52849 123.494 -11.3638 132.209 -28.2847 138.36L-28.9746 136.735C-12.2042 130.631 3.62538 121.962 18.9282 113.56C47.8279 97.7185 77.706 81.332 115.486 81.332C153.267 81.332 183.145 97.7185 212.045 113.56C240.718 129.285 270.383 145.555 307.637 145.555C344.89 145.555 374.555 129.296 403.229 113.56C432.129 97.7069 462.007 81.332 499.787 81.332L499.787 83.0728C462.521 83.0728 432.869 99.3316 404.195 115.057C375.295 130.909 345.417 147.284 307.637 147.284L307.637 147.296Z" fill="white" fill-opacity="0.2"/>
<path d="M307.637 135.622C269.856 135.622 239.978 119.235 211.079 103.394C182.405 87.6694 152.74 71.4106 115.486 71.4106C78.2328 71.4106 48.5679 87.6694 19.894 103.394C4.52849 111.82 -11.3638 120.535 -28.2847 126.686L-28.9746 125.061C-12.2042 118.957 3.62538 110.288 18.9282 101.886C47.8279 86.0447 77.706 69.6582 115.486 69.6582C153.267 69.6582 183.145 86.0447 212.045 101.886C240.718 117.611 270.383 133.881 307.637 133.881C344.89 133.881 374.555 117.622 403.229 101.886C432.129 86.0447 462.007 69.6582 499.787 69.6582L499.787 71.399C462.521 71.399 432.869 87.6578 404.195 103.383C375.295 119.224 345.417 135.61 307.637 135.61L307.637 135.622Z" fill="white" fill-opacity="0.2"/>
<path d="M307.637 123.935C269.856 123.935 239.978 107.549 211.079 91.7079C182.405 75.9829 152.74 59.7241 115.486 59.7241C78.2328 59.7241 48.5679 75.9829 19.894 91.7079C4.52849 100.133 -11.3638 108.849 -28.2847 114.999L-28.9746 113.375C-12.2042 107.27 3.62538 98.6014 18.9282 90.1992C47.8279 74.3582 77.706 57.9717 115.486 57.9717C153.267 57.9717 183.145 74.3582 212.045 90.1992C240.718 105.924 270.383 122.195 307.637 122.195C344.89 122.195 374.555 105.936 403.229 90.1992C432.129 74.3582 462.007 57.9717 499.787 57.9717L499.787 59.7125C462.521 59.7125 432.869 75.9713 404.195 91.6963C375.295 107.537 345.417 123.924 307.637 123.924L307.637 123.935Z" fill="white" fill-opacity="0.2"/>
<path d="M307.637 112.261C269.856 112.261 239.978 95.8742 211.079 80.0331C182.405 64.3081 152.74 48.0493 115.486 48.0493C78.2328 48.0493 48.5679 64.3081 19.894 80.0331C4.52849 88.4585 -11.3638 97.1739 -28.2847 103.325L-28.9746 101.7C-12.2042 95.5956 3.62538 86.9266 18.9282 78.5244C47.8279 62.6834 77.706 46.2969 115.486 46.2969C153.267 46.2969 183.145 62.6834 212.045 78.5244C240.718 94.2494 270.383 110.508 307.637 110.508C344.89 110.508 374.555 94.2494 403.229 78.5244C432.129 62.6718 462.007 46.2969 499.787 46.2969L499.787 48.0376C462.521 48.0376 432.869 64.2965 404.195 80.0215C375.295 95.8742 345.417 112.249 307.637 112.249L307.637 112.261Z" fill="white" fill-opacity="0.2"/>
<path d="M307.637 100.586C269.856 100.586 239.978 84.1994 211.079 68.3583C182.405 52.6333 152.74 36.3745 115.486 36.3745C78.2328 36.3745 48.5679 52.6333 19.894 68.3583C4.52849 76.7837 -11.3638 85.4991 -28.2847 91.6499L-28.9746 90.0251C-12.2042 83.9208 3.62538 75.2402 18.9282 66.8496C47.8279 51.0086 77.706 34.6221 115.486 34.6221C153.267 34.6221 183.145 51.0086 212.045 66.8496C240.718 82.5746 270.383 98.8335 307.637 98.8335C344.89 98.8335 374.555 82.5746 403.229 66.8496C432.129 51.0086 462.007 34.6221 499.787 34.6221L499.787 36.3628C462.521 36.3628 432.869 52.6217 404.195 68.3467C375.295 84.1877 345.417 100.574 307.637 100.574L307.637 100.586Z" fill="white" fill-opacity="0.2"/>
<path d="M307.637 88.911C269.856 88.911 239.978 72.5245 211.079 56.6835C182.405 40.9585 152.74 24.6996 115.486 24.6996C78.2328 24.6996 48.5679 40.9585 19.894 56.6835C4.52849 65.1088 -11.3638 73.8243 -28.2847 79.9751L-28.9746 78.3503C-12.2042 72.246 3.62538 63.577 18.9282 55.1748C47.8279 39.3338 77.706 22.9473 115.486 22.9473C153.267 22.9473 183.145 39.3338 212.045 55.1748C240.718 70.8998 270.383 87.1587 307.637 87.1587C344.89 87.1587 374.555 70.8998 403.229 55.1748C432.129 39.3222 462.007 22.9473 499.787 22.9473L499.787 24.688C462.521 24.688 432.869 40.9469 404.195 56.6719C375.295 72.5245 345.417 88.8994 307.637 88.8994L307.637 88.911Z" fill="white" fill-opacity="0.2"/>
<path d="M307.637 77.2362C269.856 77.2362 239.978 60.8497 211.079 45.0087C182.405 29.2837 152.74 13.0248 115.486 13.0248C78.2328 13.0248 48.5679 29.2837 19.894 45.0087C4.52849 53.434 -11.3638 62.1495 -28.2847 68.3003L-28.9746 66.6755C-12.2042 60.5712 3.62538 51.9022 18.9282 43.5C47.8279 27.659 77.706 11.2725 115.486 11.2725C153.267 11.2725 183.145 27.659 212.045 43.5C240.718 59.225 270.383 75.4839 307.637 75.4839C344.89 75.4839 374.555 59.225 403.229 43.5C432.129 27.659 462.007 11.2725 499.787 11.2725L499.787 13.0132C462.521 13.0132 432.869 29.2721 404.195 44.9971C375.295 60.8381 345.417 77.2246 307.637 77.2246L307.637 77.2362Z" fill="white" fill-opacity="0.2"/>
<path d="M307.637 65.5613C269.856 65.5613 239.978 49.1748 211.079 33.3338C182.405 17.6088 152.74 1.33832 115.486 1.33832C78.2328 1.33832 48.5679 17.5972 19.894 33.3222C4.52849 41.7475 -11.3638 50.463 -28.2847 56.6137L-28.9746 54.989C-12.2042 48.8847 3.62538 40.2156 18.9282 31.8135C47.8279 15.9724 77.706 -0.414063 115.486 -0.414063C153.267 -0.414063 183.145 15.9724 212.045 31.8135C240.718 47.5385 270.383 63.8089 307.637 63.8089C344.89 63.8089 374.555 47.5501 403.229 31.8135C432.129 15.9724 462.007 -0.414064 499.787 -0.414065L499.787 1.32671C462.521 1.32671 432.869 17.5856 404.195 33.3222C375.295 49.1632 345.417 65.5497 307.637 65.5497L307.637 65.5613Z" fill="white" fill-opacity="0.2"/>
<path d="M307.637 53.8749C269.856 53.8749 239.978 37.4884 211.079 21.6474C182.405 5.92235 152.74 -10.3365 115.486 -10.3365C78.2328 -10.3365 48.568 5.92236 19.894 21.6474C4.5285 30.0727 -11.3638 38.7882 -28.2847 44.9389L-28.9746 43.3142C-12.2042 37.2099 3.62538 28.5292 18.9282 20.1387C47.8154 4.29763 77.6934 -12.0889 115.474 -12.0889C153.254 -12.0889 183.132 4.29763 212.032 20.1387C240.706 35.8637 270.371 52.1225 307.624 52.1225C344.878 52.1225 374.543 35.8637 403.217 20.1387C432.116 4.28603 461.994 -12.0889 499.775 -12.0889L499.775 -10.3481C462.509 -10.3481 432.856 5.91075 404.182 21.6358C375.283 37.4884 345.405 53.8633 307.624 53.8633L307.637 53.8749Z" fill="white" fill-opacity="0.2"/>
<path d="M307.638 42.2004C269.857 42.2004 239.979 25.8139 211.079 9.96122C195.676 1.51266 179.746 -7.22603 162.851 -13.3304L163.54 -14.9551C180.587 -8.79273 196.579 -0.0192243 212.045 8.46416C240.732 24.1892 270.384 40.4596 307.65 40.4596C344.916 40.4596 374.569 24.2008 403.243 8.47576C418.708 -0.00761992 434.714 -8.78113 451.747 -14.9435L452.437 -13.3188C435.541 -7.21443 419.612 1.52426 404.196 9.97283C375.296 25.8255 345.418 42.2004 307.638 42.2004Z" fill="white" fill-opacity="0.2"/>
<path d="M-28.2964 33.2645L-28.9863 31.6398C-12.216 25.5355 3.61366 16.8664 18.9165 8.46427C34.3949 -0.00750662 50.3876 -8.78101 67.4339 -14.9434L68.1237 -13.3186C51.2279 -7.21432 35.298 1.52438 19.8948 9.97294C4.50423 18.3983 -11.3881 27.1138 -28.2964 33.2645Z" fill="white" fill-opacity="0.2"/>
<path d="M307.637 30.526C269.857 30.526 239.979 14.1395 211.079 -1.71313C203.967 -5.61246 196.604 -9.65106 189.241 -13.3763L190.144 -14.9082C197.532 -11.1713 204.908 -7.13274 212.032 -3.2218C240.706 12.5032 270.371 28.7737 307.637 28.7737C344.903 28.7737 374.556 12.5148 403.242 -3.2218C410.379 -7.13274 417.742 -11.1713 425.13 -14.9082L426.033 -13.3763C418.683 -9.65106 411.32 -5.61246 404.195 -1.71313C375.296 14.1395 345.418 30.526 307.637 30.526Z" fill="white" fill-opacity="0.2"/>
<path d="M-28.2964 21.5902L-28.9863 19.9654C-12.216 13.8611 3.61365 5.19206 18.9165 -3.19847C26.0536 -7.10942 33.4165 -11.1596 40.8045 -14.8965L41.7076 -13.3646C34.3447 -9.63934 26.9943 -5.60074 19.8697 -1.70141C4.50423 6.72395 -11.3881 15.4394 -28.2964 21.5902Z" fill="white" fill-opacity="0.2"/>
<path d="M307.637 18.8505C269.857 18.8505 239.979 2.46399 211.079 -13.3887L212.032 -14.8857C240.719 0.839263 270.371 17.1097 307.637 17.1097C344.903 17.1097 374.543 0.850868 403.23 -14.8741L404.195 -13.3771C375.296 2.47559 345.418 18.8621 307.637 18.8621L307.637 18.8505Z" fill="white" fill-opacity="0.2"/>
<path d="M-28.2964 9.91473L-28.9863 8.29001C-12.216 2.1973 3.60111 -6.48337 18.8914 -14.8623L19.8697 -13.3768C4.49168 -4.95149 -11.3881 3.76399 -28.2964 9.91473Z" fill="white" fill-opacity="0.2"/>
<path d="M307.637 7.17655C277.608 7.17655 253.036 -3.21008 232.967 -13.3646L233.87 -14.8965C253.726 -4.84641 278.035 5.43577 307.637 5.43577C337.239 5.43577 361.535 -4.84641 381.404 -14.8965L382.307 -13.3646C362.238 -3.21008 337.666 7.17655 307.637 7.17655Z" fill="white" fill-opacity="0.2"/>
</g>
<defs>
<clipPath id="clip0_805_6024">
<rect width="673.574" height="375.276" fill="white" transform="translate(-28.9863 -14.9434)"/>
</clipPath>
</defs>
</svg>
