<svg width="41" height="40" viewBox="0 0 41 40" fill="none" xmlns="http://www.w3.org/2000/svg">
<g id="Layer_1" clip-path="url(#clip0_671_15563)">
<path id="Vector" d="M27.1207 35.5215C27.1141 35.529 27.1075 35.5366 27.0997 35.543C27.0997 35.529 27.0986 35.515 27.0986 35.501C27.1063 35.5074 27.1141 35.5139 27.1207 35.5215Z" fill="#FEFEFE"/>
<path id="Vector_2" d="M27.5503 32.9347C27.526 32.9476 27.504 32.9616 27.4819 32.9756C27.4897 32.9616 27.4974 32.9476 27.5062 32.9336C27.5205 32.9336 27.536 32.9336 27.5503 32.9347Z" fill="#FEFEFE"/>
<path id="Vector_3" d="M32.7108 35.5019H31.0583C30.2734 35.5019 29.4874 35.4944 28.7024 35.5073C28.4831 35.5106 28.4334 35.4448 28.429 35.2378C28.407 34.2114 28.4004 34.2114 29.451 34.2114C30.2359 34.2114 30.4178 34.0324 30.4189 33.2615C30.4189 32.5499 30.4211 31.8372 30.4189 31.1246C30.4156 30.5725 30.1797 30.344 29.6152 30.3397C29.2988 30.3364 28.9813 30.3289 28.665 30.3429C28.4842 30.3504 28.4401 30.2933 28.4301 30.1176C28.3717 29.048 28.3662 29.048 29.4488 29.048C30.1102 29.048 30.7717 29.061 31.432 29.0415C31.6911 29.034 31.7506 29.1052 31.7484 29.3521C31.7352 30.6965 31.7407 32.041 31.7429 33.3855C31.7429 33.9903 31.9689 34.2081 32.5885 34.2114C32.8916 34.2124 33.1948 34.2211 33.4969 34.207C33.6776 34.1995 33.7217 34.2577 33.7317 34.4324C33.7901 35.5019 33.7956 35.5019 32.7119 35.5019H32.7108Z" fill="#FEFEFE"/>
<path id="Vector_4" d="M35.0603 35.0986V35.1202C35.0603 35.1202 35.0526 35.1137 35.0493 35.1105C35.0526 35.1062 35.057 35.1029 35.0603 35.0986Z" fill="#FEFEFE"/>
<path id="Vector_5" d="M31.7396 25.1718C31.7418 25.5179 31.4474 25.8122 31.0935 25.8198C30.7397 25.8284 30.4321 25.5449 30.4189 25.1988C30.4056 24.8365 30.7143 24.5271 31.0869 24.5303C31.4408 24.5335 31.7385 24.8246 31.7396 25.1718Z" fill="#FEFEFE"/>
<path id="Vector_6" d="M29.083 25.1772C29.0907 25.1826 29.0973 25.188 29.104 25.1956C29.0984 25.201 29.0929 25.2053 29.0863 25.2107C29.0841 25.1999 29.0841 25.188 29.083 25.1772Z" fill="#FEFEFE"/>
<path id="Vector_7" d="M33.0759 25.1772C33.0748 25.1891 33.0737 25.202 33.0715 25.2139C33.0649 25.2085 33.0582 25.202 33.0527 25.1967L33.0759 25.1772Z" fill="#FEFEFE"/>
<path id="Vector_8" d="M40.6175 27.7154C39.9671 25.5191 38.6794 23.766 36.7392 22.3925C37.1129 22.2286 37.2441 21.9644 37.243 21.6043C37.2375 19.2518 37.2364 16.8992 37.243 14.5466C37.2441 14.1229 37.0534 13.8739 36.6488 13.738C36.0259 13.5299 35.4119 13.296 34.789 13.0879C34.6016 13.0253 34.4991 12.9326 34.434 12.745C34.2191 12.1229 33.9655 11.5138 33.6524 10.9315C33.5532 10.7493 33.5598 10.5908 33.6293 10.3989C33.8806 9.70351 34.111 9.00162 34.3502 8.30297C34.4605 7.98168 34.412 7.70998 34.154 7.45877C32.6294 5.9806 31.1124 4.49704 29.5955 3.01133C29.3431 2.76443 29.0708 2.71052 28.7323 2.82696C28.0202 3.0717 27.3003 3.2938 26.587 3.53208C26.3952 3.59677 26.2331 3.59569 26.0446 3.49973C25.4592 3.20432 24.8507 2.95418 24.2245 2.75472C24.0063 2.68572 23.8883 2.56712 23.8155 2.35903C23.6017 1.75095 23.3636 1.15149 23.1497 0.543401C23.0141 0.160652 22.7572 4.64687e-06 22.3416 0.00108281C19.8623 0.00862998 17.3829 0.00970815 14.9047 4.64686e-06C14.4648 -0.00107352 14.2146 0.185449 14.0757 0.576824C13.8585 1.18383 13.6182 1.78221 13.4076 2.39138C13.3437 2.57467 13.2533 2.68464 13.0626 2.74286C12.4199 2.94017 11.8036 3.20324 11.2028 3.49973C11.0143 3.59246 10.8522 3.59893 10.6593 3.53316C9.94603 3.29273 9.22615 3.07278 8.51509 2.8248C8.15791 2.70081 7.8823 2.77521 7.62103 3.03181C6.11513 4.5089 4.60592 5.98275 3.0945 7.45337C2.84426 7.69704 2.76819 7.95688 2.89056 8.29219C3.14191 8.98653 3.3668 9.68949 3.61044 10.386C3.67989 10.5855 3.67989 10.7547 3.57516 10.9542C3.27199 11.5256 3.01403 12.1186 2.81449 12.7321C2.74945 12.9337 2.63039 13.0286 2.42975 13.0954C1.80578 13.3014 1.19173 13.5353 0.571071 13.7488C0.186328 13.8803 -0.00218572 14.1175 1.9116e-05 14.5283C0.00773604 16.8949 0.00663362 19.2604 1.9116e-05 21.627C1.9116e-05 22.014 0.160972 22.2577 0.536896 22.3871C1.17189 22.6049 1.79696 22.8464 2.43305 23.0577C2.6348 23.1256 2.75055 23.2237 2.81559 23.4243C3.01513 24.0377 3.2753 24.6297 3.57626 25.2011C3.68209 25.4005 3.67768 25.5709 3.60823 25.7693C3.3646 26.4658 3.1397 27.1698 2.88725 27.8631C2.76488 28.2005 2.84536 28.4582 3.0945 28.7008C4.60592 30.1714 6.11623 31.6442 7.62213 33.1213C7.88561 33.3801 8.16452 33.4447 8.5184 33.3229C9.21733 33.0825 9.92619 32.8712 10.624 32.6297C10.8478 32.5531 11.0319 32.5628 11.2447 32.6706C11.8179 32.9596 12.4132 33.2043 13.0273 33.3995C13.229 33.4631 13.3404 33.5612 13.4098 33.765C13.6171 34.3741 13.8585 34.9736 14.0757 35.5806C14.2157 35.9709 14.467 36.1542 14.9069 36.152C17.3862 36.1423 19.8656 36.1477 22.3438 36.1466C22.4816 36.1466 22.6304 36.1725 22.744 36.0841C22.9446 35.9299 23.0483 36 23.196 36.179C25.6632 39.1687 28.8492 40.4474 32.7451 39.8609C38.5086 38.993 42.2424 33.1957 40.6175 27.7154ZM21.5446 27.7164C21.4861 27.9267 21.377 28.0183 21.1719 28.0733C15.3622 29.6259 9.19087 25.8307 8.09176 20.0324C7.96829 19.3822 7.91097 18.7288 7.89663 18.0701C7.8823 12.9208 11.7959 8.51537 17.0048 7.81887C22.8564 7.0372 28.2043 10.9704 29.0013 16.6458C29.1898 17.9925 29.0939 19.324 28.7665 20.6437C28.7059 20.8873 28.5824 21.0016 28.3432 21.0523C28.1161 21.1008 27.868 21.1385 27.6773 21.2561C26.8384 21.7714 25.9476 21.6334 25.0491 21.5116C24.477 21.434 23.9037 21.3682 23.3283 21.3143C22.6966 21.2561 22.378 21.6399 22.5511 22.2415C22.7363 22.8863 22.9281 23.5299 23.1243 24.1714C23.1828 24.3655 23.1673 24.5175 23.0361 24.6911C22.3449 25.6076 21.8455 26.6178 21.5446 27.7164ZM33.2897 38.4464C29.9924 39.3154 26.2596 38.0884 24.3271 35.5008C22.2468 33.1267 21.8951 29.2625 23.4991 26.3881C23.7296 25.9752 23.971 25.5655 24.2896 25.2129C24.5894 24.8819 24.6269 24.5412 24.4847 24.1337C24.326 23.6798 24.2113 23.2119 24.0647 22.7062C24.8353 22.7871 25.5717 22.8421 26.3004 22.9488C26.6884 23.0059 27.0137 22.9391 27.3686 22.7838C30.4587 21.4253 33.4 21.7067 36.1836 23.5892C36.2508 23.6345 36.307 23.6938 36.3688 23.7477C38.2396 25.1741 39.3232 27.0447 39.6011 29.3402C40.1093 33.5224 37.4425 37.3531 33.2897 38.4464Z" fill="#FEFEFE"/>
<path id="Vector_9" d="M27.1207 35.5215C27.1141 35.529 27.1075 35.5366 27.0997 35.543C27.0997 35.529 27.0986 35.515 27.0986 35.501C27.1063 35.5074 27.1141 35.5139 27.1207 35.5215Z" fill="black"/>
<path id="Vector_10" d="M27.5503 32.9347C27.526 32.9476 27.504 32.9616 27.4819 32.9756C27.4897 32.9616 27.4974 32.9476 27.5062 32.9336C27.5205 32.9336 27.536 32.9336 27.5503 32.9347Z" fill="black"/>
<path id="Vector_11" d="M32.7108 35.5019H31.0583C30.2734 35.5019 29.4874 35.4944 28.7024 35.5073C28.4831 35.5106 28.4334 35.4448 28.429 35.2378C28.407 34.2114 28.4004 34.2114 29.451 34.2114C30.2359 34.2114 30.4178 34.0324 30.4189 33.2615C30.4189 32.5499 30.4211 31.8372 30.4189 31.1246C30.4156 30.5725 30.1797 30.344 29.6152 30.3397C29.2988 30.3364 28.9813 30.3289 28.665 30.3429C28.4842 30.3504 28.4401 30.2933 28.4301 30.1176C28.3717 29.048 28.3662 29.048 29.4488 29.048C30.1102 29.048 30.7717 29.061 31.432 29.0415C31.6911 29.034 31.7506 29.1052 31.7484 29.3521C31.7352 30.6965 31.7407 32.041 31.7429 33.3855C31.7429 33.9903 31.9689 34.2081 32.5885 34.2114C32.8916 34.2124 33.1948 34.2211 33.4969 34.207C33.6776 34.1995 33.7217 34.2577 33.7317 34.4324C33.7901 35.5019 33.7956 35.5019 32.7119 35.5019H32.7108Z" fill="black"/>
<path id="Vector_12" d="M35.0603 35.0986V35.1202C35.0603 35.1202 35.0526 35.1137 35.0493 35.1105C35.0526 35.1062 35.057 35.1029 35.0603 35.0986Z" fill="black"/>
<path id="Vector_13" d="M31.7396 25.1718C31.7418 25.5179 31.4474 25.8122 31.0935 25.8198C30.7397 25.8284 30.4321 25.5449 30.4189 25.1988C30.4056 24.8365 30.7143 24.5271 31.0869 24.5303C31.4408 24.5335 31.7385 24.8246 31.7396 25.1718Z" fill="black"/>
<path id="Vector_14" d="M29.083 25.1772C29.0907 25.1826 29.0973 25.188 29.104 25.1956C29.0984 25.201 29.0929 25.2053 29.0863 25.2107C29.0841 25.1999 29.0841 25.188 29.083 25.1772Z" fill="black"/>
<path id="Vector_15" d="M33.0759 25.1772C33.0748 25.1891 33.0737 25.202 33.0715 25.2139C33.0649 25.2085 33.0582 25.202 33.0527 25.1967L33.0759 25.1772Z" fill="black"/>
<path id="Vector_16" d="M40.6175 27.7154C39.9671 25.5191 38.6794 23.766 36.7392 22.3925C37.1129 22.2286 37.2441 21.9644 37.243 21.6043C37.2375 19.2518 37.2364 16.8992 37.243 14.5466C37.2441 14.1229 37.0534 13.8739 36.6488 13.738C36.0259 13.5299 35.4119 13.296 34.789 13.0879C34.6016 13.0253 34.4991 12.9326 34.434 12.745C34.2191 12.1229 33.9655 11.5138 33.6524 10.9315C33.5532 10.7493 33.5598 10.5908 33.6293 10.3989C33.8806 9.70351 34.111 9.00162 34.3502 8.30297C34.4605 7.98168 34.412 7.70998 34.154 7.45877C32.6294 5.9806 31.1124 4.49704 29.5955 3.01133C29.3431 2.76443 29.0708 2.71052 28.7323 2.82696C28.0202 3.0717 27.3003 3.2938 26.587 3.53208C26.3952 3.59677 26.2331 3.59569 26.0446 3.49973C25.4592 3.20432 24.8507 2.95418 24.2245 2.75472C24.0063 2.68572 23.8883 2.56712 23.8155 2.35903C23.6017 1.75095 23.3636 1.15149 23.1497 0.543401C23.0141 0.160652 22.7572 4.64687e-06 22.3416 0.00108281C19.8623 0.00862998 17.3829 0.00970815 14.9047 4.64686e-06C14.4648 -0.00107352 14.2146 0.185449 14.0757 0.576824C13.8585 1.18383 13.6182 1.78221 13.4076 2.39138C13.3437 2.57467 13.2533 2.68464 13.0626 2.74286C12.4199 2.94017 11.8036 3.20324 11.2028 3.49973C11.0143 3.59246 10.8522 3.59893 10.6593 3.53316C9.94603 3.29273 9.22615 3.07278 8.51509 2.8248C8.15791 2.70081 7.8823 2.77521 7.62103 3.03181C6.11513 4.5089 4.60592 5.98275 3.0945 7.45337C2.84426 7.69704 2.76819 7.95688 2.89056 8.29219C3.14191 8.98653 3.3668 9.68949 3.61044 10.386C3.67989 10.5855 3.67989 10.7547 3.57516 10.9542C3.27199 11.5256 3.01403 12.1186 2.81449 12.7321C2.74945 12.9337 2.63039 13.0286 2.42975 13.0954C1.80578 13.3014 1.19173 13.5353 0.571071 13.7488C0.186328 13.8803 -0.00218572 14.1175 1.9116e-05 14.5283C0.00773604 16.8949 0.00663362 19.2604 1.9116e-05 21.627C1.9116e-05 22.014 0.160972 22.2577 0.536896 22.3871C1.17189 22.6049 1.79696 22.8464 2.43305 23.0577C2.6348 23.1256 2.75055 23.2237 2.81559 23.4243C3.01513 24.0377 3.2753 24.6297 3.57626 25.2011C3.68209 25.4005 3.67768 25.5709 3.60823 25.7693C3.3646 26.4658 3.1397 27.1698 2.88725 27.8631C2.76488 28.2005 2.84536 28.4582 3.0945 28.7008C4.60592 30.1714 6.11623 31.6442 7.62213 33.1213C7.88561 33.3801 8.16452 33.4447 8.5184 33.3229C9.21733 33.0825 9.92619 32.8712 10.624 32.6297C10.8478 32.5531 11.0319 32.5628 11.2447 32.6706C11.8179 32.9596 12.4132 33.2043 13.0273 33.3995C13.229 33.4631 13.3404 33.5612 13.4098 33.765C13.6171 34.3741 13.8585 34.9736 14.0757 35.5806C14.2157 35.9709 14.467 36.1542 14.9069 36.152C17.3862 36.1423 19.8656 36.1477 22.3438 36.1466C22.4816 36.1466 22.6304 36.1725 22.744 36.0841C22.9446 35.9299 23.0483 36 23.196 36.179C25.6632 39.1687 28.8492 40.4474 32.7451 39.8609C38.5086 38.993 42.2424 33.1957 40.6175 27.7154ZM21.5446 27.7164C21.4861 27.9267 21.377 28.0183 21.1719 28.0733C15.3622 29.6259 9.19087 25.8307 8.09176 20.0324C7.96829 19.3822 7.91097 18.7288 7.89663 18.0701C7.8823 12.9208 11.7959 8.51537 17.0048 7.81887C22.8564 7.0372 28.2043 10.9704 29.0013 16.6458C29.1898 17.9925 29.0939 19.324 28.7665 20.6437C28.7059 20.8873 28.5824 21.0016 28.3432 21.0523C28.1161 21.1008 27.868 21.1385 27.6773 21.2561C26.8384 21.7714 25.9476 21.6334 25.0491 21.5116C24.477 21.434 23.9037 21.3682 23.3283 21.3143C22.6966 21.2561 22.378 21.6399 22.5511 22.2415C22.7363 22.8863 22.9281 23.5299 23.1243 24.1714C23.1828 24.3655 23.1673 24.5175 23.0361 24.6911C22.3449 25.6076 21.8455 26.6178 21.5446 27.7164ZM33.2897 38.4464C29.9924 39.3154 26.2596 38.0884 24.3271 35.5008C22.2468 33.1267 21.8951 29.2625 23.4991 26.3881C23.7296 25.9752 23.971 25.5655 24.2896 25.2129C24.5894 24.8819 24.6269 24.5412 24.4847 24.1337C24.326 23.6798 24.2113 23.2119 24.0647 22.7062C24.8353 22.7871 25.5717 22.8421 26.3004 22.9488C26.6884 23.0059 27.0137 22.9391 27.3686 22.7838C30.4587 21.4253 33.4 21.7067 36.1836 23.5892C36.2508 23.6345 36.307 23.6938 36.3688 23.7477C38.2396 25.1741 39.3232 27.0447 39.6011 29.3402C40.1093 33.5224 37.4425 37.3531 33.2897 38.4464Z" fill="black"/>
<path id="Vector_17" d="M39.6009 29.3402C39.3231 27.0447 38.2395 25.1741 36.3686 23.7477C36.3069 23.6938 36.2507 23.6345 36.1834 23.5892C33.3998 21.7067 30.4586 21.4253 27.3685 22.7838C27.0135 22.9391 26.6883 23.0059 26.3003 22.9488C25.5716 22.842 24.8352 22.7871 24.0646 22.7062C24.2112 23.2119 24.3258 23.6798 24.4846 24.1337C24.6268 24.5412 24.5893 24.8819 24.2895 25.2129C23.9709 25.5655 23.7294 25.9752 23.499 26.3881C21.895 29.2625 22.2467 33.1267 24.3269 35.5008C26.2595 38.0884 29.9923 39.3154 33.2896 38.4464C37.4424 37.3531 40.1092 33.5224 39.6009 29.3402ZM30.4928 23.3358C31.3041 23.0825 32.0119 23.3078 32.5829 23.9234C32.9115 24.2771 33.0382 24.7116 33.0757 25.1774C33.0746 25.1892 33.0735 25.2022 33.0713 25.214C32.9875 26.097 32.551 26.7418 31.6646 27.0167C30.8544 27.269 30.1455 27.0447 29.5745 26.4302C29.2548 26.0852 29.1236 25.6636 29.0861 25.2108C29.0839 25.2 29.0839 25.1881 29.0828 25.1774C29.1588 24.276 29.5921 23.6162 30.4928 23.3358ZM35.0601 35.1202C35.0557 35.434 35.0546 35.7488 35.0457 36.0625C35.0347 36.5369 34.7922 36.7892 34.3115 36.7903C32.1574 36.7957 30.0022 36.7957 27.847 36.7903C27.3663 36.7892 27.126 36.5369 27.1128 36.0625C27.1072 35.89 27.1039 35.7164 27.0995 35.5429C27.0995 35.5288 27.0984 35.5148 27.0984 35.5008C27.1039 34.924 27.126 34.345 27.1061 33.7693C27.0951 33.421 27.1987 33.1579 27.4821 32.9757C27.4898 32.9617 27.4975 32.9477 27.5063 32.9337C27.5206 32.9337 27.5361 32.9337 27.5504 32.9348C27.729 32.9294 27.9076 32.9207 28.0862 32.9207C29.1379 32.9207 29.1302 32.9207 29.1026 31.8868C29.0971 31.6668 29.0277 31.6151 28.8193 31.6259C28.504 31.641 28.1865 31.6334 27.8701 31.628C27.363 31.6194 27.1172 31.38 27.1139 30.8798C27.1083 30.1143 27.1117 29.3488 27.1128 28.5833C27.115 27.9784 27.3376 27.7585 27.9561 27.7574C29.3727 27.7563 30.7904 27.7563 32.207 27.7574C32.8464 27.7574 33.0625 27.9752 33.0636 28.6124C33.0636 29.9418 33.0702 31.2712 33.0581 32.6005C33.0548 32.8604 33.1132 32.9811 33.3932 32.9067H33.3943C33.7074 32.911 34.0205 32.911 34.3336 32.9218C34.7856 32.9369 35.0347 33.1784 35.0446 33.6226C35.0568 34.1143 35.0557 34.607 35.0601 35.0986V35.1202Z" fill="#27465B"/>
<path id="Vector_18" d="M18.6152 34.856C17.5966 34.856 16.5768 34.8485 15.5582 34.8614C15.3157 34.8647 15.1878 34.7978 15.1084 34.5649C14.9232 34.0172 14.6983 33.4825 14.5131 32.9347C14.3984 32.5962 14.1769 32.3946 13.8351 32.2943C13.016 32.0539 12.2322 31.7283 11.477 31.3391C11.1893 31.1914 10.9093 31.1795 10.6028 31.2841C9.9546 31.5062 9.29756 31.7035 8.64934 31.9277C8.43768 32.0011 8.30318 31.9644 8.14443 31.8081C6.91414 30.594 5.67723 29.3876 4.4337 28.1865C4.28377 28.042 4.254 27.9148 4.32125 27.7261C4.54725 27.0922 4.75119 26.4517 4.9805 25.8199C5.09294 25.5072 5.07861 25.2237 4.91876 24.9294C4.5252 24.2048 4.19888 23.4501 3.95745 22.6641C3.85052 22.3148 3.63445 22.0927 3.27396 21.9763C2.72605 21.7994 2.18918 21.5892 1.64348 21.4091C1.42189 21.3358 1.31717 21.2399 1.31937 20.9843C1.3326 19.049 1.3315 17.1126 1.31937 15.1773C1.31827 14.9294 1.40977 14.8215 1.63466 14.7461C2.20682 14.5552 2.77015 14.3396 3.3412 14.1466C3.63886 14.0463 3.82516 13.863 3.91997 13.5698C4.19558 12.7234 4.54284 11.9062 4.96617 11.1202C5.09625 10.8776 5.08192 10.6329 4.99373 10.3795C4.77324 9.74445 4.56819 9.10402 4.33999 8.47113C4.26282 8.2555 4.28156 8.11318 4.45795 7.94283C5.69376 6.75361 6.92075 5.55577 8.13892 4.3493C8.31531 4.17464 8.46303 4.16385 8.68131 4.23933C9.30308 4.45388 9.93586 4.63933 10.5576 4.85496C10.8906 4.97032 11.1926 4.96278 11.509 4.79889C12.2509 4.41399 13.0237 4.0927 13.8307 3.86197C14.1967 3.75739 14.4073 3.5342 14.5263 3.18811C14.7148 2.64148 14.932 2.10456 15.1216 1.55792C15.1889 1.36278 15.2903 1.28946 15.5075 1.29054C17.5866 1.29809 19.6669 1.29809 21.7461 1.29054C21.9643 1.29054 22.0602 1.36601 22.1275 1.56008C22.3259 2.13151 22.5475 2.69539 22.7526 3.26466C22.8562 3.55038 23.0359 3.73151 23.3457 3.82423C24.2022 4.07976 25.0235 4.42369 25.8162 4.82908C26.0775 4.96278 26.3387 4.97248 26.6132 4.88191C27.2769 4.66305 27.9449 4.45496 28.6064 4.22639C28.8159 4.15415 28.9515 4.18434 29.1113 4.34283C30.3306 5.54822 31.5587 6.74499 32.7912 7.93744C32.9477 8.08946 32.9918 8.21668 32.9135 8.43016C32.6721 9.08677 32.4638 9.75415 32.23 10.4129C32.143 10.6577 32.1441 10.8787 32.2686 11.1094C32.6986 11.9073 33.0591 12.7331 33.3336 13.5946C33.4207 13.8695 33.5981 14.0442 33.8892 14.138C34.4492 14.3202 34.9949 14.5477 35.5571 14.7234C35.8327 14.8097 35.9066 14.9477 35.9044 15.2183C35.8934 17.0868 35.8989 18.9552 35.8978 20.8237C35.8978 21.3725 35.4723 21.6614 34.9552 21.4415C34.2067 21.1234 33.4295 20.9067 32.6269 20.7784C31.9192 20.6652 31.2015 20.593 30.4893 20.6835C30.1255 20.7299 30.1112 20.6426 30.1751 20.3471C30.6128 18.331 30.5103 16.3267 29.7937 14.3967C28.1831 10.056 25.039 7.40159 20.3636 6.61884C14.114 5.57302 8.06947 9.71102 6.8535 15.7887C5.69266 21.5903 9.05172 27.2474 14.7722 29.104C16.7411 29.7434 18.753 29.8749 20.7936 29.4717C21.0626 29.4188 21.1982 29.4404 21.1794 29.7703C21.0901 31.3531 21.3823 32.869 22.0525 34.3148C22.23 34.6986 22.1121 34.855 21.6733 34.856C20.6547 34.8582 19.6349 34.856 18.6163 34.856H18.6152Z" fill="#686868"/>
<path id="Vector_19" d="M27.1207 35.5215C27.1141 35.529 27.1075 35.5366 27.0997 35.543C27.0997 35.529 27.0986 35.515 27.0986 35.501C27.1063 35.5074 27.1141 35.5139 27.1207 35.5215Z" fill="#EDCB61"/>
<path id="Vector_20" d="M29.083 25.1772C29.0907 25.1826 29.0973 25.188 29.104 25.1956C29.0984 25.201 29.0929 25.2053 29.0863 25.2107C29.0841 25.1999 29.0841 25.188 29.083 25.1772Z" fill="#EDCB61"/>
<path id="Vector_21" d="M33.0759 25.1772C33.0748 25.1891 33.0737 25.202 33.0715 25.2139C33.0649 25.2085 33.0582 25.202 33.0527 25.1967L33.0759 25.1772Z" fill="#EDCB61"/>
<path id="Vector_22" d="M35.0603 35.0986V35.1202C35.0603 35.1202 35.0526 35.1137 35.0493 35.1105C35.0526 35.1062 35.057 35.1029 35.0603 35.0986Z" fill="#EDCB61"/>
<path id="Vector_23" d="M27.1207 35.5215C27.1141 35.529 27.1075 35.5366 27.0997 35.543C27.0997 35.529 27.0986 35.515 27.0986 35.501C27.1063 35.5074 27.1141 35.5139 27.1207 35.5215Z" fill="#F2A745"/>
<path id="Vector_24" d="M35.0603 35.0986V35.1202C35.0603 35.1202 35.0526 35.1137 35.0493 35.1105C35.0526 35.1062 35.057 35.1029 35.0603 35.0986Z" fill="#F2A745"/>
<path id="Vector_25" d="M35.0603 35.0989C35.0559 34.6072 35.057 34.1145 35.0449 33.6229C35.0349 33.1787 34.7858 32.9372 34.3338 32.9221C34.0207 32.9113 33.7076 32.9113 33.3945 32.907H33.3934C33.1134 32.9814 33.055 32.8606 33.0583 32.6008C33.0704 31.2714 33.0638 29.942 33.0638 28.6126C33.0627 27.9754 32.8466 27.7587 32.2072 27.7576C30.7906 27.7566 29.3729 27.7566 27.9563 27.7576C27.3379 27.7576 27.1152 27.9787 27.113 28.5835C27.1119 29.349 27.1086 30.1145 27.1141 30.88C27.1174 31.3803 27.3632 31.6196 27.8703 31.6283C28.1867 31.6337 28.5042 31.6412 28.8195 31.6261C29.0279 31.6153 29.0973 31.6671 29.1028 31.887C29.1304 32.9199 29.1381 32.9199 28.0864 32.921C27.9078 32.921 27.7292 32.9296 27.5506 32.935C27.5264 32.9479 27.5043 32.962 27.4823 32.976C27.199 33.1582 27.0953 33.4213 27.1064 33.7695C27.1262 34.3452 27.1041 34.9242 27.0986 35.501C27.1063 35.5075 27.1141 35.514 27.1207 35.5215C27.1141 35.5291 27.1075 35.5366 27.0997 35.5431C27.1041 35.7167 27.1075 35.8903 27.113 36.0628C27.1262 36.5372 27.3665 36.7895 27.8472 36.7905C30.0024 36.7959 32.1576 36.7959 34.3117 36.7905C34.7924 36.7895 35.0349 36.5372 35.046 36.0628C35.0548 35.749 35.0559 35.4342 35.0603 35.1204C35.0559 35.1172 35.0526 35.114 35.0493 35.1107C35.0526 35.1064 35.057 35.1032 35.0603 35.0989ZM32.711 35.5021H31.0585C30.2736 35.5021 29.4876 35.4946 28.7026 35.5075C28.4833 35.5107 28.4337 35.445 28.4293 35.238C28.4072 34.2116 28.4006 34.2116 29.4512 34.2116C30.2361 34.2116 30.418 34.0326 30.4191 33.2617C30.4191 32.5501 30.4213 31.8374 30.4191 31.1248C30.4158 30.5727 30.1799 30.3442 29.6155 30.3399C29.2991 30.3366 28.9816 30.3291 28.6652 30.3431C28.4844 30.3506 28.4403 30.2935 28.4304 30.1178C28.3719 29.0482 28.3664 29.0482 29.449 29.0482C30.1104 29.0482 30.7719 29.0611 31.4322 29.0417C31.6913 29.0342 31.7508 29.1054 31.7486 29.3523C31.7354 30.6967 31.7409 32.0412 31.7431 33.3857C31.7431 33.9905 31.9691 34.2083 32.5887 34.2116C32.8918 34.2126 33.195 34.2213 33.4971 34.2072C33.6779 34.1997 33.722 34.2579 33.7319 34.4326C33.7903 35.5021 33.7958 35.5021 32.7121 35.5021H32.711Z" fill="white"/>
<path id="Vector_26" d="M27.1207 35.5215C27.1141 35.529 27.1075 35.5366 27.0997 35.543C27.0997 35.529 27.0986 35.515 27.0986 35.501C27.1063 35.5074 27.1141 35.5139 27.1207 35.5215Z" fill="black"/>
<path id="Vector_27" d="M32.7108 35.5019H31.0583C30.2734 35.5019 29.4874 35.4944 28.7024 35.5073C28.4831 35.5106 28.4334 35.4448 28.429 35.2378C28.407 34.2114 28.4004 34.2114 29.451 34.2114C30.2359 34.2114 30.4178 34.0324 30.4189 33.2615C30.4189 32.5499 30.4211 31.8372 30.4189 31.1246C30.4156 30.5725 30.1797 30.344 29.6152 30.3397C29.2988 30.3364 28.9813 30.3289 28.665 30.3429C28.4842 30.3504 28.4401 30.2933 28.4301 30.1176C28.3717 29.048 28.3662 29.048 29.4488 29.048C30.1102 29.048 30.7717 29.061 31.432 29.0415C31.6911 29.034 31.7506 29.1052 31.7484 29.3521C31.7352 30.6965 31.7407 32.041 31.7429 33.3855C31.7429 33.9903 31.9689 34.2081 32.5885 34.2114C32.8916 34.2124 33.1948 34.2211 33.4969 34.207C33.6776 34.1995 33.7217 34.2577 33.7317 34.4324C33.7901 35.5019 33.7956 35.5019 32.7119 35.5019H32.7108Z" fill="black"/>
<path id="Vector_28" d="M35.0603 35.0986V35.1202C35.0603 35.1202 35.0526 35.1137 35.0493 35.1105C35.0526 35.1062 35.057 35.1029 35.0603 35.0986Z" fill="black"/>
<path id="Vector_29" d="M29.104 25.1956C29.104 25.1956 29.0929 25.2053 29.0863 25.2107C29.0841 25.1999 29.0841 25.188 29.083 25.1772C29.0907 25.1826 29.0973 25.188 29.104 25.1956Z" fill="#FBE69B"/>
<path id="Vector_30" d="M33.0759 25.1772C33.0748 25.1891 33.0737 25.202 33.0715 25.2139C33.0649 25.2085 33.0582 25.202 33.0527 25.1967L33.0759 25.1772Z" fill="#FBE69B"/>
<path id="Vector_31" d="M31.7396 25.1718C31.7418 25.5179 31.4474 25.8122 31.0935 25.8198C30.7397 25.8284 30.4321 25.5449 30.4189 25.1988C30.4056 24.8365 30.7143 24.5271 31.0869 24.5303C31.4408 24.5335 31.7385 24.8246 31.7396 25.1718Z" fill="black"/>
<path id="Vector_32" d="M29.083 25.1772C29.0907 25.1826 29.0973 25.188 29.104 25.1956C29.0984 25.201 29.0929 25.2053 29.0863 25.2107C29.0841 25.1999 29.0841 25.188 29.083 25.1772Z" fill="black"/>
<path id="Vector_33" d="M33.0759 25.1772C33.0748 25.1891 33.0737 25.202 33.0715 25.2139C33.0649 25.2085 33.0582 25.202 33.0527 25.1967L33.0759 25.1772Z" fill="black"/>
</g>
<defs>
<clipPath id="clip0_671_15563">
<rect width="41" height="40" fill="white"/>
</clipPath>
</defs>
</svg>
