<svg width="42" height="53" viewBox="0 0 42 53" fill="none" xmlns="http://www.w3.org/2000/svg">
<g clip-path="url(#clip0_1031_4832)">
<path d="M40.5728 8.72856C38.7782 8.74452 36.9836 8.73872 35.189 8.73581C33.6976 8.73146 32.7575 7.78846 32.7531 6.28691C32.7473 4.55033 32.7284 2.81231 32.7647 1.07718C32.7763 0.56651 32.6182 0.476562 32.1438 0.476562C22.1741 0.489619 12.2044 0.486718 2.23464 0.486718C1.05081 0.486718 0.751953 0.781225 0.751953 1.952C0.751953 10.1474 0.751953 18.3428 0.751953 26.5382C0.751953 34.7888 0.751953 43.0379 0.751953 51.2884C0.751953 52.1908 1.11755 52.5883 1.9619 52.5883C14.5778 52.5912 27.1937 52.5912 39.8111 52.5883C40.6192 52.5883 41.0138 52.1966 41.0138 51.39C41.0167 37.3146 41.0138 23.2392 41.024 9.16379C41.0254 8.79675 40.9123 8.72566 40.5713 8.72856H40.5728ZM20.8611 3.31718C24.9886 3.30992 28.3137 6.63219 28.3065 10.7553C28.3007 14.8479 24.9726 18.1673 20.8814 18.1658C16.7873 18.1629 13.4694 14.845 13.4622 10.748C13.4564 6.64815 16.7656 3.32443 20.8611 3.31718ZM10.2922 21.6506C12.4466 21.6491 14.601 21.6491 16.7569 21.6491C18.9127 21.6491 21.0671 21.6491 23.2215 21.652C23.8512 21.6535 24.2487 22.0031 24.2429 22.524C24.2371 23.0433 23.8367 23.3756 23.2041 23.3872H23.1504C18.8576 23.3872 14.5662 23.3872 10.2748 23.3857C9.59441 23.3857 9.18385 23.0636 9.17079 22.5341C9.15628 21.9843 9.5741 21.6506 10.2922 21.6506ZM10.1109 26.4048C12.3204 26.3961 14.5299 26.4019 16.7395 26.4019C18.949 26.4019 21.0497 26.4048 23.2041 26.399C23.6626 26.3975 24.0253 26.5208 24.1892 26.9894C24.3531 27.4595 24.0992 27.9528 23.5944 28.0833C23.3884 28.137 23.1649 28.1385 22.9502 28.1385C18.7851 28.1414 14.6184 28.1414 10.4533 28.1414C10.3271 28.1414 10.1994 28.1472 10.0732 28.137C9.52768 28.0891 9.15628 27.7177 9.16789 27.2433C9.17949 26.7573 9.54944 26.4077 10.1109 26.4048ZM15.5382 30.3799C15.9677 30.0419 16.3681 29.9548 16.8889 30.1275C19.5104 30.995 22.1407 31.8394 24.768 32.691C25.0016 32.7679 25.1975 32.8491 25.4369 32.6054C27.6319 30.3712 29.8458 28.1559 32.0524 25.9347C32.0756 25.9115 32.0857 25.8752 32.1409 25.7708C31.8957 25.7708 31.6998 25.7926 31.5083 25.7679C31.0339 25.7026 30.7641 25.4095 30.7191 24.9409C30.6785 24.526 31.0049 24.1024 31.4387 24.0574C32.4659 23.9501 33.4944 23.8572 34.5245 23.8035C35.1222 23.7731 35.4632 24.2112 35.3993 24.8408C35.3094 25.7215 35.2136 26.6021 35.1135 27.4827C35.041 28.121 34.6783 28.4982 34.1778 28.4707C33.6366 28.4402 33.3508 28.034 33.3798 27.342C33.3827 27.2883 33.3798 27.2346 33.3798 27.1693C33.1767 27.1418 33.1172 27.326 33.0186 27.4261C30.7815 29.669 28.543 31.9105 26.3262 34.1722C25.8779 34.6292 25.4543 34.7511 24.829 34.5407C22.2277 33.6644 19.6106 32.839 17.005 31.9786C16.6408 31.8597 16.3855 31.909 16.0794 32.1498C13.4187 34.239 10.7434 36.3107 8.07255 38.3867C7.95794 38.4752 7.84768 38.571 7.72582 38.6479C7.3109 38.9119 6.8452 38.8481 6.55359 38.4955C6.24893 38.127 6.28085 37.6236 6.67836 37.2885C7.20354 36.8445 7.75774 36.4354 8.30032 36.0132C10.7144 34.1374 13.1358 32.2688 15.5382 30.3799ZM4.74593 21.6564C4.94614 21.6433 5.1478 21.6462 5.348 21.6491C5.4365 21.6506 5.52355 21.652 5.61059 21.652C5.69764 21.652 5.77743 21.652 5.86013 21.6491C6.08354 21.6462 6.30841 21.6404 6.53038 21.6578C7.00479 21.6912 7.33701 22.0539 7.34427 22.5051C7.35007 22.9519 7.02074 23.3495 6.55214 23.3741C5.94137 23.406 5.32479 23.406 4.71401 23.3756C4.21205 23.3524 3.88852 22.9563 3.90884 22.4732C3.92915 22.0162 4.25557 21.6869 4.74593 21.6564ZM3.91464 27.1722C3.96251 26.721 4.23381 26.4527 4.6879 26.4149C4.99256 26.3888 5.30013 26.4091 5.60769 26.4091V26.412C5.93121 26.412 6.25764 26.3903 6.57971 26.4178C7.04105 26.457 7.29929 26.7486 7.33411 27.1925C7.36893 27.635 7.16437 27.9977 6.71318 28.0761C5.98634 28.2023 5.23919 28.2124 4.51381 28.0688C4.06842 27.9803 3.86966 27.6205 3.91464 27.1722ZM9.67421 50.2845C9.67421 51.0708 9.24623 51.4944 8.47007 51.5032C7.63732 51.5119 6.80458 51.5119 5.97183 51.5032C5.18987 51.4944 4.7822 51.0795 4.7764 50.2859C4.76914 49.0934 4.77495 47.9009 4.77495 46.7083C4.77495 45.5158 4.77059 44.3595 4.7764 43.1859C4.78075 42.3473 5.17101 41.9527 5.99795 41.9455C6.83069 41.9382 7.66344 41.9368 8.49618 41.9469C9.24043 41.9556 9.67131 42.3792 9.67421 43.1307C9.68291 45.5144 9.68146 47.8994 9.67421 50.2845ZM18.7865 50.3092C18.7851 51.0882 18.3382 51.4959 17.5519 51.5032C16.7917 51.5104 16.03 51.5061 15.2698 51.5046C14.2572 51.5032 13.8844 51.1434 13.8829 50.1452C13.8785 47.9923 13.8814 45.8408 13.8814 43.6893V37.451C13.8814 36.1641 14.1774 35.874 15.4875 35.874C16.1766 35.874 16.8657 35.8682 17.5534 35.874C18.3397 35.8827 18.7851 36.2903 18.788 37.0709C18.7981 41.4827 18.7981 45.8945 18.788 50.3077L18.7865 50.3092ZM27.8872 50.1075C27.8858 51.1492 27.526 51.5032 26.4843 51.5046C25.7241 51.5061 24.9639 51.5119 24.2022 51.5032C23.4246 51.4944 22.9836 51.0795 22.9821 50.2947C22.972 46.572 22.972 42.8478 22.9821 39.1252C22.9836 38.3345 23.413 37.9326 24.2037 37.9239C25.019 37.9167 25.8344 37.9167 26.6483 37.9239C27.4839 37.9312 27.88 38.3142 27.8843 39.1542C27.8959 41.0155 27.8887 42.8769 27.8887 44.7396C27.8887 46.6024 27.8916 48.3173 27.8872 50.1075ZM36.9937 50.138C36.9937 51.1434 36.6281 51.5032 35.6169 51.5046C34.8379 51.5061 34.0588 51.5133 33.2797 51.5017C32.5369 51.4915 32.0959 51.0621 32.0959 50.3179C32.0901 43.7546 32.0901 37.1913 32.0959 30.6294C32.0974 29.8837 32.5369 29.4703 33.2913 29.463C34.1067 29.4558 34.9206 29.4572 35.7359 29.4616C36.6064 29.4659 36.9923 29.8475 36.9937 30.7223C36.9966 33.9764 36.9937 37.2304 36.9937 40.4845C36.9937 43.7386 36.9937 46.9202 36.9937 50.138Z" fill="#2140A4"/>
<path d="M40.8406 6.97169C40.7637 7.07034 40.6085 6.99635 40.4794 6.99635C38.7225 7.00215 36.9656 6.99635 35.2073 7.0036C34.8054 7.0036 34.5022 6.87594 34.4993 6.44506C34.4848 4.51698 34.492 2.59035 34.492 0.628906C36.6406 2.77605 38.7356 4.86807 40.8406 6.97169Z" fill="#2140A4"/>
<path d="M20.8609 3.31739C16.7653 3.32465 13.4561 6.64837 13.4619 10.7483C13.4692 14.8452 16.7871 18.1632 20.8812 18.1661C24.9724 18.1661 28.3004 14.8481 28.3062 10.7555C28.3135 6.63241 24.9883 3.31014 20.8609 3.31739ZM22.2478 15.0237C21.9446 15.1252 21.7415 15.1978 21.7154 15.604C21.6878 16.0421 21.3237 16.2975 20.8768 16.2946C20.43 16.2902 20.0702 16.0291 20.0499 15.5895C20.031 15.1847 19.8294 15.1064 19.5276 14.9903C18.618 14.6392 17.9796 14.0096 17.6967 13.0593C17.5429 12.5371 17.7606 12.0699 18.2219 11.9147C18.6716 11.7638 19.1011 11.9756 19.3201 12.4573C19.7989 13.5105 21.0669 13.8689 22.0432 13.2262C22.5205 12.9128 22.5235 12.3934 22.0447 12.0177C21.6747 11.7275 21.2178 11.6724 20.7796 11.5665C20.3937 11.4722 20.0035 11.3895 19.6321 11.2546C18.5672 10.8643 17.926 10.1273 17.8752 8.95945C17.8302 7.9207 18.4772 6.96319 19.5349 6.51635C19.8279 6.39158 20.0368 6.30744 20.047 5.89977C20.06 5.46019 20.4155 5.19034 20.8623 5.18164C21.3353 5.17148 21.6893 5.44423 21.7255 5.90993C21.7545 6.27117 21.9083 6.37417 22.2028 6.48878C22.9398 6.77604 23.4723 7.30412 23.8132 8.0208C23.8828 8.16733 23.951 8.31676 23.9365 8.4894C23.9089 8.91158 23.7044 9.20318 23.2851 9.31344C22.8339 9.43095 22.4756 9.25541 22.2986 8.85064C21.9722 8.09624 21.1249 7.81044 20.3865 8.04256C19.9556 8.17748 19.6263 8.42847 19.6205 8.91158C19.6146 9.36857 19.973 9.57458 20.3429 9.68629C20.842 9.83717 21.3672 9.90536 21.8706 10.0475C22.7309 10.2927 23.4781 10.7149 23.8857 11.5607C24.5777 12.997 23.8799 14.4782 22.2478 15.0237Z" fill="white"/>
<path d="M36.994 40.4844C36.994 43.7022 36.994 46.9201 36.994 50.1379C36.994 51.1433 36.6284 51.5016 35.6172 51.5045C34.8381 51.506 34.059 51.5132 33.28 51.5016C32.5372 51.4914 32.0961 51.0606 32.0961 50.3163C32.0903 43.753 32.0903 37.1912 32.0961 30.6279C32.0961 29.8822 32.5372 29.4687 33.2901 29.4614C34.1055 29.4542 34.9208 29.4571 35.7361 29.4614C36.6066 29.4658 36.9925 29.8474 36.9925 30.7207C36.9969 33.9748 36.994 37.2289 36.994 40.483V40.4844Z" fill="white"/>
<path d="M13.8823 43.6896C13.8823 41.6106 13.8823 39.5302 13.8823 37.4513C13.8823 36.1644 14.1783 35.8743 15.4883 35.8743C16.1774 35.8743 16.8651 35.8685 17.5542 35.8757C18.3405 35.8844 18.7859 36.2921 18.7888 37.0726C18.799 41.4844 18.799 45.8962 18.7888 50.3095C18.7874 51.09 18.3405 51.4976 17.5542 51.5049C16.794 51.5122 16.0324 51.5078 15.2707 51.5049C14.2595 51.5034 13.8852 51.1437 13.8838 50.1441C13.8794 47.9926 13.8838 45.8411 13.8838 43.6881L13.8823 43.6896Z" fill="white"/>
<path d="M32.1406 25.7695C31.8954 25.7695 31.6981 25.7913 31.5081 25.7652C31.0322 25.7013 30.7638 25.4083 30.7174 24.9397C30.6768 24.5248 31.0047 24.1011 31.4384 24.0562C32.4641 23.9488 33.4942 23.8545 34.5242 23.8023C35.1219 23.7718 35.4629 24.2099 35.3976 24.8396C35.3076 25.7202 35.2133 26.6008 35.1132 27.48C35.0407 28.1198 34.6766 28.4955 34.176 28.468C33.6364 28.4375 33.3491 28.0313 33.3781 27.3407C33.381 27.287 33.3781 27.2334 33.3781 27.1681C33.175 27.1405 33.1155 27.3248 33.0169 27.4249C30.7798 29.6678 28.5412 31.9092 26.3245 34.1724C25.8762 34.6294 25.4525 34.7513 24.8273 34.5409C22.2275 33.6646 19.6088 32.8391 17.0032 31.9788C16.6391 31.8584 16.3838 31.9092 16.0776 32.1486C13.4169 34.2391 10.7417 36.3094 8.07083 38.3854C7.95622 38.4739 7.84596 38.5697 7.7241 38.6466C7.30917 38.9106 6.84348 38.8468 6.55187 38.4943C6.24721 38.1243 6.27913 37.6223 6.67664 37.2858C7.20182 36.8433 7.75456 36.4327 8.29715 36.0105C10.7112 34.1347 13.1326 32.2675 15.5351 30.3772C15.9645 30.0392 16.3635 29.9521 16.8857 30.1247C19.5073 30.9923 22.1375 31.8381 24.7649 32.6897C24.9985 32.7652 25.1943 32.8478 25.4351 32.6027C27.6302 30.3685 29.8426 28.1531 32.0507 25.932C32.0739 25.9088 32.084 25.8725 32.1392 25.7695H32.1406Z" fill="white"/>
<path d="M27.8887 44.7392C27.8887 46.528 27.8916 48.3183 27.8887 50.1071C27.8873 51.1487 27.5275 51.5042 26.4858 51.5056C25.7256 51.5056 24.964 51.5129 24.2038 51.5042C23.4247 51.4955 22.9851 51.0806 22.9822 50.2957C22.9721 46.573 22.9721 42.8489 22.9822 39.1262C22.9837 38.3355 23.4131 37.9336 24.2038 37.9249C25.0191 37.9162 25.833 37.9177 26.6483 37.9249C27.484 37.9322 27.88 38.3152 27.8844 39.1552C27.8945 41.0165 27.8873 42.8779 27.8873 44.7407L27.8887 44.7392Z" fill="white"/>
<path d="M4.77466 46.7083C4.77466 45.5347 4.77031 44.3595 4.77611 43.1859C4.78046 42.3459 5.16927 41.9527 5.99766 41.9454C6.8304 41.9382 7.66315 41.9367 8.49589 41.9454C9.24014 41.9542 9.67102 42.3778 9.67392 43.1293C9.68262 45.5144 9.68262 47.898 9.67392 50.283C9.67102 51.0694 9.24594 51.493 8.46978 51.5017C7.63703 51.5118 6.80429 51.5104 5.97155 51.5017C5.18958 51.493 4.78191 51.0781 4.77611 50.2845C4.76886 49.092 4.77466 47.8994 4.77466 46.7083Z" fill="white"/>
<path d="M16.7398 26.4023C18.8942 26.4023 21.0501 26.4052 23.2045 26.3994C23.6615 26.3994 24.0242 26.5213 24.1895 26.9913C24.3535 27.4614 24.0996 27.9532 23.5947 28.0852C23.3887 28.1389 23.1653 28.1403 22.9506 28.1403C18.7854 28.1432 14.6202 28.1432 10.4551 28.1418C10.3289 28.1418 10.2012 28.149 10.075 28.1374C9.52948 28.0896 9.15663 27.7196 9.16823 27.2438C9.17984 26.7578 9.54979 26.4081 10.1112 26.4067C12.3208 26.398 14.5303 26.4038 16.7398 26.4023Z" fill="white"/>
<path d="M16.7573 21.6484C18.9117 21.6484 21.0675 21.6455 23.2219 21.6499C23.8516 21.6499 24.2491 22.0024 24.2433 22.5232C24.2375 23.0412 23.8371 23.3734 23.2045 23.3864C23.1871 23.3864 23.1683 23.3864 23.1508 23.3864C18.8595 23.3864 14.5666 23.3864 10.2752 23.3864C9.59482 23.3864 9.18425 23.0644 9.1712 22.5348C9.15814 21.9835 9.57451 21.6513 10.2926 21.6513C12.447 21.6499 14.6029 21.6513 16.7573 21.6513V21.6484Z" fill="white"/>
<path d="M5.6064 26.4113C5.93137 26.4113 6.25779 26.3896 6.57986 26.4171C7.04121 26.4563 7.29945 26.7479 7.33427 27.1918C7.36909 27.6343 7.16453 27.997 6.71334 28.0754C5.98505 28.2016 5.23935 28.2117 4.51251 28.0681C4.06713 27.9796 3.86837 27.6198 3.91479 27.1715C3.96122 26.7218 4.23251 26.4519 4.68806 26.4142C4.99272 26.3881 5.30028 26.4099 5.60785 26.4099C5.60785 26.4099 5.60785 26.4113 5.60785 26.4128L5.6064 26.4113Z" fill="white"/>
<path d="M5.61086 21.6531C5.91698 21.6531 6.22599 21.6357 6.53065 21.6574C7.00506 21.6922 7.33728 22.0535 7.34454 22.5061C7.35034 22.953 7.02102 23.3505 6.55242 23.3751C5.94164 23.4071 5.32506 23.4071 4.71429 23.378C4.21232 23.3534 3.8888 22.9573 3.90911 22.4742C3.92942 22.0172 4.25584 21.6879 4.7462 21.6574C5.03346 21.64 5.32361 21.6545 5.61086 21.6545V21.6531Z" fill="white"/>
<path d="M23.9363 8.48866C23.9087 8.91083 23.7041 9.20389 23.2849 9.3127C22.8337 9.43021 22.4753 9.25467 22.2983 8.8499C21.9705 8.0955 21.1247 7.8097 20.3848 8.04182C19.9553 8.17674 19.626 8.42918 19.6188 8.91083C19.613 9.36783 19.9713 9.57384 20.3413 9.68555C20.8418 9.83643 21.3669 9.90461 21.8689 10.0482C22.7292 10.2934 23.4764 10.7141 23.8855 11.5614C24.5775 12.9962 23.8782 14.4789 22.2461 15.0244C21.9429 15.1259 21.7398 15.1985 21.7137 15.6047C21.6861 16.0428 21.322 16.2996 20.8751 16.2953C20.4283 16.2909 20.0685 16.0298 20.0482 15.5902C20.0293 15.1854 19.8277 15.1071 19.5259 14.991C18.6163 14.6399 17.9779 14.0103 17.695 13.06C17.5398 12.5392 17.7589 12.0721 18.2202 11.9168C18.67 11.766 19.0994 11.9778 19.3185 12.4594C19.7972 13.5127 21.0652 13.871 22.043 13.2283C22.5203 12.915 22.5232 12.3941 22.043 12.0184C21.6731 11.7282 21.2161 11.6731 20.7779 11.5672C20.392 11.4743 20.0018 11.3917 19.6304 11.2553C18.5641 10.865 17.9243 10.128 17.8735 8.96161C17.8285 7.92286 18.4741 6.96535 19.5332 6.51851C19.8262 6.39519 20.0351 6.3096 20.0453 5.90193C20.0569 5.46235 20.4123 5.1925 20.8592 5.1838C21.3321 5.17509 21.6861 5.44639 21.7224 5.91354C21.7514 6.27333 21.9052 6.37633 22.1997 6.49239C22.9367 6.77965 23.4691 7.30773 23.8086 8.02441C23.8782 8.17239 23.9464 8.32037 23.9319 8.49301L23.9363 8.48866Z" fill="#2140A4"/>
</g>
<defs>
<clipPath id="clip0_1031_4832">
<rect width="40.2735" height="52.1147" fill="white" transform="translate(0.751953 0.476562)"/>
</clipPath>
</defs>
</svg>
