<svg width="41" height="42" viewBox="0 0 41 42" fill="none" xmlns="http://www.w3.org/2000/svg">
<g id="financial information" clip-path="url(#clip0_1031_4887)">
<path id="Vector" d="M12.2167 12.9545C12.2188 13.2734 12.1554 13.3663 11.8175 13.3642C8.45299 13.3494 5.08847 13.3431 1.72396 13.3674C1.09245 13.3716 0.625687 13.2058 0.331055 12.6387L0.331055 5.76396C0.478899 5.67419 0.442994 5.5084 0.471507 5.38062C1.1009 2.58847 3.65438 0.608413 6.48983 0.72352C9.35695 0.840739 11.7351 2.98237 12.1449 5.80725C12.1945 6.14835 12.2082 6.48839 12.2082 6.83055C12.2093 8.87185 12.2008 10.9132 12.2167 12.9545Z" fill="#2140A4"/>
<path id="Vector_2" d="M40.7224 19.249C40.1247 16.8571 37.8014 15.2593 35.3609 15.5761C32.9975 15.8824 31.1896 17.8645 31.1083 20.2374C31.027 22.6293 32.7061 24.7678 35.0051 25.1966C37.4202 25.6485 39.7297 24.3486 40.5714 22.0802C40.6728 21.8046 40.6696 21.492 40.865 21.2512V19.6703C40.7192 19.5647 40.7573 19.3894 40.7224 19.249ZM36.8214 20.3124C36.7855 21.0337 36.8172 21.7581 36.8119 22.4815C36.8066 23.0813 36.4634 23.4604 35.9534 23.4435C35.4623 23.4277 35.1613 23.0602 35.1603 22.4667C35.1582 21.6251 35.155 20.7834 35.1613 19.9417C35.1656 19.4475 35.3958 19.1888 35.8678 19.1149C35.7591 19.0409 35.6482 18.9681 35.5394 18.8931C35.1888 18.6513 35.0674 18.2669 35.2247 17.8994C35.3715 17.5562 35.7263 17.3471 36.0759 17.3967C36.4708 17.4527 36.7771 17.7727 36.8066 18.1581C36.8362 18.5414 36.5954 18.8445 36.1677 18.9681C36.1192 18.9818 36.0759 19.0135 36.0305 19.0378C36.6905 19.2184 36.8521 19.683 36.8214 20.3124Z" fill="#2140A4"/>
<path id="Vector_3" d="M13.3359 40.2226C12.1869 40.7918 10.9313 40.9597 9.67147 41.0875C9.56586 41.098 9.42964 41.0188 9.35571 41.1646H8.8805C8.40634 41.0304 7.93113 41.0315 7.45591 41.1646H6.74309C6.30801 40.9692 5.83068 41.0199 5.37553 40.9322C4.53493 40.7685 3.70489 40.5774 2.92554 40.2099C2.18738 39.8625 1.68893 39.3683 1.82938 38.4664C1.85578 38.2996 1.8336 38.1264 1.8336 37.9785C6.03978 39.8815 10.2322 39.8878 14.431 38.0028C14.5799 39.2753 14.5345 39.6291 13.3359 40.2226Z" fill="#2140A4"/>
<path id="Vector_4" d="M7.45605 41.1637C7.93127 41.0306 8.40648 41.0296 8.88064 41.1637H7.45605Z" fill="#2140A4"/>
<path id="Vector_5" d="M35.6228 26.8071C34.0905 26.7322 32.762 26.1545 31.6331 25.1249C31.4885 24.9929 31.3459 24.9696 31.1706 24.9707C29.6531 24.9739 28.1356 24.9718 26.6191 24.9718C25.7352 24.9718 24.8503 24.977 23.9664 24.9696C23.4711 24.9665 23.1849 24.6866 23.1817 24.2273C23.1775 23.7436 23.4785 23.4648 24.0297 23.4637C25.995 23.4606 27.9613 23.4627 29.9266 23.4616C30.0491 23.4616 30.1705 23.449 30.3025 23.4416C29.2624 20.9874 29.2888 19.9355 30.4631 17.0906H27.7385C26.485 17.0906 25.2315 17.0969 23.979 17.0874C23.4045 17.0832 23.1004 16.7052 23.1986 16.1592C23.2704 15.7642 23.5471 15.5646 24.0434 15.5636C26.5103 15.5625 28.9772 15.5604 31.4441 15.5668C31.6796 15.5668 31.8623 15.5118 32.0524 15.364C33.0884 14.5582 34.2658 14.1031 35.5837 14.0535C35.8847 14.0418 35.9745 13.9648 35.9724 13.6522C35.9576 11.3479 35.9629 9.04365 35.966 6.73939C35.966 6.30325 35.9396 5.86922 35.8456 5.44469C35.2321 2.64304 32.8423 0.724235 29.9625 0.722123C26.0436 0.718955 22.1257 0.722123 18.2078 0.722123C16.0303 0.722123 13.8538 0.722123 11.6763 0.721067C11.5168 0.721067 11.3457 0.705226 11.2655 0.882639C11.1926 1.04527 11.3045 1.15298 11.4112 1.25647C13.0597 2.85108 13.764 4.81002 13.7545 7.08154C13.7345 11.7429 13.7482 16.4052 13.7493 21.0666C13.7493 21.2313 13.7102 21.4024 13.8686 21.5407C14.5466 22.1321 14.7694 22.8903 14.7271 23.7721C14.6891 24.5599 14.7293 25.3519 14.7134 26.1418C14.7071 26.4808 14.9679 26.4396 15.1443 26.4608C15.3682 26.4872 15.2678 26.276 15.2699 26.1746C15.2816 25.5293 15.2625 24.8831 15.2837 24.2389C15.3111 23.3655 15.9648 22.6443 16.8392 22.5841C17.9174 22.5091 19.002 22.507 20.0812 22.5851C20.9514 22.6474 21.6125 23.3772 21.6294 24.2473C21.6484 25.2337 21.6463 26.2221 21.6304 27.2095C21.6188 27.9973 21.0908 28.632 20.3304 28.8527C20.0168 28.9424 19.7021 28.9044 19.3874 28.9171C19.191 28.9245 18.9428 28.8611 18.8119 28.9562C18.6799 29.0523 18.8594 29.2846 18.8583 29.4652C18.8552 29.7788 18.7591 30.1938 18.9185 30.3797C19.1076 30.5972 19.5363 30.4357 19.8605 30.4515C20.9134 30.5022 21.6262 31.2245 21.6357 32.2795C21.6441 33.1877 21.6452 34.0969 21.6346 35.0051C21.6241 35.965 20.9778 36.7645 20.0263 36.774C18.6894 36.7866 17.3281 37.0242 16.0398 36.5617C15.8655 37.7233 16.2837 38.9452 15.685 40.1078C15.7578 40.1121 15.8053 40.1174 15.8529 40.1174C22.3042 40.1174 28.7555 40.1195 35.2067 40.1152C35.7506 40.1152 35.9639 39.8871 35.9639 39.3359C35.966 35.2797 35.9618 31.2235 35.9713 27.1683C35.9724 26.8927 35.8879 26.8198 35.6228 26.8071ZM24.035 7.67714C25.1037 7.66975 26.1713 7.67503 27.2401 7.67503L28.8621 7.67503C30.4588 7.67503 32.0545 7.67081 33.6502 7.67714C34.307 7.68031 34.6629 8.14285 34.4644 8.70572C34.3683 8.97923 34.1835 9.14291 33.892 9.17776C33.8001 9.18938 33.7082 9.19677 33.6164 9.19677C30.4377 9.19677 27.258 9.19888 24.0794 9.19571C23.5144 9.19571 23.2472 8.99507 23.1912 8.55998C23.1215 8.02458 23.4405 7.68137 24.035 7.67714ZM23.9473 10.7407C24.1659 10.7365 24.3835 10.7354 24.6021 10.7354C24.9368 10.7354 25.2716 10.7386 25.6064 10.7386C25.7753 10.7386 25.9443 10.7375 26.1133 10.7365C26.4839 10.7365 26.8557 10.7344 27.2263 10.7386C27.7533 10.7449 28.0469 11.0163 28.0511 11.4831C28.0553 11.952 27.7586 12.2424 27.2443 12.2455C26.1513 12.2508 25.0583 12.2508 23.9653 12.2445C23.4732 12.2413 23.1849 11.9583 23.1807 11.501C23.1764 11.0427 23.4616 10.7491 23.9473 10.7407ZM23.9473 18.624C24.5134 18.6102 25.0805 18.6208 25.6465 18.6208C26.1872 18.6197 26.7268 18.6092 27.2665 18.6218C27.7733 18.6345 28.0479 18.907 28.0511 19.3642C28.0553 19.8342 27.7617 20.1288 27.2453 20.133C26.1523 20.1425 25.0583 20.1436 23.9653 20.133C23.4742 20.1277 23.1849 19.8342 23.1807 19.3822C23.1764 18.9218 23.4521 18.6356 23.9473 18.624ZM24.0244 26.4893C25.0784 26.4798 26.1312 26.4798 27.1851 26.4893C27.7628 26.4935 28.0606 26.7786 28.0521 27.2813C28.0437 27.7607 27.7427 28.029 27.1883 28.0374C26.6613 28.0448 26.1344 28.0385 25.6074 28.0385C25.0805 28.0385 24.5546 28.0448 24.0276 28.0374C23.4837 28.029 23.1817 27.746 23.1807 27.2644C23.1796 26.7818 23.4753 26.4946 24.0244 26.4893ZM15.2847 8.48289C15.3048 7.57048 16.0345 6.82809 16.9469 6.80275C17.948 6.77424 18.9502 6.77635 19.9513 6.80275C20.8806 6.82598 21.6061 7.57999 21.6325 8.50929C21.642 8.85356 21.6389 9.19888 21.6368 9.54315C21.6357 9.68571 21.6346 9.82722 21.6346 9.96979C21.6346 10.1123 21.6357 10.2644 21.6368 10.4112C21.6399 10.7375 21.642 11.0638 21.6336 11.3901C21.6114 12.3543 20.9018 13.0999 19.945 13.1231C18.9439 13.1474 17.9417 13.1484 16.9416 13.122C16.0229 13.0977 15.3037 12.3638 15.2837 11.4429C15.2625 10.4566 15.2625 9.47028 15.2847 8.48395V8.48289ZM21.6315 19.3178C21.6146 20.2714 20.8711 21.0095 19.9165 21.0254C18.9418 21.0412 17.966 21.0412 16.9913 21.0254C16.0366 21.0095 15.3006 20.2735 15.2826 19.3135C15.2636 18.3409 15.2625 17.3673 15.2826 16.3947C15.3016 15.4347 16.0345 14.7156 16.9966 14.6871C17.3345 14.6765 17.6735 14.6797 18.0125 14.6818C18.1614 14.6829 18.3103 14.6839 18.4592 14.6839C18.5912 14.6839 18.7232 14.6839 18.8552 14.6818C19.21 14.6797 19.5659 14.6765 19.9207 14.6871C20.8806 14.7166 21.6146 15.4453 21.6315 16.4C21.6484 17.3726 21.6484 18.3462 21.6315 19.3188V19.3178ZM27.2168 35.9133C26.6761 35.927 26.1354 35.9165 25.5958 35.9165C25.0562 35.9165 24.5408 35.927 24.0139 35.9144C23.4605 35.8996 23.1691 35.6144 23.1796 35.1318C23.1902 34.6672 23.4859 34.3937 24.016 34.3894C25.0836 34.382 26.1513 34.381 27.2189 34.3905C27.7522 34.3947 28.0437 34.6682 28.0521 35.1339C28.0616 35.6208 27.7776 35.8985 27.2168 35.9133ZM33.8941 32.8487C33.817 32.8624 33.7368 32.8614 33.6576 32.8614C30.4525 32.8624 27.2474 32.8635 24.0424 32.8603C23.5028 32.8603 23.205 32.6047 23.1828 32.1443C23.1595 31.6512 23.451 31.3534 23.9938 31.3491C25.2336 31.3417 26.4734 31.347 27.7132 31.347H28.8611C30.4567 31.347 32.0524 31.3449 33.6491 31.347C34.1486 31.3491 34.383 31.5118 34.4876 31.9014C34.6059 32.3439 34.3429 32.7663 33.8941 32.8476V32.8487Z" fill="#2140A4"/>
<path id="Vector_6" d="M12.5216 24.1578C11.7971 24.6404 10.9713 24.8632 10.1318 25.0375C9.05672 25.2603 7.96795 25.3384 6.78519 25.3553C5.23388 25.3141 3.61182 25.1853 2.06368 24.5855C1.71836 24.4514 1.38888 24.2898 1.09424 24.0649C0.378255 23.521 0.370862 22.9001 1.08052 22.352C1.72047 21.8599 2.47553 21.617 3.24749 21.4501C5.83793 20.8904 8.42416 20.901 10.9945 21.5779C11.5416 21.7226 12.0696 21.9306 12.5395 22.2569C13.4128 22.861 13.4097 23.5664 12.5216 24.1578Z" fill="#2140A4"/>
<path id="Vector_7" d="M16.6792 30.5324C15.8523 31.0858 14.905 31.3255 13.9409 31.4818C11.4772 31.881 9.02928 31.8493 6.62258 31.1206C5.96996 30.9221 5.33951 30.656 4.83789 30.0382C7.20868 30.2895 9.46753 30.1596 11.6609 29.3898C12.5881 29.0656 13.454 28.6284 14.1278 27.886C14.2218 27.7825 14.3126 27.7699 14.4414 27.7984C15.2303 27.9694 16.0033 28.1849 16.6813 28.6379C17.5715 29.2335 17.5705 29.9358 16.6792 30.5324Z" fill="#2140A4"/>
<path id="Vector_8" d="M12.2324 27.6274C11.301 28.1238 10.284 28.3487 9.24913 28.4775C6.99133 28.7584 4.75043 28.713 2.55072 28.052C2.07023 27.9073 1.61191 27.713 1.19478 27.43C0.761805 27.1364 0.492517 26.7689 0.554823 26.2113C0.581224 25.9642 0.559047 25.7118 0.559047 25.4668C4.78 27.3581 8.95449 27.3529 13.1438 25.4869C13.4289 26.4721 13.1702 27.129 12.2324 27.6274Z" fill="#2140A4"/>
<path id="Vector_9" d="M16.6987 33.8159C15.95 34.3144 15.1041 34.5594 14.2339 34.7188C11.7111 35.1814 9.20196 35.156 6.72134 34.4432C6.17643 34.2859 5.65581 34.062 5.20382 33.7093C4.76663 33.3692 4.4984 32.385 4.7001 31.9077C4.76452 31.7556 4.84583 31.8517 4.91553 31.8908C5.9082 32.461 6.9864 32.7969 8.10685 32.9848C10.937 33.46 13.7228 33.3555 16.4146 32.2498C16.7146 32.1263 16.9997 31.9679 17.3471 31.7979C17.3471 32.1041 17.3292 32.3544 17.3513 32.6015C17.402 33.1559 17.1338 33.5276 16.6987 33.8159Z" fill="#2140A4"/>
<path id="Vector_10" d="M14.2154 36.3019C13.9968 36.5797 13.7096 36.7528 13.4065 36.9017C12.4255 37.3844 11.3705 37.6008 10.2965 37.7233C8.13165 37.9715 5.9858 37.8986 3.87902 37.2872C3.33516 37.1288 2.81137 36.9123 2.35516 36.567C1.65818 36.0379 1.65818 35.4244 2.352 34.8847C2.48611 34.7812 2.63079 34.6841 2.78286 34.6102C3.04158 34.4834 3.30137 34.3324 3.57699 34.2743C3.90964 34.2046 4.01947 34.5711 4.23384 34.7316C5.36802 35.5817 6.67222 36.0052 8.03872 36.2618C9.99977 36.6303 11.9661 36.6303 13.9314 36.2797C14.0137 36.265 14.1035 36.2206 14.2154 36.3019Z" fill="#2140A4"/>
<path id="Vector_11" d="M20.1123 27.0512C20.1123 27.2951 19.9961 27.4092 19.748 27.4071C18.9845 27.4029 18.221 27.4166 17.4574 27.4018C17.0371 27.3944 16.7921 27.1114 16.7921 26.6869C16.7921 25.9772 16.809 25.2676 16.7858 24.559C16.7742 24.1883 16.9168 24.069 17.2716 24.089C17.6644 24.1112 18.0604 24.0943 18.4554 24.0943C18.8768 24.0943 19.2981 24.1028 19.7184 24.0912C19.9803 24.0838 20.1144 24.1767 20.1134 24.4502C20.1102 25.3172 20.1113 26.1842 20.1134 27.0512H20.1123Z" fill="#2140A4"/>
<path id="Vector_12" d="M20.1142 34.8799C20.1152 35.1017 20.0667 35.2812 19.8005 35.2833C18.8997 35.2865 17.9989 35.2843 17.0137 35.2843C17.3558 35.0362 17.6325 34.8503 17.8944 34.6444C18.6336 34.0625 18.9642 33.3011 18.8564 32.3623C18.8227 32.0645 18.9092 31.9589 19.2324 31.9695C20.1818 32.0001 20.1142 31.8565 20.1131 32.8713C20.1131 33.5408 20.111 34.2104 20.1142 34.8799Z" fill="#2140A4"/>
<path id="Vector_13" d="M36.0309 19.0381C36.6909 19.2187 36.8535 19.6833 36.8219 20.3127C36.786 21.034 36.8176 21.7584 36.8124 22.4818C36.8081 23.0816 36.4649 23.4607 35.9538 23.4438C35.4627 23.428 35.1618 23.0595 35.1607 22.466C35.1586 21.6243 35.1554 20.7826 35.1628 19.942C35.1671 19.4468 35.3962 19.1891 35.8693 19.1152C35.9232 19.0898 35.977 19.0634 36.0309 19.0381Z" fill="white"/>
<path id="Vector_14" d="M36.0292 19.037C35.9753 19.0623 35.9215 19.0887 35.8676 19.1141C35.7578 19.0401 35.6479 18.9673 35.5392 18.8923C35.1886 18.6505 35.0661 18.2661 35.2245 17.8986C35.3713 17.5564 35.7261 17.3463 36.0756 17.3959C36.4706 17.4519 36.7768 17.7708 36.8064 18.1573C36.836 18.5406 36.5952 18.8427 36.1675 18.9673C36.1189 18.981 36.0756 19.0127 36.0302 19.037H36.0292Z" fill="white"/>
<path id="Vector_15" d="M21.6321 16.398C21.6152 15.4434 20.8812 14.7147 19.9213 14.6852C19.5665 14.6746 19.2106 14.6778 18.8558 14.6799C18.7238 14.682 18.5918 14.683 18.4598 14.683C18.3109 14.683 18.162 14.6809 18.0131 14.6799C17.6741 14.6778 17.3351 14.6746 16.9971 14.6852C16.0351 14.7137 15.3022 15.4328 15.2832 16.3928C15.2631 17.3654 15.2642 18.339 15.2832 19.3116C15.3012 20.2716 16.0372 21.0076 16.9919 21.0235C17.9666 21.0404 18.9424 21.0404 19.9171 21.0235C20.8717 21.0076 21.6152 20.2695 21.6321 19.3159C21.649 18.3433 21.649 17.3696 21.6321 16.397V16.398ZM20.1135 19.1384C20.1146 19.4088 19.9857 19.5133 19.7238 19.5091C19.3035 19.5017 18.8822 19.507 18.4608 19.507C18.0395 19.507 17.6192 19.5017 17.1978 19.5091C16.9232 19.5133 16.7859 19.4141 16.7891 19.1184C16.7997 18.2778 16.7986 17.4372 16.7891 16.5966C16.7859 16.3167 16.8842 16.1858 17.1777 16.1889C18.0331 16.1974 18.8885 16.1963 19.7439 16.1889C20.0237 16.1858 20.1146 16.3241 20.1135 16.5776C20.1103 17.4308 20.1093 18.2841 20.1135 19.1384Z" fill="white"/>
<path id="Vector_16" d="M21.6373 10.4105C21.6373 10.2626 21.6363 10.1159 21.6363 9.96907C21.6363 9.82228 21.6363 9.685 21.6373 9.54244C21.6395 9.19817 21.6426 8.85285 21.6331 8.50858C21.6067 7.57927 20.8812 6.82527 19.9519 6.80204C18.9508 6.77669 17.9486 6.77458 16.9475 6.80204C16.0351 6.82738 15.3054 7.56977 15.2853 8.48218C15.2631 9.46851 15.2631 10.4548 15.2843 11.4412C15.3043 12.362 16.0235 13.096 16.9422 13.1203C17.9423 13.1467 18.9445 13.1456 19.9456 13.1213C20.9024 13.0981 21.612 12.3525 21.6342 11.3884C21.6426 11.0621 21.6405 10.7358 21.6373 10.4094V10.4105ZM20.1124 11.2722C20.1124 11.5172 19.9952 11.627 19.7439 11.6207C19.3088 11.6112 18.8737 11.6186 18.4386 11.6186C18.0035 11.6186 17.5938 11.6123 17.1714 11.6207C16.9053 11.627 16.7881 11.5183 16.7902 11.2469C16.7976 10.3915 16.7965 9.53504 16.7902 8.6786C16.7881 8.40403 16.9201 8.3016 17.1777 8.30265C18.0352 8.30477 18.8927 8.30477 19.7502 8.30265C19.9973 8.3016 20.1124 8.41988 20.1124 8.66382C20.1114 9.53399 20.1124 10.4031 20.1124 11.2722Z" fill="white"/>
<path id="Vector_17" d="M28.862 7.67468C30.4576 7.67468 32.0544 7.67045 33.65 7.67679C34.3058 7.67996 34.6617 8.14144 34.4642 8.70431C34.3681 8.97782 34.1833 9.14256 33.8919 9.17741C33.8 9.18797 33.7081 9.19536 33.6162 9.19536C30.4376 9.19536 27.2589 9.19747 24.0792 9.19536C23.5142 9.19536 23.2471 8.99472 23.1911 8.55963C23.1214 8.02422 23.4403 7.68101 24.0349 7.67679C25.1036 7.6694 26.1712 7.67468 27.2399 7.67468C27.7806 7.67468 28.3213 7.67468 28.862 7.67468Z" fill="white"/>
<path id="Vector_18" d="M28.8621 31.3454C30.4578 31.3454 32.0545 31.3433 33.6502 31.3464C34.1497 31.3475 34.3841 31.5112 34.4886 31.9009C34.608 32.3433 34.345 32.7657 33.8952 32.8471C33.8181 32.8608 33.7378 32.8597 33.6586 32.8597C30.4535 32.8597 27.2485 32.8618 24.0434 32.8597C23.5038 32.8597 23.2071 32.6031 23.1849 32.1427C23.1617 31.6506 23.4521 31.3517 23.9949 31.3485C25.2346 31.3401 26.4744 31.3454 27.7142 31.3454C28.0965 31.3454 28.4788 31.3454 28.8621 31.3454Z" fill="white"/>
<path id="Vector_19" d="M25.6074 28.0379C25.0805 28.0379 24.5535 28.0442 24.0276 28.0357C23.4837 28.0273 23.1817 27.7453 23.1807 27.2627C23.1796 26.7801 23.4764 26.4929 24.0255 26.4876C25.0784 26.4781 26.1323 26.4781 27.1851 26.4876C27.7628 26.4929 28.0616 26.778 28.0521 27.2796C28.0437 27.7591 27.7427 28.0283 27.1883 28.0357C26.6613 28.0431 26.1354 28.0368 25.6085 28.0379H25.6074Z" fill="white"/>
<path id="Vector_20" d="M25.5962 35.9158C25.0692 35.9158 24.5412 35.9263 24.0142 35.9126C23.4609 35.8989 23.1694 35.6127 23.18 35.1301C23.1905 34.6665 23.4852 34.3919 24.0153 34.3888C25.0829 34.3814 26.1506 34.3803 27.2182 34.3888C27.7526 34.393 28.043 34.6665 28.0525 35.1322C28.062 35.6201 27.7769 35.8978 27.2161 35.9116C26.6765 35.9253 26.1358 35.9147 25.5951 35.9147L25.5962 35.9158Z" fill="white"/>
<path id="Vector_21" d="M25.6466 18.6191C26.1863 18.6191 26.7269 18.6086 27.2666 18.6223C27.7724 18.635 28.048 18.9064 28.0512 19.3647C28.0544 19.8335 27.7619 20.1292 27.2444 20.1335C26.1514 20.143 25.0574 20.143 23.9644 20.1335C23.4733 20.1292 23.184 19.8346 23.1797 19.3826C23.1755 18.9232 23.4511 18.6371 23.9464 18.6244C24.5124 18.6107 25.0795 18.6212 25.6456 18.6212L25.6466 18.6191Z" fill="white"/>
<path id="Vector_22" d="M25.6064 10.7376C26.146 10.7376 26.6867 10.7324 27.2264 10.7376C27.7523 10.744 28.0469 11.0154 28.0511 11.4821C28.0554 11.951 27.7575 12.2414 27.2443 12.2435C26.1513 12.2488 25.0583 12.2499 23.9653 12.2435C23.4732 12.2404 23.1849 11.9574 23.1807 11.5001C23.1765 11.0418 23.4616 10.7482 23.9474 10.7397C24.5007 10.7292 25.0541 10.7376 25.6064 10.7366V10.7376Z" fill="white"/>
<path id="Vector_23" d="M18.4608 19.5076C18.0395 19.5076 17.6181 19.5023 17.1978 19.5097C16.9243 19.5139 16.786 19.4157 16.7891 19.1189C16.7997 18.2783 16.7986 17.4377 16.7891 16.5971C16.786 16.3183 16.8842 16.1863 17.1778 16.1895C18.0331 16.198 18.8885 16.198 19.7439 16.1895C20.0238 16.1874 20.1146 16.3247 20.1135 16.5781C20.1104 17.4314 20.1093 18.2857 20.1135 19.139C20.1146 19.4093 19.9857 19.5139 19.7238 19.5097C19.3025 19.5023 18.8822 19.5076 18.4608 19.5076Z" fill="#2140A4"/>
<path id="Vector_24" d="M18.4385 11.6177C18.016 11.6177 17.5936 11.6114 17.1723 11.6198C16.9062 11.6251 16.7889 11.5174 16.791 11.246C16.7984 10.3895 16.7974 9.53415 16.791 8.67771C16.7889 8.40315 16.9209 8.30071 17.1786 8.30177C18.0361 8.30388 18.8936 8.30388 19.7511 8.30177C19.9993 8.30177 20.1133 8.41899 20.1133 8.66293C20.1123 9.53204 20.1133 10.4012 20.1133 11.2703C20.1133 11.5153 19.9972 11.6251 19.7458 11.6198C19.3107 11.6103 18.8746 11.6177 18.4395 11.6177H18.4385Z" fill="#2140A4"/>
</g>
<defs>
<clipPath id="clip0_1031_4887">
<rect width="40.5336" height="40.446" fill="white" transform="translate(0.331055 0.71875)"/>
</clipPath>
</defs>
</svg>
