<svg width="126" height="98" viewBox="0 0 126 98" fill="none" xmlns="http://www.w3.org/2000/svg">
<g clip-path="url(#clip0_598_336)">
<path d="M106.049 39.9667C106.027 56.0406 106.035 72.117 106.03 88.191C106.03 91.1675 104.445 93.1868 101.641 93.8583C100.957 94.0219 100.263 93.9974 99.5682 93.9974C87.3838 93.9999 75.1995 93.9999 63.0151 93.9999C50.8307 93.9999 38.3813 94.0023 26.0617 93.995C23.1249 93.995 20.9303 92.5055 20.2041 90.0785C20.0345 89.5144 20.0159 88.9357 20.0159 88.357C20.0133 72.1927 20.0159 56.026 20 39.8617C20 39.1267 20.2571 38.6091 20.8561 38.1232C24.9034 34.8439 28.919 31.5305 32.9636 28.2488C33.4195 27.8776 33.6395 27.5187 33.6316 26.9351C33.5944 24.0148 33.6077 21.092 33.6157 18.1693C33.6263 14.8436 36.0356 12.6217 39.6535 12.6094C43.4278 12.5972 47.2022 12.585 50.9765 12.6241C51.769 12.6314 52.3388 12.4117 52.914 11.9331C55.8879 9.46449 58.8882 7.02519 61.8833 4.57857C62.8295 3.80698 63.2112 3.8021 64.176 4.58834C67.2241 7.06914 70.2748 9.54751 73.2964 12.0552C73.8053 12.4752 74.3115 12.6241 74.9821 12.6192C78.7564 12.5924 82.5308 12.5997 86.3051 12.6094C90.0476 12.6168 92.4224 14.8168 92.4304 18.2718C92.4357 21.1653 92.4463 24.0563 92.4198 26.9498C92.4145 27.4796 92.5735 27.8337 93.0188 28.1926C97.0688 31.4719 101.082 34.7877 105.129 38.0694C105.778 38.5944 106.051 39.1633 106.049 39.9667Z" fill="#FEFEFE"/>
<path d="M106.049 39.9667C106.027 56.0406 106.035 72.117 106.03 88.191C106.03 91.1675 104.445 93.1868 101.641 93.8583C100.957 94.0219 100.263 93.9974 99.5682 93.9974C87.3838 93.9999 75.1995 93.9999 63.0151 93.9999C50.8307 93.9999 38.3813 94.0023 26.0617 93.995C23.1249 93.995 20.9303 92.5055 20.2041 90.0785C20.0345 89.5144 20.0159 88.9357 20.0159 88.357C20.0133 72.1927 20.0159 56.026 20 39.8617C20 39.1267 20.2571 38.6091 20.8561 38.1232C24.9034 34.8439 28.919 31.5305 32.9636 28.2488C33.4195 27.8776 33.6395 27.5187 33.6316 26.9351C33.5944 24.0148 33.6077 21.092 33.6157 18.1693C33.6263 14.8436 36.0356 12.6217 39.6535 12.6094C43.4278 12.5972 47.2022 12.585 50.9765 12.6241C51.769 12.6314 52.3388 12.4117 52.914 11.9331C55.8879 9.46449 58.8882 7.02519 61.8833 4.57857C62.8295 3.80698 63.2112 3.8021 64.176 4.58834C67.2241 7.06914 70.2748 9.54751 73.2964 12.0552C73.8053 12.4752 74.3115 12.6241 74.9821 12.6192C78.7564 12.5924 82.5308 12.5997 86.3051 12.6094C90.0476 12.6168 92.4224 14.8168 92.4304 18.2718C92.4357 21.1653 92.4463 24.0563 92.4198 26.9498C92.4145 27.4796 92.5735 27.8337 93.0188 28.1926C97.0688 31.4719 101.082 34.7877 105.129 38.0694C105.778 38.5944 106.051 39.1633 106.049 39.9667Z" fill="#404040"/>
<path d="M63.0019 14.6948C70.6513 14.6948 78.3006 14.6948 85.95 14.6948C88.8125 14.6948 90.0927 15.8595 90.0954 18.4624C90.0954 28.6933 90.0901 38.9242 90.1113 49.1526C90.1113 49.7533 89.9178 50.1562 89.4274 50.5566C80.8822 57.5253 72.3476 64.5038 63.8342 71.5019C63.2351 71.9951 62.9091 72.0708 62.2491 71.5238C53.6907 64.477 45.0977 57.4667 36.5074 50.4565C36.1019 50.1269 35.9429 49.7802 35.9429 49.282C35.9588 38.8998 35.9508 28.5175 35.9588 18.1352C35.9588 15.967 37.3609 14.7022 39.757 14.6997C47.507 14.6899 55.2545 14.6973 63.0045 14.6948H63.0019Z" fill="#FEFEFC"/>
<path d="M63.0178 91.9269C50.8652 91.9269 38.71 91.9269 26.5574 91.9269C25.8709 91.9269 24.8902 92.0905 24.6411 91.5729C24.4184 91.1065 25.3408 90.6694 25.7887 90.2568C34.2783 82.431 42.7891 74.6248 51.2681 66.7917C51.9174 66.191 52.2806 66.1226 53.0015 66.7355C55.9939 69.2676 59.0632 71.7264 62.0954 74.2194C62.7686 74.7713 63.365 74.7054 64.0143 74.1706C66.9723 71.7362 69.9462 69.3189 72.9094 66.8918C73.9405 66.047 73.9352 66.0421 74.9132 66.9406C83.5777 74.9056 92.2422 82.8705 100.899 90.8452C101.135 91.0626 101.636 91.2359 101.455 91.6046C101.31 91.9025 100.814 91.8561 100.469 91.905C100.08 91.9611 99.6769 91.9294 99.2793 91.9294C87.193 91.9294 75.1041 91.9294 63.0178 91.9294V91.9269Z" fill="#8BA1E7"/>
<path d="M22.298 41.6809C24.2117 43.2339 25.9663 44.6476 27.713 46.0736C34.1882 51.3624 40.6581 56.6561 47.128 61.9473C48.0663 62.714 48.986 63.5027 49.9296 64.2645C50.2476 64.5209 50.3033 64.7309 49.9455 64.9824C49.8156 65.0752 49.7096 65.1948 49.5929 65.3023C40.8887 73.3063 32.1844 81.3127 23.4695 89.3094C23.2337 89.5268 23.0375 89.9907 22.6452 89.8271C22.3404 89.7001 22.3404 89.2557 22.306 88.9261C22.2848 88.7136 22.2954 88.5012 22.2954 88.2863C22.2954 73.0108 22.2954 57.7353 22.2954 42.4598C22.2954 42.2767 22.2954 42.096 22.2954 41.6785L22.298 41.6809Z" fill="white"/>
<path d="M103.748 41.8518C103.748 44.4474 103.748 46.9721 103.748 49.4993C103.748 62.3502 103.748 75.1986 103.743 88.0495C103.743 88.6721 103.973 89.5438 103.34 89.7978C102.876 89.9833 102.415 89.158 101.983 88.7625C93.496 80.9758 85.0329 73.1671 76.5221 65.4048C75.7588 64.7089 75.894 64.4086 76.599 63.8372C82.2366 59.2785 87.8478 54.6905 93.4615 50.1073C96.6262 47.5215 99.7803 44.926 102.945 42.3377C103.157 42.1643 103.311 41.9031 103.745 41.8494L103.748 41.8518Z" fill="white"/>
<path d="M92.4675 47.8903V30.5881C93.7185 31.6063 94.8715 32.5415 96.0192 33.4816C98.1926 35.2616 100.355 37.0514 102.542 38.8192C103.006 39.1928 103.014 39.4394 102.542 39.8228C99.2952 42.4599 96.0669 45.1189 92.828 47.7658C92.7643 47.817 92.6583 47.8268 92.4648 47.8927L92.4675 47.8903Z" fill="white"/>
<path d="M33.56 30.5881V47.883C32.6588 47.4801 32.1181 46.811 31.4608 46.2836C28.7997 44.1447 26.1651 41.9764 23.5252 39.8155C23.2283 39.5737 22.8599 39.3564 23.3529 38.9535C26.727 36.1968 30.0905 33.4328 33.56 30.5857V30.5881Z" fill="white"/>
<path d="M70.3145 12.5844H55.8003C56.1979 11.8715 56.9347 11.5102 57.5205 11.0195C59.1055 9.69134 60.709 8.38031 62.294 7.05462C62.7234 6.69574 63.0945 6.49554 63.6352 6.9472C65.7317 8.70501 67.8548 10.4335 69.9646 12.1767C70.0759 12.2695 70.1528 12.3964 70.3118 12.5844H70.3145Z" fill="white"/>
<path d="M54.0987 26.3101C54.0987 27.5579 54.1066 28.8031 54.0987 30.0509C54.0907 31.074 53.717 31.4402 52.6329 31.4451C49.8552 31.4573 47.0775 31.4573 44.2997 31.4451C43.2634 31.4402 42.842 31.0715 42.834 30.1217C42.8155 27.5383 42.8128 24.9525 42.834 22.3667C42.842 21.4267 43.2687 21.0677 44.3183 21.0653C47.096 21.0555 49.8738 21.0531 52.6515 21.0653C53.6958 21.0702 54.0854 21.4364 54.096 22.3863C54.1093 23.6926 54.0987 25.0014 54.0987 26.3077V26.3101Z" fill="#404040"/>
<path d="M54.0988 42.9798C54.0988 44.2886 54.0935 45.5998 54.0988 46.9086C54.1015 47.7363 53.6668 48.1417 52.763 48.1417C49.9137 48.1392 47.0671 48.149 44.2178 48.1368C43.2185 48.1319 42.8368 47.7925 42.8289 46.8573C42.8077 44.2691 42.8077 41.6808 42.8289 39.0926C42.8368 38.1647 43.2212 37.8205 44.2257 37.8156C47.075 37.8009 49.9216 37.8107 52.7709 37.8107C53.6721 37.8107 54.1015 38.2258 54.0962 39.0535C54.0882 40.3623 54.0962 41.6711 54.0962 42.9823L54.0988 42.9798Z" fill="#404040"/>
<path d="M70.9454 28.3588C74.5872 28.3588 78.229 28.3612 81.8708 28.3588C82.6606 28.3588 83.1669 28.6884 83.1801 29.4232C83.1907 30.1239 82.6712 30.4364 81.9582 30.4901C81.6958 30.5097 81.4281 30.4974 81.1631 30.4974C78.1839 30.4974 75.2047 30.4974 72.2256 30.4974C68.385 30.4974 64.5444 30.4974 60.7038 30.4974C60.4388 30.4974 60.1711 30.5121 59.9113 30.4852C59.193 30.4096 58.7027 30.0531 58.7477 29.3646C58.7901 28.6908 59.2752 28.3563 60.0226 28.3588C62.2067 28.3637 64.3933 28.3588 66.5773 28.3588C68.0351 28.3588 69.4902 28.3588 70.948 28.3588H70.9454Z" fill="#404040"/>
<path d="M70.903 24.1562C67.293 24.1562 63.6856 24.1562 60.0756 24.1562C59.2937 24.1562 58.7557 23.8291 58.7424 23.1015C58.7292 22.3716 59.2699 22.0322 60.0438 22.0127C60.3089 22.0053 60.5739 22.0102 60.839 22.0102C65.7398 22.0102 70.6405 22.0102 75.5387 22.0102C77.5584 22.0102 79.5781 22.0053 81.5977 22.0102C82.65 22.0127 83.257 22.4204 83.1854 23.1137C83.0979 23.9658 82.4592 24.1611 81.6296 24.1587C78.054 24.144 74.4785 24.1538 70.903 24.1513V24.1562Z" fill="#404040"/>
<path d="M70.8685 47.1965C67.2611 47.1965 63.6511 47.1965 60.0438 47.1965C59.2539 47.1965 58.7424 46.8523 58.7397 46.1247C58.7397 45.4363 59.2566 45.114 59.9802 45.0749C60.2452 45.0603 60.5103 45.0652 60.7753 45.0652C63.9188 45.0652 67.065 45.0652 70.2085 45.0652C73.8503 45.0652 77.4921 45.0652 81.1312 45.0652C81.3963 45.0652 81.6613 45.0578 81.9264 45.0749C82.6897 45.1213 83.2172 45.4485 83.1721 46.2029C83.1297 46.8962 82.6288 47.2014 81.8919 47.1989C81.3618 47.1989 80.8317 47.1989 80.3043 47.1989C77.1608 47.1989 74.0146 47.1989 70.8711 47.1989L70.8685 47.1965Z" fill="#404040"/>
<path d="M70.9719 40.8626C67.4971 40.8626 64.0222 40.8626 60.5474 40.8626C60.2188 40.8626 59.8795 40.8675 59.5614 40.8016C58.9995 40.6868 58.7318 40.2913 58.7371 39.7981C58.7424 39.3001 59.0446 38.9339 59.588 38.802C59.8079 38.7483 60.0491 38.7679 60.2797 38.7679C67.3963 38.7679 74.5103 38.7679 81.6269 38.7679C81.6932 38.7679 81.7594 38.7703 81.8257 38.7679C82.6103 38.7312 83.1563 39.0389 83.1748 39.781C83.196 40.5867 82.6076 40.8699 81.7965 40.8675C79.7106 40.8626 77.6273 40.8675 75.5414 40.8675C74.02 40.8675 72.4959 40.8675 70.9745 40.8675L70.9719 40.8626Z" fill="#404040"/>
<path d="M48.477 23.2311C49.3702 23.2311 50.2634 23.2482 51.1566 23.2238C51.6602 23.2116 51.867 23.3727 51.8617 23.8537C51.8405 25.465 51.8458 27.0788 51.8617 28.6901C51.8643 29.1027 51.7238 29.3004 51.2388 29.2956C49.4205 29.2809 47.5996 29.2809 45.7787 29.2956C45.3149 29.3004 45.132 29.1515 45.1373 28.7145C45.1559 27.0714 45.1559 25.4308 45.1373 23.7877C45.132 23.3336 45.3547 23.2165 45.7999 23.2262C46.6932 23.2433 47.5864 23.2311 48.4796 23.2311H48.477Z" fill="#8BA1E7"/>
<path d="M48.4797 46.0654C47.6528 46.0654 46.8258 46.0386 46.0015 46.0752C45.3919 46.1021 45.1083 45.9702 45.1268 45.333C45.1719 43.7534 45.1666 42.1738 45.1268 40.5942C45.1136 40.0108 45.3574 39.8765 45.9379 39.8862C47.6236 39.9131 49.3093 39.9155 50.9951 39.8862C51.6418 39.874 51.875 40.084 51.8644 40.6748C51.8353 42.2227 51.8406 43.773 51.8644 45.3233C51.8724 45.8628 51.6736 46.0996 51.0613 46.0752C50.2026 46.0435 49.3438 46.0679 48.485 46.0679L48.4797 46.0654Z" fill="#8BA1E7"/>
</g>
<defs>
<clipPath id="clip0_598_336">
<rect width="86.0487" height="90" fill="white" transform="translate(20 4)"/>
</clipPath>
</defs>
</svg>
