<svg width="36" height="35" viewBox="0 0 36 35" fill="none" xmlns="http://www.w3.org/2000/svg">
<g id="Functional information" clip-path="url(#clip0_1031_5102)">
<path id="Vector" d="M31.8297 18.0935C31.8297 18.4753 31.4153 18.7677 31.0529 18.6155C29.6741 18.0368 28.2474 17.7614 26.7508 17.8966C26.4952 17.9195 26.6061 17.7545 26.624 17.659C26.7588 16.951 26.8467 16.2401 26.8487 15.5183C26.8597 10.2325 23.0548 5.76508 17.8022 4.89904C11.9466 3.93356 6.36762 7.91477 5.43112 13.7265C4.49363 19.5432 8.30051 24.9254 14.1411 26.0221C15.465 26.2707 16.7968 26.2657 18.1177 25.9863C18.4142 25.9237 18.5131 25.9376 18.4891 26.2975C18.3913 27.7184 18.6628 29.0826 19.2399 30.3852C19.4426 30.8445 19.3717 30.9549 18.8675 30.9549H16.1728C15.2493 30.9549 14.3268 30.9469 13.4033 30.9599C13.1727 30.9628 13.0549 30.9151 12.979 30.6745C12.8123 30.1445 12.5966 29.6295 12.4109 29.1055C12.325 28.8649 12.1753 28.7117 11.9287 28.6322C11.134 28.3796 10.3632 28.0664 9.62538 27.6776C9.39974 27.5593 9.1781 27.5623 8.94148 27.6438C8.34244 27.8497 7.73642 28.0386 7.13838 28.2474C6.95268 28.313 6.83087 28.2941 6.68311 28.146C5.5709 27.0244 4.4507 25.9118 3.32252 24.8061C3.17076 24.6569 3.16477 24.5327 3.22867 24.3507C3.43234 23.767 3.61305 23.1754 3.82071 22.5928C3.91456 22.3283 3.90957 22.0906 3.77678 21.844C3.40039 21.145 3.09688 20.4132 2.85926 19.6566C2.7694 19.3732 2.60367 19.1962 2.31613 19.0998C1.78599 18.9228 1.26882 18.71 0.737673 18.535C0.547978 18.4723 0.498058 18.3829 0.498058 18.1929C0.505047 16.3823 0.506046 14.5717 0.498058 12.762C0.49706 12.5661 0.560957 12.4836 0.742665 12.424C1.26083 12.251 1.76901 12.0491 2.28718 11.8741C2.58071 11.7737 2.7704 11.6017 2.86325 11.2994C3.09788 10.5417 3.40339 9.81092 3.78078 9.11192C3.91356 8.86533 3.91656 8.6267 3.82271 8.36321C3.61904 7.79247 3.44831 7.20981 3.24065 6.64107C3.16377 6.42828 3.17875 6.29007 3.34847 6.12403C4.45869 5.03625 5.56091 3.93953 6.65615 2.83585C6.81989 2.67179 6.95467 2.64096 7.17532 2.7215C7.75838 2.93329 8.35542 3.11028 8.94248 3.31212C9.19507 3.39863 9.4267 3.3857 9.66232 3.26141C10.3672 2.89153 11.099 2.5813 11.8628 2.35162C12.1623 2.26213 12.34 2.0762 12.4399 1.7779C12.6116 1.26285 12.8212 0.758737 12.995 0.243685C13.0559 0.0617266 13.1377 -0.00190916 13.3344 -0.00190916C15.2174 0.00604531 17.1014 0.00803392 18.9853 -0.00389778C19.208 -0.00489209 19.2848 0.0816127 19.3477 0.26556C19.5235 0.780612 19.7171 1.2897 19.8969 1.80276C19.9937 2.08017 20.1664 2.25815 20.456 2.34665C21.2297 2.58329 21.9765 2.89153 22.6904 3.27135C22.915 3.39067 23.1366 3.40061 23.3743 3.32008C23.9633 3.12121 24.5584 2.94124 25.1424 2.72946C25.3701 2.64693 25.5168 2.66383 25.6945 2.8438C26.7788 3.94052 27.874 5.0273 28.9733 6.10812C29.134 6.26621 29.1859 6.39448 29.1031 6.62019C28.8794 7.22274 28.6977 7.8402 28.484 8.44673C28.4072 8.66349 28.4221 8.85539 28.526 9.05226C28.9124 9.78805 29.2388 10.5487 29.4844 11.3432C29.5623 11.5967 29.725 11.7588 29.9856 11.8463C30.4918 12.0163 30.988 12.2162 31.4952 12.3822C31.7378 12.4627 31.8396 12.5701 31.8377 12.8485C31.8217 14.5965 31.8297 16.3455 31.8297 18.0935Z" fill="#2140A4"/>
<path id="Vector_2" d="M35.1393 25.5866C34.2747 20.3993 28.7726 17.5724 23.9933 19.8643C23.7347 19.9876 23.4861 20.0204 23.2015 19.9817C22.5136 19.8872 21.8218 19.8236 21.0929 19.743C21.2247 20.2064 21.3266 20.6369 21.4733 21.0525C21.6111 21.4443 21.5412 21.7505 21.2816 22.0786C20.3072 23.3086 19.777 24.7225 19.6782 26.2806C19.3707 31.1308 23.513 35.0206 28.3742 34.4638C32.7342 33.9636 35.8542 29.8701 35.1393 25.5866ZM27.4417 20.8358C28.1086 20.8358 28.6508 21.3777 28.6438 22.0389C28.6378 22.6842 28.1027 23.2122 27.4527 23.2151C26.7868 23.2171 26.2456 22.6762 26.2506 22.012C26.2556 21.3677 26.7928 20.8368 27.4417 20.8358ZM30.1783 32.15C29.2688 32.1381 28.3582 32.145 27.4477 32.145C26.5372 32.145 25.6276 32.1381 24.7171 32.15C24.5064 32.152 24.4445 32.0963 24.4485 31.8845C24.4635 31.2651 24.4625 30.6446 24.4495 30.0252C24.4445 29.8154 24.5034 29.7517 24.7161 29.7597C25.1524 29.7756 25.5897 29.7557 26.025 29.7686C26.2057 29.7736 26.2576 29.7189 26.2546 29.5399C26.2436 28.8956 26.2436 28.2513 26.2546 27.607C26.2576 27.428 26.2057 27.3743 26.025 27.3793C25.5767 27.3912 25.1274 27.3753 24.6792 27.3873C24.4985 27.3922 24.4475 27.3375 24.4505 27.1586C24.4605 26.5143 24.4605 25.8699 24.4495 25.2256C24.4465 25.0457 24.5014 24.9979 24.6802 24.9989C25.9272 25.0059 27.1741 25.0119 28.4201 24.996C28.6977 24.992 28.6448 25.1491 28.6448 25.3012C28.6458 26.6773 28.6538 28.0525 28.6378 29.4286C28.6348 29.706 28.7007 29.7895 28.9822 29.7716C29.3926 29.7438 29.8049 29.7726 30.2163 29.7607C30.397 29.7547 30.4489 29.8094 30.4459 29.9884C30.4349 30.6198 30.4329 31.2521 30.4469 31.8845C30.4509 32.0953 30.39 32.152 30.1783 32.15Z" fill="#2140A4"/>
<path id="Vector_3" d="M27.4477 32.1453C26.5371 32.1453 25.6266 32.1383 24.7171 32.1502C24.5064 32.1532 24.4445 32.0965 24.4495 31.8848C24.4635 31.2653 24.4635 30.6449 24.4495 30.0254C24.4445 29.8156 24.5044 29.752 24.7171 29.7589C25.1534 29.7748 25.5897 29.7549 26.026 29.7679C26.2067 29.7728 26.2576 29.7192 26.2546 29.5402C26.2446 28.8959 26.2446 28.2506 26.2546 27.6062C26.2576 27.4273 26.2057 27.3736 26.025 27.3786C25.5767 27.3905 25.1274 27.3746 24.6781 27.3865C24.4974 27.3915 24.4465 27.3368 24.4495 27.1588C24.4595 26.5145 24.4595 25.8692 24.4495 25.2249C24.4465 25.0449 24.5004 24.9972 24.6791 24.9982C25.9261 25.0051 27.1731 25.0111 28.4201 24.9952C28.6977 24.9912 28.6438 25.1483 28.6438 25.3004C28.6438 26.6766 28.6527 28.0527 28.6368 29.4278C28.6338 29.7052 28.6987 29.7888 28.9812 29.7699C29.3906 29.743 29.8039 29.7718 30.2152 29.7589C30.3959 29.753 30.4469 29.8076 30.4439 29.9866C30.4339 30.619 30.4309 31.2514 30.4439 31.8828C30.4489 32.0936 30.387 32.1512 30.1763 32.1482C29.2658 32.1373 28.3562 32.1433 27.4457 32.1433L27.4477 32.1453Z" fill="white"/>
<path id="Vector_4" d="M28.6442 22.0391C28.6372 22.6844 28.102 23.2123 27.4531 23.2153C26.7871 23.2183 26.246 22.6764 26.251 22.0122C26.256 21.3679 26.7931 20.8369 27.4411 20.8359C28.108 20.8359 28.6511 21.3778 28.6442 22.0391Z" fill="white"/>
</g>
<defs>
<clipPath id="clip0_1031_5102">
<rect width="34.7431" height="34.5204" fill="white" transform="translate(0.498047 -0.00390625)"/>
</clipPath>
</defs>
</svg>
