<svg width="22" height="25" viewBox="0 0 22 25" fill="none" xmlns="http://www.w3.org/2000/svg">
<g clip-path="url(#clip0_813_7429)">
<path d="M21.6338 9.72273C19.8244 9.72939 18.0143 9.72673 16.2048 9.72673C15.5375 9.72673 15.2626 9.4461 15.2626 8.76352C15.262 6.25386 15.2587 3.74419 15.2678 1.23453C15.2691 1.00656 15.207 0.962563 14.9988 0.963896C13.3018 0.972562 11.6056 0.967896 9.90864 0.969229C9.2697 0.969895 8.98063 1.27186 8.98063 1.93377V12.2304C8.98063 14.6074 8.97998 16.9844 8.98128 19.3608C8.98128 19.7934 9.17334 20.0833 9.52385 20.2093C9.68294 20.2667 9.84397 20.2487 10.0043 20.2473C13.6633 20.2147 17.3223 20.18 20.982 20.1453C21.5472 20.14 21.8589 19.8161 21.8595 19.2255C21.8602 16.1339 21.8576 13.0423 21.8647 9.9507C21.8647 9.75606 21.8085 9.72206 21.6338 9.72273ZM11.9334 12.827C12.0317 12.5064 12.3182 12.2757 12.6623 12.2751C14.7369 12.2704 16.8114 12.2697 18.886 12.2757C19.3226 12.2771 19.6491 12.635 19.6485 13.0729C19.6478 13.5242 19.3193 13.8642 18.8615 13.8668C17.8281 13.8715 16.7946 13.8682 15.7612 13.8682C14.7278 13.8682 13.7106 13.8735 12.6855 13.8662C12.132 13.8622 11.7711 13.3536 11.9334 12.827ZM19.0995 17.0298C18.9966 17.0638 18.8925 17.0604 18.7877 17.0604C17.7789 17.0604 16.7701 17.0604 15.7606 17.0604C14.7511 17.0604 13.7591 17.0618 12.758 17.0604C12.2445 17.0598 11.8914 16.7331 11.892 16.2645C11.8927 15.7979 12.2497 15.4653 12.7593 15.4653C14.7776 15.464 16.7959 15.4633 18.8136 15.4653C19.2527 15.466 19.5922 15.7479 19.642 16.1425C19.6938 16.5512 19.4739 16.9071 19.0995 17.0298Z" fill="#6F8AE2"/>
<path d="M19.3882 21.7783C18.715 21.9323 18.0418 22.0876 17.3679 22.2396C14.0776 22.9842 10.7865 23.7281 7.49616 24.4713C6.83459 24.6213 6.17238 24.7673 5.51146 24.9172C4.93331 25.0486 4.56664 24.8206 4.4373 24.2253C3.74922 21.0704 3.06566 17.9135 2.37952 14.7579C1.69337 11.6017 1.00723 8.4461 0.318504 5.29052C0.172351 4.62194 0.383173 4.27865 1.04668 4.12734C3.08441 3.6614 5.12344 3.20013 7.15923 2.72286C7.38234 2.6702 7.38946 2.74219 7.38946 2.92617C7.38622 7.40624 7.38687 11.8863 7.38687 16.367C7.38687 17.8628 7.38622 19.3593 7.38687 20.8551C7.38687 21.4984 7.68305 21.8023 8.30517 21.7983C11.884 21.7737 15.4634 21.7483 19.0429 21.723C19.1548 21.7223 19.2673 21.723 19.3792 21.723C19.3824 21.7417 19.385 21.7603 19.3882 21.7783Z" fill="#5273DC"/>
<path d="M21.5314 8.13081H21.3587C19.914 8.13081 18.4687 8.12814 17.024 8.13481C16.8597 8.13548 16.8086 8.10081 16.8093 7.92084C16.8157 5.67914 16.817 3.43677 16.8086 1.1944C16.8073 0.971765 16.8843 0.949768 17.0621 0.981097C17.2904 1.02176 17.4754 1.12508 17.5943 1.32905C18.9013 3.56609 20.2063 5.80445 21.5107 8.04282C21.5217 8.06149 21.5217 8.08682 21.5314 8.13081Z" fill="#6F8AE2"/>
<path d="M19.5044 21.7231C19.4971 21.7244 19.4905 21.7264 19.4832 21.7264C19.4812 21.7264 19.4785 21.7224 19.4766 21.7204C19.4832 21.7198 19.4905 21.7184 19.4978 21.7178C19.4997 21.7178 19.5024 21.7218 19.5044 21.7231Z" fill="#9747FF"/>
<path d="M15.7617 17.061C14.7607 17.061 13.7596 17.0616 12.7585 17.061C12.245 17.061 11.8926 16.7343 11.8926 16.2651C11.8926 15.7985 12.2502 15.4658 12.7598 15.4658C14.7781 15.4645 16.7958 15.4645 18.8141 15.4658C19.2533 15.4658 19.5928 15.7485 19.6426 16.1431C19.6943 16.5517 19.4744 16.9077 19.1 17.0303C18.9972 17.0643 18.893 17.0603 18.7883 17.061C17.7794 17.0616 16.7699 17.061 15.7611 17.061H15.7617Z" fill="white"/>
<path d="M15.7621 13.868C14.7371 13.868 13.7114 13.8734 12.6864 13.866C12.1322 13.862 11.7713 13.3534 11.9336 12.8268C12.0326 12.5062 12.3191 12.2756 12.6625 12.2749C14.7371 12.2709 16.8116 12.2696 18.8862 12.2756C19.3228 12.2769 19.6493 12.6349 19.6487 13.0728C19.6487 13.5241 19.3195 13.864 18.861 13.8667C17.8276 13.872 16.7942 13.868 15.7614 13.868H15.7621Z" fill="white"/>
</g>
<defs>
<clipPath id="clip0_813_7429">
<rect width="21.5905" height="23.9895" fill="white" transform="translate(0.274414 0.963867)"/>
</clipPath>
</defs>
</svg>
