<svg width="35" height="36" viewBox="0 0 35 36" fill="none" xmlns="http://www.w3.org/2000/svg">
<g clip-path="url(#clip0_2289_5275)">
<path d="M27.9479 21.7353C27.9479 21.6351 27.939 21.5349 27.9331 21.4205C27.8224 21.4418 27.7265 21.455 27.6325 21.4792C26.3442 21.8081 25.0372 21.8759 23.7321 21.6725C19.5221 21.0148 16.4937 18.7136 14.6824 14.765C14.5904 14.5646 14.4925 14.4897 14.274 14.4907C12.965 14.5019 11.6549 14.4978 10.3449 14.4958C8.11629 14.4938 6.5907 12.9425 6.58873 10.6747C6.58675 8.59111 6.58774 6.50852 6.58774 4.42493V3.9817C5.99352 3.9817 5.43984 3.97056 4.88715 3.98473C4.28304 4.00092 3.66509 3.96449 3.07878 4.0839C1.3861 4.42695 0.269845 5.88516 0.268856 7.71577C0.261935 15.7456 0.264901 23.7753 0.267867 31.8041C0.267867 32.0429 0.277754 32.2868 0.322247 32.5206C0.666319 34.3471 2.09798 35.5038 4.01806 35.5048C10.7403 35.5068 17.4626 35.5058 24.1849 35.5028C24.4677 35.5028 24.7564 35.4957 25.0332 35.441C26.7694 35.098 27.942 33.6418 27.946 31.8092C27.9539 28.4515 27.9479 25.0929 27.9479 21.7353ZM23.12 27.6693C22.9015 29.3147 21.4689 30.604 19.8484 30.6363C17.9332 30.6748 16.0171 30.6454 14.102 30.6454V30.6556C12.2847 30.6556 10.4684 30.6647 8.65119 30.6525C6.827 30.6404 5.35876 29.4898 5.10071 27.7007C4.95537 26.6918 4.97119 25.6232 5.12543 24.6142C5.37162 22.9992 6.8359 21.7919 8.43466 21.7818C12.2155 21.7596 15.9983 21.7555 19.7792 21.7838C21.5569 21.797 23.0587 23.2734 23.1784 25.101C23.2337 25.9531 23.2318 26.8253 23.12 27.6693Z" fill="#2140A4"/>
<path d="M25.1991 0.763861C20.2347 0.731478 16.1148 4.87135 16.0811 9.92601C16.0475 15.1092 20.0686 19.3098 25.1012 19.3472C30.1338 19.3847 34.2448 15.2478 34.2686 10.1223C34.2933 4.95129 30.2662 0.797255 25.1991 0.763861ZM25.1833 14.496C24.5356 14.498 24.0077 13.9627 24.0027 13.2988C23.9968 12.6299 24.509 12.0865 25.1566 12.0744C25.815 12.0622 26.3697 12.6188 26.3667 13.2887C26.3648 13.9374 25.819 14.4939 25.1833 14.496ZM26.3499 10.1577C26.3252 10.8347 25.7696 11.279 25.121 11.2537C24.4872 11.2284 24.0156 10.7244 24.0017 10.0383C23.9909 9.49594 23.9998 8.95353 23.9998 8.41214C23.9998 7.87075 23.9909 7.35264 24.0017 6.82339C24.0166 6.13324 24.4862 5.6384 25.1269 5.61614C25.7755 5.59388 26.3272 6.04014 26.3509 6.71815C26.3915 7.86367 26.3915 9.01324 26.3499 10.1577Z" fill="#2140A4"/>
<path d="M13.8869 12.0649C12.567 12.0649 11.2965 12.0841 10.026 12.0557C9.46835 12.0426 8.97795 11.5346 8.97399 10.9659C8.95521 8.65662 8.96608 6.34736 8.96608 4.00977H15.3581C13.9136 6.50927 13.4054 9.17271 13.8869 12.0649Z" fill="#2140A4"/>
<path d="M23.1778 25.1008C23.0582 23.2732 21.5563 21.7968 19.7786 21.7837C15.9978 21.7553 12.2149 21.7594 8.43408 21.7816C6.83533 21.7918 5.37104 22.999 5.12485 24.6141C4.97061 25.623 4.95479 26.6916 5.10013 27.7005C5.35819 29.4896 6.82643 30.6402 8.65061 30.6524C10.4679 30.6645 12.2841 30.6554 14.1014 30.6554V30.6453C16.0165 30.6453 17.9327 30.6746 19.8478 30.6362C21.4683 30.6038 22.901 29.3146 23.1195 27.6691C23.2312 26.8252 23.2332 25.9529 23.1778 25.1008ZM20.8266 26.9426C20.8197 27.7258 20.3461 28.2247 19.5809 28.2277C18.2896 28.2328 16.9993 28.2318 15.709 28.2308C15.1712 28.2298 14.6333 28.2298 14.0955 28.2298C13.2056 28.2308 12.3168 28.2308 11.4269 28.2308C10.5371 28.2308 9.64822 28.2308 8.75838 28.2298C7.81712 28.2298 7.38802 27.7835 7.38505 26.813C7.38406 26.3465 7.37714 25.879 7.38802 25.4125C7.40582 24.693 7.88534 24.1992 8.58931 24.1982C12.2703 24.1931 15.9523 24.1921 19.6333 24.1992C20.3234 24.2002 20.8118 24.7173 20.8257 25.4287C20.8345 25.9326 20.8316 26.4376 20.8266 26.9426Z" fill="white"/>
<path d="M23.9998 8.41204C23.9998 7.88279 23.9909 7.35253 24.0018 6.82328C24.0166 6.13313 24.4863 5.63829 25.127 5.61603C25.7756 5.59377 26.3273 6.04004 26.351 6.71804C26.3915 7.86356 26.3915 9.01212 26.351 10.1576C26.3263 10.8346 25.7696 11.2789 25.122 11.2526C24.4883 11.2273 24.0166 10.7233 24.0028 10.0372C23.9919 9.49583 24.0008 8.95343 24.0008 8.41102L23.9998 8.41204Z" fill="white"/>
<path d="M24.0024 13.2989C23.9965 12.63 24.5096 12.0866 25.1563 12.0744C25.8147 12.0623 26.3694 12.6188 26.3674 13.2887C26.3645 13.9374 25.8187 14.494 25.1839 14.497C24.5363 14.499 24.0084 13.9637 24.0034 13.2999L24.0024 13.2989Z" fill="white"/>
<path d="M14.0961 28.2311C12.3174 28.2311 10.5377 28.2331 8.75897 28.2311C7.81772 28.2311 7.38861 27.7848 7.38565 26.8144C7.38466 26.3479 7.37774 25.8803 7.38861 25.4138C7.40641 24.6943 7.88495 24.2005 8.58891 24.1995C12.2709 24.1944 15.9519 24.1934 19.6339 24.1995C20.324 24.2005 20.8124 24.7176 20.8253 25.429C20.8342 25.934 20.8312 26.4389 20.8262 26.9439C20.8193 27.7271 20.3457 28.225 19.5805 28.2291C17.7523 28.2372 15.9232 28.2311 14.0951 28.2321L14.0961 28.2311Z" fill="#2140A4"/>
</g>
<defs>
<clipPath id="clip0_2289_5275">
<rect width="34.0039" height="34.7431" fill="white" transform="translate(0.264526 0.763672)"/>
</clipPath>
</defs>
</svg>
