<svg width="35" height="36" viewBox="0 0 35 36" fill="none" xmlns="http://www.w3.org/2000/svg">
<g id="General report of online announcements" clip-path="url(#clip0_805_7087)">
<path id="Vector" d="M2.56461 22.0233V29.5615C1.57798 29.0247 0.905437 28.2595 0.527076 27.2358C0.427508 26.9665 0.350568 26.69 0.263672 26.4162C0.478197 26.4561 0.445611 26.6519 0.482723 26.7879C0.744317 27.7345 1.2485 28.5161 2.02966 29.1145C2.05681 29.1344 2.08306 29.1571 2.11203 29.1734C2.20707 29.2296 2.29759 29.352 2.40802 29.304C2.52841 29.2505 2.475 29.1027 2.475 28.9966C2.47862 27.5631 2.47772 26.1297 2.47772 24.6953C2.47772 23.9618 2.47953 23.2274 2.475 22.4939C2.475 22.3987 2.51845 22.2699 2.40168 22.2228C2.31207 22.1874 2.23694 22.279 2.16453 22.3298C1.31638 22.9236 0.773282 23.7297 0.491775 24.7225C0.450137 24.8703 0.483628 25.0743 0.263672 25.1269C0.384965 25.0063 0.357809 24.8376 0.397637 24.6917C0.709015 23.561 1.36707 22.6933 2.36548 22.0822C2.41798 22.0505 2.46776 21.9852 2.56461 22.0233Z" fill="white"/>
<path id="Vector_2" d="M4.61328 29.7958C4.62143 27.3795 4.61419 24.9623 4.62143 22.546C4.62324 21.9132 5.05772 21.4825 5.69043 21.4779C6.96672 21.4698 8.24301 21.4825 9.52021 21.4698C9.75283 21.4671 9.76732 21.5641 9.76641 21.749C9.76007 23.0927 9.76279 24.4364 9.76279 25.7801C9.76279 27.1238 9.75736 28.4458 9.76822 29.7786C9.77003 29.998 9.71482 30.0633 9.48943 30.0615C7.95336 30.0524 6.41728 30.0533 4.88121 30.0615C4.67483 30.0624 4.61328 30.0071 4.61328 29.7958Z" fill="white"/>
<path id="Vector_3" d="M9.76855 34.1951C9.79842 34.838 9.56489 35.2841 8.94937 35.508C8.94666 35.3611 9.0761 35.333 9.16661 35.2786C9.47347 35.0936 9.63549 34.818 9.64997 34.4708C9.67894 33.817 9.65812 33.1615 9.66084 32.5069C9.66084 32.2231 9.47347 32.2177 9.27071 32.2177C8.23157 32.2167 7.19244 32.2177 6.15421 32.2177C5.78128 32.2177 5.40926 32.2204 5.03633 32.2168C4.81184 32.2149 4.70594 32.3038 4.70775 32.5368C4.71318 33.1688 4.6996 33.8007 4.71408 34.4327C4.72314 34.7863 4.89331 35.0528 5.17753 35.2569C5.27167 35.3249 5.41921 35.3484 5.42102 35.508C4.81094 35.2741 4.58284 34.8226 4.6118 34.1842C4.63986 33.5759 4.62628 32.9648 4.61271 32.3546C4.60818 32.1451 4.66883 32.0871 4.87792 32.0889C6.42576 32.0971 7.9736 32.0962 9.52144 32.0889C9.71243 32.0889 9.77036 32.137 9.76674 32.331C9.75497 32.9521 9.73959 33.575 9.76855 34.1951Z" fill="white"/>
<path id="Vector_4" d="M21.9229 34.2342C21.9238 34.8716 21.7029 35.2968 21.0964 35.5072C21.0937 35.3567 21.2259 35.334 21.3191 35.2859C21.6432 35.1173 21.7853 34.8408 21.8088 34.4899C21.8161 34.3657 21.8133 34.2414 21.8133 34.1172V17.4379C21.8133 17.4044 21.8097 17.3699 21.8133 17.3364C21.9075 16.3617 21.1227 15.8757 20.2311 16.3309C17.5826 17.68 14.9187 18.9983 12.2566 20.3212C12.0004 20.4481 11.8936 20.6149 11.8945 20.9014C11.8999 24.1446 11.9017 27.3878 11.8927 30.631C11.8918 30.952 12.0556 31.0871 12.3063 31.2122C14.9983 32.5505 17.6858 33.8978 20.375 35.2433C20.4963 35.3041 20.6692 35.3195 20.6891 35.5072C17.7871 34.0592 14.8852 32.6103 11.9805 31.166C11.8384 31.0962 11.7949 31.0109 11.7949 30.8568C11.7994 27.4658 11.7994 24.0748 11.7949 20.6838C11.7949 20.5116 11.8529 20.4336 12.0058 20.3574C14.7892 18.9711 17.5672 17.5739 20.3497 16.1867C21.1797 15.7723 21.9147 16.242 21.9147 17.1777C21.9165 22.8635 21.9102 28.5493 21.9238 34.2342H21.9229Z" fill="white"/>
<path id="Vector_5" d="M19.6965 1.87881C19.5924 1.50798 19.424 1.16616 19.2158 0.779916C20.9402 0.779916 22.6211 0.745463 24.3002 0.791703C25.4968 0.825251 26.478 1.96495 26.4554 3.15995C26.4527 3.32225 26.4065 3.3703 26.2454 3.3694C24.2359 3.36486 22.2255 3.36668 20.216 3.36668C19.9979 3.36668 19.8757 3.27329 19.873 3.04481C19.8684 2.64859 19.8033 2.26053 19.6965 1.87881Z" fill="white"/>
<path id="Vector_6" d="M25.1788 14.7098C25.1851 13.727 25.186 12.7441 25.1788 11.7622C25.1769 11.5863 25.2276 11.5264 25.4069 11.5274C26.4016 11.5346 27.3955 11.5355 28.3903 11.5274C28.5795 11.5264 28.613 11.6062 28.6103 11.7713C28.603 12.2681 28.6075 12.765 28.6075 13.2618C28.6075 13.7587 28.6003 14.2338 28.6112 14.7189C28.6148 14.8966 28.5587 14.9501 28.3812 14.9492C27.3865 14.941 26.3926 14.9401 25.3987 14.9492C25.2068 14.951 25.1779 14.8748 25.1788 14.7098Z" fill="white"/>
<path id="Vector_7" d="M6.88523 3.12715C6.87708 3.25136 6.87979 3.37648 6.87979 3.5007V18.7311C6.87979 19.325 6.88432 19.2806 7.47811 19.335C8.70552 19.4474 9.79263 19.1328 10.8725 18.5434C12.548 17.6286 14.2796 16.8162 15.9668 15.9784C15.7296 16.0274 15.4635 15.9993 15.1992 16.0002C14.2832 16.0038 13.3671 16.0011 12.4511 16.002C12.223 16.002 12.0012 15.9812 11.7867 15.8932C11.2626 15.6774 11.0128 15.2332 11.1033 14.671C11.1839 14.1741 11.6156 13.7834 12.1461 13.7698C13.0277 13.748 13.9093 13.7643 14.7919 13.7625C15.335 13.7616 15.8781 13.7571 16.4203 13.7643C17.1598 13.7743 17.5554 14.1152 17.6477 14.8478C17.6748 15.0681 17.7391 15.0935 17.9201 15.001C18.3537 14.7798 18.7927 14.5695 19.2245 14.3464C20.499 13.6891 21.721 13.7244 22.885 14.6075C22.9112 14.6275 22.9402 14.6447 23.0009 14.6356C23.057 14.5332 23.0271 14.4081 23.028 14.2902C23.0307 13.1369 23.0289 11.9836 23.0298 10.8303C23.0298 10.6272 23.0344 10.4241 23.0995 10.2274C23.2742 9.69152 23.6137 9.4313 24.1794 9.42314C24.8918 9.41407 25.605 9.42042 26.3174 9.42042C27.3918 9.42042 28.4663 9.41679 29.5407 9.42223C30.2123 9.42495 30.6115 9.76768 30.7346 10.4314C30.7636 10.5873 30.7654 10.746 30.7654 10.9038V15.6194C30.7654 15.7101 30.7654 15.7998 30.7582 15.8905C30.6966 16.624 30.2304 17.0764 29.4945 17.0837C28.183 17.0955 26.8714 17.0864 25.5589 17.0873C25.1859 17.0873 24.8121 17.0828 24.4392 17.0891C24.088 17.0946 24.0509 17.129 24.049 17.4826C24.0445 18.4999 24.0481 19.5181 24.0472 20.5354C24.0472 23.4758 24.0472 26.4153 24.0472 29.3547C24.0472 29.7234 24.2259 29.9081 24.5831 29.9087C27.2407 29.9096 29.8983 29.906 32.5558 29.9105C33.6158 29.9123 34.3309 29.4118 34.7527 28.458C34.8052 28.3392 34.8269 28.186 35.0052 28.1797C34.8839 28.2377 34.9029 28.3673 34.8676 28.4671C34.5499 29.3638 33.709 30.0048 32.7613 30.0084C29.9001 30.0211 27.0397 30.013 24.1794 30.0211C23.9748 30.0211 23.945 29.9468 23.945 29.7682C23.9495 25.5856 23.9504 21.4022 23.9422 17.2197C23.9422 16.983 24.0409 16.9767 24.2219 16.9776C25.9626 16.9821 27.7041 16.9803 29.4457 16.9794C30.235 16.9794 30.6387 16.5814 30.6396 15.7953C30.6423 14.088 30.6423 12.3807 30.6396 10.6744C30.6387 9.8928 30.2486 9.50112 29.4764 9.50021C27.7584 9.49839 26.0395 9.50021 24.3206 9.50021C23.5449 9.50112 23.1475 9.8928 23.1457 10.6626C23.1439 11.9628 23.1457 13.262 23.1457 14.5622V14.9512C22.7628 14.6184 22.398 14.3491 21.9608 14.1914C21.1045 13.8813 20.2763 13.9475 19.468 14.3491C18.8235 14.6701 18.1799 14.9938 17.5409 15.3138C17.4558 15.2449 17.5092 15.1815 17.5219 15.1244C17.6712 14.4579 17.2177 13.8641 16.5307 13.8595C15.0951 13.8514 13.6586 13.8523 12.223 13.8586C11.5948 13.8613 11.1812 14.2675 11.1766 14.8578C11.173 15.4634 11.5876 15.8832 12.233 15.8878C13.5672 15.8977 14.9014 15.8914 16.2383 15.8914C16.2564 16.0138 16.1505 16.0066 16.0953 16.0347C13.9102 17.129 11.7225 18.2198 9.53828 19.3159C9.37173 19.3994 9.2097 19.4447 9.02233 19.4429C8.36699 19.4356 7.71074 19.4311 7.0554 19.4447C6.84359 19.4492 6.79199 19.383 6.79199 19.1772C6.79833 13.8296 6.79018 8.48291 6.80195 3.13621C6.80466 1.75625 7.81393 0.778843 9.19522 0.775217C11.2979 0.76887 13.4015 0.76615 15.5042 0.776123C16.7914 0.78247 17.7862 1.75806 17.8351 3.03013C17.8839 4.32215 18.5927 5.14361 19.8726 5.39476C24.8049 5.39385 29.7362 5.39385 34.6685 5.39294C34.7807 5.39294 34.893 5.3875 35.0052 5.38388C34.9708 5.41289 34.9346 5.43374 34.8975 5.44825C34.8667 5.46094 34.836 5.4691 34.8043 5.47454H34.8034C34.6893 5.4954 34.568 5.47817 34.4522 5.47817C29.6086 5.47998 24.7659 5.48089 19.9233 5.47998C18.7049 5.37028 17.8025 4.41463 17.7382 3.15525C17.7074 2.54596 17.5345 2.0083 17.0955 1.5604C16.6583 1.11341 16.1333 0.882205 15.5205 0.878578C13.3825 0.865885 11.2454 0.857725 9.10832 0.879485C7.86643 0.892179 6.97484 1.81881 6.88432 3.12715H6.88523Z" fill="white"/>
<path id="Vector_8" d="M35.007 3.34828C33.6519 3.35463 32.2969 3.36097 30.9418 3.36551C30.253 3.36732 29.5633 3.35735 28.8744 3.36913C28.5857 3.37457 28.4644 3.25943 28.4581 2.97473C28.4418 2.20405 28.2236 1.48868 27.8271 0.8268C27.8968 0.726159 27.9946 0.776026 28.0734 0.776026C29.5533 0.772399 31.0333 0.771493 32.5132 0.773306C33.7687 0.775119 34.567 1.3699 34.9345 2.57579C34.9481 2.62022 34.9526 2.66192 35.007 2.67008C34.8286 2.65467 34.8196 2.49509 34.7707 2.37904C34.3516 1.369 33.6039 0.864881 32.5051 0.870321C31.1256 0.876668 29.7461 0.871228 28.3666 0.872134C27.9937 0.872134 27.9955 0.873948 28.1494 1.22393C28.3549 1.69268 28.4952 2.17776 28.5323 2.69275C28.5685 3.20412 28.621 3.24673 29.1279 3.24764C30.9147 3.24855 32.7006 3.24673 34.4874 3.24945C34.6657 3.24945 34.8531 3.21772 35.007 3.34828Z" fill="white"/>
<path id="Vector_9" d="M35.0062 28.0436V28.1797C34.8849 28.2377 34.9039 28.3673 34.8686 28.4671C34.5509 29.3638 33.71 30.0048 32.7623 30.0084C29.901 30.0211 27.0407 30.013 24.1804 30.0211C23.9758 30.0211 23.9459 29.9468 23.9459 29.7682C23.9505 25.5856 23.9514 21.4022 23.9432 17.2197C23.9432 16.983 24.0419 16.9767 24.2229 16.9776C25.9636 16.9821 27.7051 16.9803 29.4466 16.9794C30.236 16.9794 30.6397 16.5814 30.6406 15.7953C30.6433 14.088 30.6433 12.3807 30.6406 10.6744C30.6397 9.8928 30.2495 9.50112 29.4774 9.50021C27.7594 9.49839 26.0405 9.50021 24.3216 9.50021C23.5458 9.50112 23.1485 9.8928 23.1467 10.6626C23.1449 11.9628 23.1467 13.262 23.1467 14.5622V14.9512C22.7638 14.6184 22.399 14.3491 21.9618 14.1914C21.1055 13.8813 20.2773 13.9475 19.469 14.3491C18.8245 14.6701 18.1809 14.9938 17.5419 15.3138C17.4568 15.2449 17.5102 15.1815 17.5228 15.1244C17.6722 14.4579 17.2187 13.8641 16.5317 13.8595C15.0961 13.8514 13.6596 13.8523 12.224 13.8586C11.5958 13.8613 11.1821 14.2675 11.1776 14.8578C11.174 15.4634 11.5886 15.8832 12.2339 15.8878C13.5682 15.8977 14.9024 15.8914 16.2393 15.8914C16.2574 16.0138 16.1515 16.0066 16.0963 16.0347C13.9112 17.129 11.7234 18.2198 9.53925 19.3159C9.3727 19.3994 9.21068 19.4447 9.02331 19.4429C8.36796 19.4356 7.71172 19.4311 7.05637 19.4447C6.84456 19.4492 6.79297 19.383 6.79297 19.1772C6.7993 13.8296 6.79116 8.48291 6.80293 3.13621C6.80564 1.75625 7.81491 0.778843 9.19619 0.775217C11.2989 0.76887 13.4025 0.76615 15.5052 0.776123C16.7924 0.78247 17.7872 1.75806 17.836 3.03013C17.8849 4.32215 18.5937 5.14361 19.8736 5.39476C20.0057 5.4419 20.1433 5.41742 20.2773 5.41742C25.0484 5.41924 29.8205 5.41924 34.5916 5.41924C34.7518 5.41924 34.8451 5.41924 34.8985 5.44825C34.9718 5.48814 34.9718 5.58244 34.9718 5.80458C34.9718 13.0843 34.9718 20.3641 34.9736 27.6438C34.9736 27.7771 34.9392 27.9149 35.0062 28.0436Z" fill="#6F8AE2"/>
<path id="Vector_10" d="M21.9229 34.2342C21.9238 34.8716 21.7029 35.2968 21.0964 35.5072H20.6891C17.7871 34.0592 14.8852 32.6103 11.9805 31.166C11.8384 31.0962 11.7949 31.0109 11.7949 30.8568C11.7994 27.4658 11.7994 24.0748 11.7949 20.6838C11.7949 20.5116 11.8529 20.4336 12.0058 20.3574C14.7892 18.9711 17.5672 17.5739 20.3497 16.1867C21.1797 15.7723 21.9147 16.242 21.9147 17.1777C21.9165 22.8635 21.9102 28.5493 21.9238 34.2342H21.9229Z" fill="#6F8AE2"/>
<path id="Vector_11" d="M8.94937 35.508H5.42102C4.81094 35.2741 4.58284 34.8226 4.6118 34.1842C4.63986 33.5759 4.62628 32.9648 4.61271 32.3546C4.60818 32.1451 4.66883 32.0871 4.87792 32.0889C6.42576 32.0971 7.9736 32.0962 9.52144 32.0889C9.71243 32.0889 9.77036 32.137 9.76674 32.331C9.75497 32.9521 9.73959 33.575 9.76855 34.1951C9.79842 34.838 9.56489 35.2841 8.94937 35.508Z" fill="#6F8AE2"/>
<path id="Vector_12" d="M35.007 2.67008V3.34828C33.6519 3.35463 32.2969 3.36097 30.9418 3.36551C30.253 3.36732 29.5633 3.35735 28.8744 3.36913C28.5857 3.37457 28.4644 3.25943 28.4581 2.97473C28.4418 2.20405 28.2236 1.48868 27.8271 0.8268C27.8968 0.726159 27.9946 0.776026 28.0734 0.776026C29.5533 0.772399 31.0333 0.771493 32.5132 0.773306C33.7687 0.775119 34.567 1.3699 34.9345 2.57579C34.9481 2.62022 34.9526 2.66192 35.007 2.67008Z" fill="#6F8AE2"/>
<path id="Vector_13" d="M2.56461 22.0233V29.5615C1.57798 29.0247 0.905437 28.2595 0.527076 27.2358C0.427508 26.9665 0.350568 26.69 0.263672 26.4162V25.1269C0.384965 25.0063 0.357809 24.8376 0.397637 24.6917C0.709015 23.561 1.36707 22.6933 2.36548 22.0822C2.41798 22.0505 2.46776 21.9852 2.56461 22.0233Z" fill="#6F8AE2"/>
<path id="Vector_14" d="M35.0066 5.38379V28.0436C34.8917 27.9747 34.9388 27.8631 34.9388 27.7679C34.9388 20.4791 34.9388 13.1903 34.9388 5.9006C34.9388 5.60321 34.9388 5.50619 34.8057 5.47446H34.8048C34.7414 5.45904 34.6473 5.45904 34.507 5.45904C29.7929 5.45904 25.0797 5.45904 20.3664 5.45632C20.2017 5.45632 20.0261 5.508 19.874 5.39467C24.8063 5.39376 29.7377 5.39376 34.6699 5.39286C34.7822 5.39286 34.8944 5.38742 35.0066 5.38379Z" fill="#6F8AE2"/>
<path id="Vector_15" d="M9.76822 29.7786C9.77003 29.998 9.71482 30.0633 9.48943 30.0615C7.95336 30.0524 6.41728 30.0533 4.88121 30.0615C4.67483 30.0624 4.61328 30.0071 4.61328 29.7958C4.62143 27.3795 4.61419 24.9623 4.62143 22.546C4.62324 21.9132 5.05772 21.4825 5.69043 21.4779C6.96672 21.4698 8.24301 21.4825 9.52021 21.4698C9.75283 21.4671 9.76732 21.5641 9.76641 21.749C9.76007 23.0927 9.76279 24.4364 9.76279 25.7801C9.76279 27.1238 9.75736 28.4458 9.76822 29.7786Z" fill="#6F8AE2"/>
<path id="Vector_16" d="M26.4554 3.15995C26.4527 3.32225 26.4065 3.3703 26.2454 3.3694C24.2359 3.36486 22.2255 3.36668 20.216 3.36668C19.9979 3.36668 19.8757 3.27329 19.873 3.04481C19.8684 2.64859 19.8033 2.26053 19.6965 1.87881C19.5924 1.50798 19.424 1.16616 19.2158 0.779916C20.9402 0.779916 22.6211 0.745463 24.3002 0.791703C25.4968 0.825251 26.478 1.96495 26.4554 3.15995Z" fill="#6F8AE2"/>
<path id="Vector_17" d="M28.6112 14.7189C28.6148 14.8966 28.5587 14.9501 28.3812 14.9492C27.3865 14.941 26.3926 14.9401 25.3987 14.9492C25.2068 14.951 25.1779 14.8748 25.1788 14.7098C25.1851 13.727 25.186 12.7441 25.1788 11.7622C25.1769 11.5863 25.2276 11.5264 25.4069 11.5274C26.4016 11.5346 27.3955 11.5355 28.3903 11.5274C28.5795 11.5264 28.613 11.6062 28.6103 11.7713C28.603 12.2681 28.6075 12.765 28.6075 13.2618C28.6075 13.7587 28.6003 14.2338 28.6112 14.7189Z" fill="#6F8AE2"/>
<path id="Vector_18" d="M16.0099 11.5283C14.7662 11.5283 13.5225 11.5337 12.2788 11.5265C11.5556 11.5219 11.1346 11.0813 11.1835 10.4067C11.2161 9.94613 11.5565 9.58255 12.0145 9.51727C12.0706 9.50911 12.1267 9.50276 12.1828 9.50276C14.7273 9.50276 17.2708 9.50095 19.8152 9.50276C20.2244 9.50276 20.5294 9.69679 20.715 10.0604C20.8951 10.4122 20.8634 10.7621 20.6435 11.0858C20.4217 11.4122 20.094 11.5328 19.7066 11.531C18.4738 11.5274 17.2418 11.5301 16.009 11.5301L16.0099 11.5283Z" fill="white"/>
<path id="Vector_19" d="M28.4534 21.333C28.0696 21.333 27.6859 21.3402 27.303 21.3312C26.7282 21.3185 26.2846 20.8815 26.2765 20.3311C26.2675 19.7889 26.7119 19.3147 27.2785 19.3029C28.057 19.2866 28.8354 19.2875 29.6139 19.3029C30.2276 19.3147 30.6385 19.7526 30.6258 20.3402C30.6141 20.915 30.2049 21.3176 29.6048 21.3312C29.221 21.3402 28.8372 21.333 28.4543 21.333H28.4534Z" fill="white"/>
<path id="Vector_20" d="M28.4254 25.6886C28.0534 25.6886 27.6805 25.6986 27.3085 25.6868C26.7165 25.6678 26.2883 25.2471 26.2757 24.6931C26.263 24.1355 26.7083 23.6713 27.3057 23.6595C28.0724 23.6441 28.84 23.6422 29.6067 23.6613C30.2312 23.6767 30.634 24.1047 30.625 24.6913C30.6159 25.2679 30.2213 25.6632 29.6094 25.6859C29.2147 25.7004 28.8201 25.6886 28.4254 25.6886Z" fill="white"/>
</g>
<defs>
<clipPath id="clip0_805_7087">
<rect width="34.7431" height="34.7431" fill="white" transform="translate(0.263672 0.763672)"/>
</clipPath>
</defs>
</svg>
