<svg width="35" height="36" viewBox="0 0 35 36" fill="none" xmlns="http://www.w3.org/2000/svg">
<g id="Defects report and notification delay online" clip-path="url(#clip0_805_7133)">
<path id="Vector" d="M27.948 21.7353C27.948 21.6351 27.9391 21.5349 27.9331 21.4205C27.8224 21.4418 27.7265 21.455 27.6326 21.4792C26.3443 21.8081 25.0372 21.8759 23.7321 21.6725C19.5221 21.0148 16.4937 18.7136 14.6824 14.765C14.5904 14.5646 14.4925 14.4897 14.274 14.4907C12.965 14.5019 11.6549 14.4978 10.3449 14.4958C8.11632 14.4938 6.59073 12.9425 6.58876 10.6747C6.58678 8.59111 6.58777 6.50852 6.58777 4.42493V3.9817C5.99355 3.9817 5.43987 3.97056 4.88718 3.98473C4.28307 4.00092 3.66512 3.96449 3.07882 4.0839C1.38613 4.42695 0.269875 5.88516 0.268886 7.71577C0.261965 15.7456 0.264932 23.7753 0.267898 31.8041C0.267898 32.0429 0.277785 32.2868 0.322277 32.5206C0.66635 34.3471 2.09801 35.5038 4.0181 35.5048C10.7404 35.5068 17.4626 35.5058 24.1849 35.5028C24.4677 35.5028 24.7564 35.4957 25.0332 35.441C26.7694 35.098 27.942 33.6418 27.946 31.8092C27.9539 28.4515 27.948 25.0929 27.948 21.7353ZM23.1201 27.6693C22.9016 29.3147 21.4689 30.604 19.8484 30.6363C17.9333 30.6748 16.0171 30.6454 14.102 30.6454V30.6556C12.2847 30.6556 10.4685 30.6647 8.65122 30.6525C6.82704 30.6404 5.35879 29.4898 5.10074 27.7007C4.9554 26.6918 4.97122 25.6232 5.12546 24.6142C5.37165 22.9992 6.83593 21.7919 8.43469 21.7818C12.2155 21.7596 15.9984 21.7555 19.7792 21.7838C21.5569 21.797 23.0588 23.2734 23.1784 25.101C23.2338 25.9531 23.2318 26.8253 23.1201 27.6693Z" fill="#2140A4"/>
<path id="Vector_2" d="M25.1992 0.763861C20.2349 0.731478 16.1149 4.87135 16.0813 9.92601C16.0476 15.1092 20.0688 19.3098 25.1013 19.3472C30.1339 19.3847 34.245 15.2478 34.2687 10.1223C34.2934 4.95129 30.2664 0.797255 25.1992 0.763861ZM25.1834 14.496C24.5358 14.498 24.0078 13.9627 24.0029 13.2988C23.9969 12.6299 24.5091 12.0865 25.1567 12.0744C25.8152 12.0622 26.3698 12.6188 26.3669 13.2887C26.3649 13.9374 25.8191 14.4939 25.1834 14.496ZM26.3501 10.1577C26.3253 10.8347 25.7697 11.279 25.1211 11.2537C24.4873 11.2284 24.0157 10.7244 24.0019 10.0383C23.991 9.49594 23.9999 8.95353 23.9999 8.41214C23.9999 7.87075 23.991 7.35264 24.0019 6.82339C24.0167 6.13324 24.4863 5.6384 25.127 5.61614C25.7756 5.59388 26.3273 6.04014 26.351 6.71815C26.3916 7.86367 26.3916 9.01324 26.3501 10.1577Z" fill="#2140A4"/>
<path id="Vector_3" d="M13.8869 12.0649C12.5669 12.0649 11.2964 12.0841 10.0259 12.0557C9.46829 12.0426 8.97789 11.5346 8.97393 10.9659C8.95515 8.65662 8.96602 6.34736 8.96602 4.00977H15.3581C13.9136 6.50927 13.4054 9.17271 13.8869 12.0649Z" fill="#2140A4"/>
<path id="Vector_4" d="M23.1782 25.1008C23.0585 23.2732 21.5567 21.7968 19.779 21.7837C15.9981 21.7553 12.2153 21.7594 8.43445 21.7816C6.83569 21.7918 5.37141 22.999 5.12522 24.6141C4.97098 25.623 4.95516 26.6916 5.1005 27.7005C5.35855 29.4896 6.82679 30.6402 8.65097 30.6524C10.4682 30.6645 12.2845 30.6554 14.1018 30.6554V30.6453C16.0169 30.6453 17.933 30.6746 19.8482 30.6362C21.4687 30.6038 22.9013 29.3146 23.1198 27.6691C23.2316 26.8252 23.2335 25.9529 23.1782 25.1008ZM20.827 26.9426C20.8201 27.7258 20.3465 28.2247 19.5812 28.2277C18.29 28.2328 16.9997 28.2318 15.7094 28.2308C15.1716 28.2298 14.6337 28.2298 14.0958 28.2298C13.206 28.2308 12.3171 28.2308 11.4273 28.2308C10.5374 28.2308 9.64859 28.2308 8.75874 28.2298C7.81749 28.2298 7.38838 27.7835 7.38542 26.813C7.38443 26.3465 7.37751 25.879 7.38838 25.4125C7.40618 24.693 7.88571 24.1992 8.58967 24.1982C12.2707 24.1931 15.9526 24.1921 19.6336 24.1992C20.3237 24.2002 20.8122 24.7173 20.826 25.4287C20.8349 25.9326 20.8319 26.4376 20.827 26.9426Z" fill="white"/>
<path id="Vector_5" d="M23.9995 8.41204C23.9995 7.88279 23.9906 7.35253 24.0015 6.82328C24.0163 6.13313 24.486 5.63829 25.1267 5.61603C25.7753 5.59377 26.327 6.04004 26.3507 6.71804C26.3912 7.86356 26.3912 9.01212 26.3507 10.1576C26.326 10.8346 25.7693 11.2789 25.1217 11.2526C24.4879 11.2273 24.0163 10.7233 24.0025 10.0372C23.9916 9.49583 24.0005 8.95343 24.0005 8.41102L23.9995 8.41204Z" fill="white"/>
<path id="Vector_6" d="M24.003 13.2989C23.997 12.63 24.5102 12.0866 25.1568 12.0744C25.8153 12.0623 26.37 12.6188 26.368 13.2887C26.365 13.9374 25.8193 14.494 25.1845 14.497C24.5369 14.499 24.0089 13.9637 24.004 13.2999L24.003 13.2989Z" fill="white"/>
<path id="Vector_7" d="M14.0963 28.2311C12.3176 28.2311 10.5379 28.2331 8.75922 28.2311C7.81796 28.2311 7.38886 27.7848 7.38589 26.8144C7.3849 26.3479 7.37798 25.8803 7.38886 25.4138C7.40665 24.6943 7.88519 24.2005 8.58916 24.1995C12.2711 24.1944 15.9521 24.1934 19.6341 24.1995C20.3242 24.2005 20.8126 24.7176 20.8255 25.429C20.8344 25.934 20.8314 26.4389 20.8265 26.9439C20.8196 27.7271 20.346 28.225 19.5807 28.2291C17.7526 28.2372 15.9234 28.2311 14.0953 28.2321L14.0963 28.2311Z" fill="#2140A4"/>
</g>
<defs>
<clipPath id="clip0_805_7133">
<rect width="34.0039" height="34.7431" fill="white" transform="translate(0.264648 0.763672)"/>
</clipPath>
</defs>
</svg>
