<svg width="36" height="36" viewBox="0 0 36 36" fill="none" xmlns="http://www.w3.org/2000/svg">
<g clip-path="url(#clip0_805_7116)">
<path d="M5.97219 6.77746C5.9676 6.13343 5.9676 5.4885 5.97219 4.84447C5.97862 4.09884 6.41821 3.66344 7.16615 3.65528C7.57913 3.65074 7.99211 3.64167 8.40417 3.65891C8.6235 3.66889 8.70426 3.59269 8.78686 3.3895C9.41917 1.81844 10.5966 0.891396 12.3045 0.77529C14.0445 0.657369 15.3431 1.44109 16.1902 2.94594C16.1957 2.95592 16.203 2.9659 16.2048 2.97587C16.3113 3.6453 16.7674 3.73147 17.341 3.65891C17.5778 3.62897 17.8219 3.64984 18.0623 3.65528C18.7139 3.67251 19.1682 4.10429 19.1774 4.74015C19.1893 5.48668 19.1948 6.23321 19.1737 6.97883C19.1351 8.35488 18.0229 9.42615 16.6242 9.43703C15.2715 9.44882 13.9188 9.43975 12.5661 9.43975C11.2133 9.43975 9.9744 9.44157 8.67949 9.43975C7.08356 9.43612 5.98229 8.35307 5.97219 6.77746Z" fill="#FEFEFE"/>
<path d="M16.2483 16.8835C15.6087 17.5203 15.0489 18.2205 14.5707 18.9816C14.4606 19.1585 14.3422 19.2183 14.1339 19.2174C11.3137 19.2111 8.49263 19.2102 5.67246 19.2147C4.8254 19.2156 4.26925 20.0011 4.60423 20.725C4.8153 21.1794 5.19524 21.3872 5.70733 21.3863C8.11453 21.3826 10.5226 21.3845 12.9308 21.3845H13.3437C13.1831 21.9577 12.984 22.4965 12.8785 23.0589C12.8729 23.0925 12.8573 23.1233 12.85 23.1569C12.7977 23.3982 12.8243 23.722 12.6738 23.8608C12.504 24.0186 12.1718 23.9107 11.9112 23.9107C9.8472 23.9143 7.78323 23.9098 5.71926 23.9143C4.85293 23.917 4.29403 24.6518 4.5822 25.3892C4.75749 25.8355 5.15945 26.0831 5.72844 26.0841C7.87317 26.0859 10.017 26.0922 12.1617 26.0768C12.5068 26.0741 12.6206 26.1503 12.6325 26.5104C12.6811 27.9699 13.0473 29.3641 13.6136 30.7093C13.6704 30.8426 13.7319 30.975 13.8136 31.1574H13.4658C10.4043 31.1574 7.34272 31.1583 4.28119 31.1574C2.18418 31.1565 0.622208 29.9074 0.168851 27.8728C0.160591 27.8338 0.127553 27.8003 0.106445 27.764C0.302839 27.7975 0.291826 27.9726 0.329453 28.1023C0.804836 29.7478 1.90519 30.7075 3.60207 31.0168C3.78378 31.0503 3.96549 31.0567 4.14995 31.0567H13.1629C13.2088 31.0567 13.2547 31.0585 13.3006 31.0558C13.6025 31.044 13.631 31.0131 13.5154 30.7374C13.2428 30.0879 13.0161 29.4257 12.8528 28.74C12.6866 28.0452 12.5582 27.3458 12.527 26.631C12.5086 26.2029 12.4847 26.1702 12.0479 26.1693C10.0298 26.1675 8.01175 26.1684 5.99366 26.1684C5.85601 26.1684 5.71835 26.1711 5.58069 26.1657C4.99151 26.1394 4.50603 25.7094 4.4271 25.1443C4.35093 24.6073 4.70793 24.0685 5.2604 23.8844C5.5036 23.8036 5.75414 23.7946 6.00743 23.7946C8.03744 23.7946 10.0665 23.7946 12.0965 23.7946C12.4465 23.7946 12.6548 23.6298 12.7215 23.3002C12.8142 22.8449 12.9354 22.3977 13.0647 21.9514C13.1941 21.5051 13.1785 21.486 12.7178 21.486C10.9402 21.4851 9.16349 21.487 7.38586 21.4851C6.77832 21.4842 6.16987 21.506 5.56325 21.4752C4.97315 21.4461 4.49043 20.989 4.42343 20.432C4.36011 19.9041 4.70518 19.3725 5.23103 19.183C5.44119 19.1077 5.65869 19.1122 5.87619 19.1122C8.50273 19.1122 11.1283 19.1049 13.754 19.1204C14.177 19.1222 14.4468 19.0088 14.6781 18.6387C15.081 17.9956 15.572 17.4105 16.1318 16.859C15.9996 16.7701 15.873 16.8046 15.7574 16.8046C12.5233 16.8019 9.29014 16.8028 6.05607 16.8028C5.80369 16.8028 5.55224 16.8019 5.30629 16.7284C4.73362 16.5579 4.3546 16.0191 4.42435 15.4685C4.49777 14.8897 4.98967 14.4416 5.59996 14.4344C6.92975 14.4199 8.25953 14.4298 9.59024 14.4298C12.6747 14.4298 15.7592 14.4262 18.8437 14.4335C19.2199 14.4344 19.5595 14.36 19.9009 14.1985C21.3849 13.4974 22.9468 13.0728 24.5978 13.0057C24.819 12.9957 24.9833 12.9522 24.9768 12.6873C24.9447 11.2977 25.0815 9.90349 24.9025 8.51928C24.6731 6.75047 23.1662 5.36082 21.3647 5.20571C21.2729 5.19845 21.1811 5.20208 21.0894 5.19936C20.8709 5.19392 20.781 5.30095 20.781 5.51049C20.781 5.92865 20.7938 6.34773 20.7782 6.76589C20.7085 8.54559 19.9339 9.88535 18.2517 10.6428C17.7773 10.8559 17.279 10.9684 16.7522 10.9684C14.0008 10.9639 11.2486 10.9675 8.49631 10.9657C6.28734 10.9657 4.43903 9.16241 4.40875 6.98178C4.40233 6.54003 4.40967 6.09919 4.40691 5.65834C4.40324 5.21931 4.35644 5.1785 3.90125 5.20117C2.30073 5.28009 0.862652 6.41213 0.380846 7.96143C0.327618 8.13015 0.353314 8.35964 0.106445 8.42223C0.222997 8.31428 0.211984 8.16099 0.247775 8.02583C0.714898 6.27062 2.46959 5.00887 4.30688 5.0896C4.52347 5.09867 4.50695 5.19664 4.51153 5.33814C4.53448 6.08286 4.45005 6.8312 4.57027 7.5732C4.86669 9.39281 6.48006 10.845 8.3458 10.8677C11.166 10.9031 13.9871 10.9058 16.8072 10.8677C18.9254 10.8378 20.6075 9.0844 20.658 6.94459C20.67 6.41304 20.6718 5.88149 20.6553 5.34994C20.6488 5.13586 20.7149 5.09414 20.9223 5.09142C23.1864 5.06511 25.0117 6.78403 25.0576 9.02634C25.0842 10.2926 25.0585 11.5598 25.0695 12.827C25.0714 13.0465 24.9869 13.0874 24.7905 13.0937C23.001 13.1509 21.3142 13.6071 19.7164 14.3936C19.5246 14.4879 19.3328 14.516 19.1227 14.5151C14.6965 14.5124 10.2703 14.5133 5.84407 14.5151C5.63942 14.5151 5.43477 14.5006 5.23379 14.5786C4.77768 14.7555 4.48125 15.1927 4.51153 15.6626C4.5409 16.1306 4.89239 16.5424 5.36777 16.6422C5.53388 16.6776 5.70917 16.6839 5.87987 16.6839C9.25068 16.6867 12.6215 16.6858 15.9923 16.6858H16.3649C16.3924 16.8046 16.2979 16.8345 16.2483 16.8844V16.8835Z" fill="#FEFEFE"/>
<path d="M35.333 24.8454C35.1559 24.8381 35.1908 24.6939 35.1779 24.595C34.8797 22.2874 33.8849 20.32 32.1834 18.7153C30.581 17.205 28.6667 16.3379 26.4568 16.1056C24.0422 15.8526 21.825 16.4068 19.8482 17.7738C17.408 19.46 16.0011 21.7858 15.6726 24.7211C15.4083 27.0768 15.9736 29.2411 17.3282 31.1832C18.8975 33.4328 21.0734 34.7889 23.8009 35.285C24.0028 35.3213 24.2708 35.2342 24.3928 35.5009C24.0138 35.3467 23.6017 35.3385 23.2071 35.2497C19.0902 34.3235 15.9635 30.8331 15.5735 26.7095C15.1146 21.852 18.1945 17.4998 22.9713 16.2589C28.563 14.8058 34.3235 18.5457 35.211 24.1977C35.2449 24.4136 35.2073 24.6458 35.333 24.8454Z" fill="#FEFEFE"/>
<path d="M25.0695 12.827C25.0714 13.0465 24.9869 13.0874 24.7905 13.0937C23.001 13.1509 21.3142 13.6071 19.7164 14.3936C19.5246 14.4879 19.3328 14.516 19.1227 14.5151C14.6965 14.5124 10.2703 14.5133 5.84407 14.5151C5.63942 14.5151 5.43477 14.5006 5.23379 14.5786C4.77768 14.7555 4.48125 15.1927 4.51153 15.6626C4.5409 16.1306 4.89239 16.5424 5.36777 16.6422C5.53388 16.6776 5.70917 16.6839 5.87987 16.6839C9.25068 16.6867 12.6215 16.6858 15.9923 16.6858H16.3649C16.3924 16.8046 16.2979 16.8345 16.2483 16.8844C15.6087 17.5212 15.0489 18.2215 14.5707 18.9825C14.4606 19.1594 14.3422 19.2192 14.1339 19.2183C11.3137 19.212 8.49263 19.2111 5.67246 19.2156C4.8254 19.2165 4.26925 20.0021 4.60423 20.7259C4.8153 21.1804 5.19524 21.3881 5.70733 21.3872C8.11453 21.3835 10.5226 21.3854 12.9308 21.3854H13.3437C13.1831 21.9586 12.984 22.4974 12.8785 23.0598C12.8729 23.0934 12.8573 23.1242 12.85 23.1578C12.7977 23.3991 12.8243 23.7229 12.6738 23.8617C12.504 24.0195 12.1718 23.9116 11.9112 23.9116C9.8472 23.9152 7.78323 23.9107 5.71926 23.9152C4.85293 23.9179 4.29403 24.6527 4.5822 25.3901C4.75749 25.8364 5.15945 26.0841 5.72844 26.085C7.87317 26.0868 10.017 26.0931 12.1617 26.0777C12.5068 26.075 12.6206 26.1512 12.6325 26.5113C12.6811 27.9708 13.0473 29.365 13.6136 30.7102C13.6704 30.8435 13.7319 30.976 13.8136 31.1583H13.4658C10.4043 31.1583 7.34272 31.1592 4.28119 31.1583C2.18418 31.1574 0.622208 29.9083 0.168851 27.8737C0.160591 27.8347 0.127553 27.8012 0.106445 27.7649V8.42223C0.222997 8.31428 0.211984 8.16099 0.247775 8.02583C0.714898 6.27062 2.46959 5.00887 4.30688 5.0896C4.52347 5.09867 4.50695 5.19664 4.51153 5.33814C4.53448 6.08286 4.45005 6.8312 4.57027 7.5732C4.86669 9.39281 6.48006 10.845 8.3458 10.8677C11.166 10.9031 13.9871 10.9058 16.8072 10.8677C18.9254 10.8378 20.6075 9.0844 20.658 6.94459C20.67 6.41304 20.6718 5.88149 20.6553 5.34994C20.6488 5.13586 20.7149 5.09414 20.9223 5.09142C23.1864 5.06511 25.0117 6.78403 25.0576 9.02634C25.0842 10.2926 25.0585 11.5598 25.0695 12.827Z" fill="#355BD6"/>
<path d="M35.333 24.8454V26.7457C35.2578 27.7553 35.0155 28.7241 34.5943 29.6466C33.5132 32.0141 31.7833 33.7403 29.3669 34.787C28.395 35.207 27.3828 35.4619 26.32 35.5009H24.3928C24.0138 35.3467 23.6017 35.3385 23.2071 35.2497C19.0902 34.3235 15.9635 30.8331 15.5735 26.7095C15.1146 21.852 18.1945 17.4998 22.9713 16.2589C28.563 14.8058 34.3235 18.5457 35.211 24.1977C35.2449 24.4136 35.2073 24.6458 35.333 24.8454Z" fill="#355BD6"/>
<path d="M26.3203 35.5013C26.7617 35.4169 27.2068 35.3489 27.6436 35.2455C31.7504 34.2722 34.6752 31.082 35.2589 26.9502C35.269 26.8794 35.2295 26.786 35.3333 26.7461C35.3333 29.5853 35.3305 32.4244 35.3388 35.2636C35.3388 35.4659 35.2975 35.5076 35.0919 35.5067C32.168 35.4985 29.2441 35.5013 26.3193 35.5013H26.3203Z" fill="#FEFEFE"/>
<path d="M19.1737 6.97883C19.1351 8.35488 18.0229 9.42615 16.6242 9.43703C15.2715 9.44882 13.9188 9.43975 12.5661 9.43975C11.2133 9.43975 9.9744 9.44157 8.67949 9.43975C7.08356 9.43612 5.98229 8.35307 5.97219 6.77746C5.9676 6.13343 5.9676 5.4885 5.97219 4.84447C5.97862 4.09884 6.41821 3.66344 7.16615 3.65528C7.57913 3.65074 7.99211 3.64167 8.40417 3.65891C8.6235 3.66889 8.70426 3.59269 8.78686 3.3895C9.41917 1.81844 10.5966 0.891396 12.3045 0.77529C14.0445 0.657369 15.3431 1.44109 16.1902 2.94594C16.1957 2.95592 16.203 2.9659 16.2048 2.97587C16.3113 3.6453 16.7674 3.73147 17.341 3.65891C17.5778 3.62897 17.8219 3.64984 18.0623 3.65528C18.7139 3.67251 19.1682 4.10429 19.1774 4.74015C19.1893 5.48668 19.1948 6.23321 19.1737 6.97883Z" fill="#355BD6"/>
<path d="M19.5596 25.7332C19.5743 25.1237 19.8523 24.6665 20.4167 24.4171C21.0059 24.1567 21.5685 24.2493 22.0375 24.6892C22.5945 25.2108 23.1387 25.7468 23.6655 26.2974C23.8555 26.4961 23.9381 26.4571 24.0987 26.2739C25.3661 24.8289 26.6463 23.3948 27.9192 21.9543C28.312 21.5099 28.7938 21.2922 29.3857 21.4164C30.5081 21.6514 30.9357 22.9285 30.1759 23.8021C29.0865 25.0556 27.9761 26.2911 26.8748 27.5338C26.3012 28.1806 25.7295 28.8291 25.1531 29.4741C24.4584 30.2514 23.5646 30.2814 22.8212 29.5521C21.8952 28.6423 20.9738 27.7279 20.0478 26.8181C19.7422 26.5179 19.5541 26.1705 19.5587 25.7351L19.5596 25.7332Z" fill="#FEFEFE"/>
</g>
<defs>
<clipPath id="clip0_805_7116">
<rect width="35.2325" height="34.7431" fill="white" transform="translate(0.106445 0.763672)"/>
</clipPath>
</defs>
</svg>
