<svg width="56" height="49" viewBox="0 0 56 49" fill="none" xmlns="http://www.w3.org/2000/svg">
<g id="Layer_1" clip-path="url(#clip0_679_16708)">
<path id="Vector" d="M55.6517 16.5071C55.1755 17.1043 54.5311 17.1798 53.8205 17.0242C52.4311 16.719 51.0371 16.4419 49.628 16.2315C49.0828 16.15 49.1444 16.4078 49.1444 16.7368C49.1474 21.0221 49.1459 25.309 49.1459 29.5943C49.1459 30.6301 49.1549 31.6644 49.1444 32.6987C49.1188 35.157 47.5371 36.704 45.048 36.7055C40.0564 36.7099 35.0662 36.7158 30.0746 36.6951C29.5744 36.6936 29.4482 36.8092 29.4708 37.3011C29.6089 40.4751 29.7231 43.6506 29.8223 46.8261C29.8343 47.198 29.9875 47.2366 30.2984 47.2321C31.368 47.2173 32.4375 47.2232 33.507 47.2292C34.171 47.2321 34.5525 47.5729 34.5405 48.1301C34.53 48.665 34.1574 48.9984 33.525 48.9984C27.5765 49.0014 21.628 49.0014 15.6795 48.9984C15.0126 48.9984 14.628 48.6532 14.6371 48.099C14.6461 47.5477 15.0306 47.2306 15.7066 47.2277C16.7776 47.2232 17.8471 47.2158 18.9167 47.2336C19.2336 47.2381 19.3268 47.1403 19.3373 46.8306C19.4439 43.6373 19.5596 40.4425 19.6933 37.2493C19.7098 36.821 19.6047 36.6951 19.151 36.6966C14.1789 36.7143 9.2038 36.6506 4.2332 36.7336C2.00401 36.7706 -0.041911 35.2162 0.000149119 32.5342C0.0632392 28.5259 0.0166727 24.5162 0.0166727 20.5065C0.0166727 16.4967 0.0136684 12.4514 0.0166727 8.42391C0.019677 6.46498 0.999076 5.05431 2.70702 4.50752C3.19521 4.35194 3.69543 4.31934 4.20466 4.31934C8.08921 4.3223 11.9738 4.31341 15.8583 4.33267C16.3195 4.33415 16.4787 4.23339 16.4456 3.76218C16.4126 3.26874 16.3826 2.76641 16.4832 2.2715C16.707 1.16756 17.5452 0.445923 18.6853 0.420733C19.7158 0.397024 20.7493 0.411842 21.7813 0.411842C26.6227 0.41036 31.4641 0.450369 36.304 0.391097C38.1562 0.36887 39.1145 1.56912 39.0409 3.07907C38.9793 4.31934 39.0304 4.32082 40.3177 4.32082C41.5375 4.32082 42.7572 4.30452 43.977 4.33119C44.351 4.34008 44.5508 4.21709 44.7235 3.90147C45.2523 2.92497 45.8216 1.97069 46.3519 0.995669C46.6898 0.371834 47.166 -0.020842 47.9036 0.00138489C48.6426 0.02213 49.1008 0.441478 49.3997 1.08013C51.5207 5.61739 53.6448 10.1532 55.7763 14.686C56.0768 15.3261 56.1053 15.9366 55.6502 16.5071H55.6517Z" fill="#FEFEFE"/>
<path id="Vector_2" d="M55.6517 16.5071C55.1755 17.1043 54.5311 17.1798 53.8205 17.0242C52.4311 16.719 51.0371 16.4419 49.628 16.2315C49.0828 16.15 49.1444 16.4078 49.1444 16.7368C49.1474 21.0221 49.1459 25.309 49.1459 29.5943C49.1459 30.6301 49.1549 31.6644 49.1444 32.6987C49.1188 35.157 47.5371 36.704 45.048 36.7055C40.0564 36.7099 35.0662 36.7158 30.0746 36.6951C29.5744 36.6936 29.4482 36.8092 29.4708 37.3011C29.6089 40.4751 29.7231 43.6506 29.8223 46.8261C29.8343 47.198 29.9875 47.2366 30.2984 47.2321C31.368 47.2173 32.4375 47.2232 33.507 47.2292C34.171 47.2321 34.5525 47.5729 34.5405 48.1301C34.53 48.665 34.1574 48.9984 33.525 48.9984C27.5765 49.0014 21.628 49.0014 15.6795 48.9984C15.0126 48.9984 14.628 48.6532 14.6371 48.099C14.6461 47.5477 15.0306 47.2306 15.7066 47.2277C16.7776 47.2232 17.8471 47.2158 18.9167 47.2336C19.2336 47.2381 19.3268 47.1403 19.3373 46.8306C19.4439 43.6373 19.5596 40.4425 19.6933 37.2493C19.7098 36.821 19.6047 36.6951 19.151 36.6966C14.1789 36.7143 9.2038 36.6506 4.2332 36.7336C2.00401 36.7706 -0.041911 35.2162 0.000149119 32.5342C0.0632392 28.5259 0.0166727 24.5162 0.0166727 20.5065C0.0166727 16.4967 0.0136684 12.4514 0.0166727 8.42391C0.019677 6.46498 0.999076 5.05431 2.70702 4.50752C3.19521 4.35194 3.69543 4.31934 4.20466 4.31934C8.08921 4.3223 11.9738 4.31341 15.8583 4.33267C16.3195 4.33415 16.4787 4.23339 16.4456 3.76218C16.4126 3.26874 16.3826 2.76641 16.4832 2.2715C16.707 1.16756 17.5452 0.445923 18.6853 0.420733C19.7158 0.397024 20.7493 0.411842 21.7813 0.411842C26.6227 0.41036 31.4641 0.450369 36.304 0.391097C38.1562 0.36887 39.1145 1.56912 39.0409 3.07907C38.9793 4.31934 39.0304 4.32082 40.3177 4.32082C41.5375 4.32082 42.7572 4.30452 43.977 4.33119C44.351 4.34008 44.5508 4.21709 44.7235 3.90147C45.2523 2.92497 45.8216 1.97069 46.3519 0.995669C46.6898 0.371834 47.166 -0.020842 47.9036 0.00138489C48.6426 0.02213 49.1008 0.441478 49.3997 1.08013C51.5207 5.61739 53.6448 10.1532 55.7763 14.686C56.0768 15.3261 56.1053 15.9366 55.6502 16.5071H55.6517Z" fill="#5F266D"/>
<path id="Vector_3" d="M44.573 34.9098C44.3867 34.9172 44.199 34.932 44.0127 34.932C31.0402 34.932 18.0692 34.932 5.09662 34.932C4.92838 34.932 4.76014 34.9172 4.5919 34.9098C4.02409 34.5675 3.85885 34.0044 3.76271 33.4102C3.71915 33.1376 3.74018 32.8575 3.74018 32.5819C3.74018 24.5387 3.74018 16.497 3.74018 8.45383C3.74018 7.88037 3.72516 7.3084 3.99855 6.77644C4.12323 6.53194 4.04061 6.39562 3.76572 6.35709C3.63503 6.33931 3.50885 6.30078 3.42773 6.18372C3.63203 6.04739 3.86336 6.09629 4.08417 6.09629C8.0243 6.09333 11.9659 6.10074 15.9061 6.0874C16.3086 6.0874 16.4724 6.16001 16.4453 6.59566C16.4048 7.24024 16.4153 7.88926 16.4423 8.53533C16.4573 8.89096 16.3537 9.01247 15.9782 9.00506C14.8711 8.98135 13.764 8.99172 12.6569 8.99765C11.0812 9.00654 10.1378 9.93414 10.1363 11.49C10.1318 16.3311 10.1288 21.1721 10.1363 26.0116C10.1408 28.4773 11.8503 30.1725 14.3318 30.1755C20.6754 30.1829 27.0174 30.1873 33.361 30.1725C35.8741 30.1666 37.6256 28.9767 38.6215 26.7155C38.7522 26.4191 38.8709 26.3495 39.1983 26.4221C40.1432 26.634 40.9483 26.3272 41.5627 25.6086C42.1981 24.8647 42.2988 23.9993 41.9247 23.1132C41.5582 22.2464 41.1316 21.4018 40.735 20.5468C40.684 20.4371 40.6539 20.3186 40.5908 20.1363C41.1106 20.2697 41.5252 20.483 41.9848 20.5527C42.5661 20.6401 43.1129 20.5379 43.6161 20.2711C44.0428 20.0444 44.223 19.6695 44.0337 19.1968C43.849 18.7375 43.4494 18.4782 43.0063 18.656C42.129 19.0101 41.5056 18.5404 40.723 18.1566C42.1801 17.5032 43.5125 16.8067 45.0041 16.5C45.2685 16.3933 45.3361 16.58 45.3857 16.7637C45.4443 16.9786 45.4292 17.2038 45.4292 17.4246C45.4292 22.5694 45.4307 27.7142 45.4292 32.859C45.4292 33.6547 45.3211 34.4104 44.5745 34.9068L44.573 34.9098Z" fill="#FEE1E1"/>
<path id="Vector_4" d="M36.0138 10.5178C34.8962 11.1476 33.7531 11.5165 32.4057 11.4854C28.8621 11.3995 25.314 11.4558 21.7675 11.4588C21.5061 11.4588 21.2342 11.4602 20.9879 11.5284C20.5598 11.6469 20.3404 11.9626 20.366 12.4027C20.3915 12.8398 20.6379 13.1243 21.0825 13.2028C21.2838 13.2384 21.4941 13.2295 21.6999 13.2295C24.9836 13.2295 28.2673 13.2295 31.5495 13.2295C32.2434 13.2295 32.251 13.2325 32.0211 13.8444C31.6351 14.8728 31.6756 15.8982 32.0767 16.9592C30.5716 16.9592 29.128 16.9592 27.6844 16.9592C25.6025 16.9592 23.519 16.9636 21.437 16.9562C20.9323 16.9547 20.5462 17.1237 20.3885 17.6156C20.2022 18.195 20.6559 18.727 21.3454 18.7299C23.184 18.7388 25.0226 18.7329 26.8613 18.7344C28.8877 18.7344 30.917 18.6677 32.9389 18.7655C33.8252 18.8085 34.6904 19.2026 35.1201 20.108C35.437 20.7748 35.7299 21.452 36.0334 22.1247C36.2331 23.7858 36.4374 25.4499 35.5857 27.0176C35.3108 27.5244 34.9789 27.9852 34.4381 28.2564C34.1632 28.4105 33.8583 28.3986 33.5608 28.3986C28.6158 28.4031 23.6707 28.4016 18.7256 28.4016C18.6701 28.4016 18.6145 28.3868 18.5589 28.3794C18.5033 28.1764 18.619 28.0193 18.7181 27.8667C19.1658 27.1688 19.2844 26.4012 19.2844 25.5892C19.2784 18.1342 19.2799 10.6793 19.2844 3.22442C19.2844 2.88065 19.2108 2.51612 19.4617 2.21236C19.8913 2.20346 20.3209 2.18865 20.7505 2.18865C25.5964 2.18717 30.4424 2.18865 35.2883 2.18865C35.5301 2.18865 35.7735 2.20495 36.0153 2.21384C36.2091 2.42573 36.1956 2.68949 36.1971 2.94584C36.2016 5.22633 36.2016 7.50829 36.1971 9.78877C36.1971 10.0451 36.2106 10.3089 36.0153 10.5208L36.0138 10.5178Z" fill="#FEE1E1"/>
<path id="Vector_5" d="M52.3316 14.8626C51.0893 14.7115 49.8651 14.4507 48.6078 14.3736C46.6415 14.2536 44.7713 14.6033 42.9477 15.2775C42.4219 15.4716 41.8977 15.6776 41.393 15.9177C41.094 16.0599 40.9829 15.9814 40.8567 15.7072C40.2408 14.3618 39.6174 13.0193 38.9655 11.6901C38.7882 11.3285 38.8769 11.1922 39.2209 11.0322C41.082 10.1698 42.8185 9.12214 44.2125 7.59885C45.3631 6.34229 46.2299 4.89606 47.0726 3.43353C47.397 3.3135 47.4526 3.5906 47.5337 3.76693C48.9217 6.7646 50.3427 9.74597 51.7307 12.7436C52.0026 13.3304 52.3241 13.8935 52.5359 14.5055C52.593 14.6685 52.7387 14.9337 52.3316 14.8626Z" fill="#FE4A73"/>
<path id="Vector_6" d="M16.4321 18.7312C16.4321 21.2073 16.4396 23.6834 16.4276 26.1594C16.4231 27.1523 15.8252 27.9598 14.9134 28.2843C14.0692 28.5837 13.1003 28.3362 12.5055 27.6635C12.1194 27.2278 11.9377 26.7107 11.9377 26.1372C11.9347 21.2592 11.9377 16.3811 11.9302 11.5015C11.9302 10.9888 12.139 10.7562 12.6677 10.7636C13.7373 10.7769 14.8083 10.7873 15.8763 10.7577C16.3119 10.7458 16.4471 10.857 16.4426 11.303C16.4201 13.7791 16.4321 16.2551 16.4321 18.7312Z" fill="#FEE1E1"/>
<path id="Vector_7" d="M3.42806 6.18228C3.74501 6.20155 4.19566 6.10227 4.34437 6.26674C4.56068 6.5068 4.11604 6.76759 4.04845 7.06099C3.98536 7.33067 3.91475 7.58999 3.91475 7.87301C3.91926 16.2926 3.92377 24.7121 3.91025 33.1317C3.91025 33.8296 4.27527 34.3512 4.59222 34.9098C4.04995 34.9424 3.50467 34.9988 2.99394 34.7439C2.14222 34.3216 1.81626 33.6103 1.81776 32.7049C1.82226 29.565 1.81776 26.4266 1.81776 23.2866C1.81776 18.3004 1.81626 13.3142 1.81926 8.3294C1.81926 7.14545 2.39008 6.39714 3.42656 6.18228H3.42806Z" fill="#FEEEED"/>
<path id="Vector_8" d="M21.5049 36.8108C21.6145 36.6181 21.8038 36.6922 21.9585 36.6922C23.7025 36.6893 25.4465 36.7056 27.189 36.6878C27.5991 36.6833 27.6787 36.833 27.6877 37.202C27.7508 39.6143 27.8079 42.0282 27.9326 44.4376C27.9731 45.2289 27.9942 46.0201 28.0257 46.8099C28.0377 47.1196 27.9341 47.2337 27.6126 47.2293C26.1315 47.213 24.6504 47.2145 23.1693 47.2085C22.8433 46.598 22.9695 45.9357 23.0341 45.3118C23.1723 43.9871 23.1002 42.6594 23.1993 41.3347C23.2804 40.2352 23.2999 39.1268 23.333 38.0214C23.363 36.9871 23.3405 36.9901 22.31 36.9738C22.0336 36.9693 21.7422 37.0182 21.5064 36.8093L21.5049 36.8108Z" fill="#86818D"/>
<path id="Vector_9" d="M44.5733 34.9098C45.1832 34.1377 45.2673 33.2531 45.2613 32.3048C45.2342 27.2518 45.2507 22.1974 45.2417 17.143C45.2417 16.9193 45.398 16.5992 45.0014 16.5029C45.5662 16.2969 46.161 16.2466 46.7514 16.1651C47.2156 16.1013 47.3613 16.2303 47.3583 16.7104C47.3372 19.8103 47.3477 22.9102 47.3477 26.0116C47.3477 28.1335 47.3477 30.2554 47.3477 32.3774C47.3477 34.3141 46.5576 35.0342 44.5718 34.9083L44.5733 34.9098Z" fill="#FECECE"/>
<path id="Vector_10" d="M19.4603 2.21081C19.4603 10.0495 19.4543 17.8897 19.4678 25.7284C19.4693 26.7301 19.2034 27.6073 18.559 28.3778H17.5781C18.3397 27.2887 18.2376 26.1151 18.2376 24.9564C18.2376 17.7385 18.2376 10.5207 18.2376 3.30289C18.2376 2.17525 18.2916 2.12635 19.4603 2.21081Z" fill="#FEEDEC"/>
<path id="Vector_11" d="M21.5047 36.811C22.0289 36.808 22.5532 36.8199 23.0759 36.7962C23.4289 36.7799 23.5326 36.9221 23.5175 37.2496C23.4439 38.9166 23.4544 40.5881 23.2952 42.2507C23.2907 42.3055 23.2892 42.3618 23.2907 42.4166C23.3628 44.017 23.127 45.6099 23.169 47.2102C22.6253 47.2147 22.083 47.2132 21.5392 47.2295C21.2688 47.2369 21.1216 47.1761 21.1351 46.865C21.2117 45.0987 21.2763 43.3309 21.3409 41.5631C21.398 39.9791 21.4506 38.395 21.5047 36.811Z" fill="#A3A3A4"/>
<path id="Vector_12" d="M34.6633 13.188C35.3573 12.7064 36.1835 12.4856 36.9195 12.0841C37.1464 11.9596 37.2125 12.1226 37.2876 12.2797C37.947 13.6859 38.6049 15.0921 39.2674 16.4969C39.3425 16.6554 39.4191 16.7992 39.1848 16.8984C38.4322 17.2185 37.7232 17.6393 36.921 17.8468C35.1094 17.4423 33.9363 15.2003 34.5912 13.3925C34.6167 13.3243 34.6558 13.2606 34.6648 13.1865L34.6633 13.188Z" fill="#86818D"/>
<path id="Vector_13" d="M52.3318 14.8623C52.6097 14.8194 52.467 14.6623 52.4129 14.5437C51.818 13.2561 51.2217 11.9699 50.6223 10.6852C49.5633 8.41504 48.5043 6.14493 47.4378 3.87779C47.3567 3.7059 47.3326 3.47029 47.0728 3.43177C47.3101 2.99908 47.5459 2.56492 47.8479 2.01221C49.9298 6.45167 51.9607 10.7844 54.0262 15.1868C53.3938 15.1409 52.8575 15.0298 52.3318 14.8609V14.8623Z" fill="#E92A6A"/>
<path id="Vector_14" d="M36.0137 10.5177C36.0137 7.74818 36.0137 4.98019 36.0137 2.21071C36.2195 2.2033 36.4238 2.19293 36.6296 2.18701C37.0277 2.17515 37.2259 2.3826 37.2259 2.7575C37.2319 5.07947 37.2259 7.40144 37.2335 9.72193C37.2335 9.9442 37.1313 10.0539 36.936 10.1309C36.6251 10.2524 36.3201 10.3887 36.0122 10.5177H36.0137Z" fill="#FDCDCE"/>
<path id="Vector_15" d="M43.143 6.09482C42.0404 7.37953 40.7861 8.2612 39.4011 8.98284C39.0917 9.14435 39.0211 9.05841 39.0256 8.74575C39.0391 7.97225 39.0346 7.19727 39.0271 6.42378C39.0256 6.20151 39.0782 6.08889 39.3365 6.09185C40.5668 6.10074 41.7956 6.0963 43.1415 6.0963L43.143 6.09482Z" fill="#FEE1E1"/>
<path id="Vector_16" d="M40.3041 24.0718C40.3266 24.3756 40.1463 24.5579 39.894 24.6705C39.6161 24.7949 39.3742 24.6927 39.1985 24.4704C39.0858 24.3282 39.0062 24.1563 38.9281 23.9903C38.3317 22.7219 37.7474 21.4476 37.1375 20.1866C36.9663 19.8339 36.9317 19.6739 37.4139 19.5746C38.2026 19.4116 38.189 19.3716 38.5255 20.0947C39.0543 21.2312 39.5935 22.3648 40.1268 23.4984C40.2124 23.6821 40.3191 23.8585 40.3041 24.0718Z" fill="#FE4A73"/>
<path id="Vector_17" d="M34.438 28.2547C35.2041 27.4516 35.853 26.5684 35.9642 25.4378C36.0423 24.6525 36.0018 23.8553 36.0138 23.0625C36.0183 22.7484 36.0258 22.4357 36.0318 22.1216C36.4013 22.8847 36.7694 23.6478 37.1434 24.408C37.2966 24.7192 37.1855 25.0259 37.1374 25.3312C36.9076 26.7803 35.838 27.9317 34.4365 28.2533L34.438 28.2547Z" fill="#FDCECE"/>
<path id="Vector_18" d="M34.6635 13.188C34.8423 13.3213 34.6875 13.4621 34.6605 13.5881C34.2865 15.347 34.9745 16.7888 36.5983 17.6349C36.7109 17.6941 36.8116 17.7771 36.9182 17.8482C35.8367 18.1787 34.5884 17.6971 33.971 16.7102C33.3191 15.6685 33.4423 14.3957 34.2865 13.511C34.4006 13.3925 34.5373 13.2947 34.6635 13.188Z" fill="#A3A3A4"/>
<path id="Vector_19" d="M4.57259 24.5252C4.57259 23.5102 4.56658 22.4951 4.57409 21.4801C4.5786 20.8385 4.88804 20.4814 5.42881 20.4636C5.98761 20.4443 6.36615 20.8237 6.36915 21.4682C6.37967 23.5176 6.37967 25.5654 6.36915 27.6147C6.36615 28.2623 5.99662 28.6446 5.44083 28.6312C4.89855 28.6194 4.5786 28.2593 4.57409 27.6266C4.56658 26.5923 4.57259 25.5595 4.57259 24.5252Z" fill="#5F266D"/>
<path id="Vector_20" d="M4.57275 31.3234C4.57275 30.6107 4.87469 30.2299 5.444 30.218C6.02984 30.2062 6.37683 30.6226 6.37533 31.3383C6.37533 32.0095 6.02833 32.4452 5.48456 32.4585C4.91675 32.4718 4.57275 32.0436 4.57275 31.3234Z" fill="#60276D"/>
<path id="Vector_21" d="M27.7039 5.97926C29.7664 5.97926 31.8288 5.97777 33.8913 5.97926C34.6303 5.97926 35.0074 6.27413 35.0149 6.84462C35.0224 7.41363 34.6273 7.75 33.9198 7.75148C29.7574 7.75445 25.5949 7.75445 21.4325 7.75148C20.8121 7.75148 20.4306 7.46402 20.3645 6.98391C20.2863 6.41935 20.6979 5.9837 21.3484 5.98222C23.4679 5.97629 25.5859 5.97926 27.7054 5.97926H27.7039Z" fill="#5F266D"/>
<path id="Vector_22" d="M27.7385 22.4761C29.819 22.4761 31.8995 22.4731 33.9815 22.4776C34.6199 22.4776 34.9744 22.7532 35.0119 23.257C35.0465 23.7208 34.8392 24.0379 34.3855 24.1831C34.2804 24.2172 34.1662 24.2439 34.0566 24.2439C29.8205 24.2468 25.583 24.2513 21.3469 24.2394C20.7295 24.2379 20.3525 23.8467 20.363 23.3281C20.3735 22.8021 20.7476 22.4776 21.3845 22.4761C23.5025 22.4716 25.6205 22.4746 27.74 22.4746L27.7385 22.4761Z" fill="#5F266D"/>
</g>
<defs>
<clipPath id="clip0_679_16708">
<rect width="56" height="49" fill="white"/>
</clipPath>
</defs>
</svg>
