<svg width="36" height="36" viewBox="0 0 36 36" fill="none" xmlns="http://www.w3.org/2000/svg">
<g id="Strategic planning" clip-path="url(#clip0_1031_4390)">
<path id="Vector" d="M13.0644 29.0703C12.5076 30.7409 11.9634 32.3714 11.4202 34.001C11.2742 34.4379 11.1262 34.8738 10.9831 35.3107C10.8925 35.5867 10.7212 35.7213 10.4175 35.7194C8.84917 35.7115 7.28087 35.7194 5.71257 35.7145C5.25405 35.7135 5.08369 35.4677 5.23166 35.024C5.86541 33.1165 6.50499 31.2109 7.13679 29.3024C7.18839 29.1474 7.2429 29.0645 7.43176 29.0654C9.29114 29.0732 11.1505 29.0703 13.0644 29.0703Z" fill="white"/>
<path id="Vector_2" d="M14.6217 3.36292C14.647 3.06158 14.6178 2.75536 14.6402 2.45304C14.7005 1.63679 15.3557 0.999968 16.1734 0.988265C17.3027 0.972662 18.4329 0.972662 19.5631 0.988265C20.3672 0.999968 21.0146 1.62118 21.0954 2.41696C21.1785 3.24459 20.8134 3.65841 20.0002 3.65841L17.8498 3.65841C16.8782 3.65841 15.9057 3.65159 14.9341 3.66329C14.7054 3.66524 14.6012 3.61745 14.6217 3.36292Z" fill="white"/>
<path id="Vector_3" d="M22.987 32.7597C23.1155 33.1079 22.9939 33.1274 22.6979 33.1255C21.0809 33.1147 19.464 33.1206 17.848 33.1206C16.232 33.1206 14.614 33.1147 12.997 33.1255C12.7235 33.1264 12.63 33.0981 12.741 32.791C13.0545 31.925 13.3426 31.0512 13.6181 30.1725C13.6872 29.9511 13.7933 29.9053 14.0046 29.9053C16.5814 29.9121 19.1583 29.9121 21.7361 29.9053C21.9503 29.9043 22.0505 29.9579 22.1187 30.1764C22.3913 31.0434 22.6746 31.9074 22.987 32.7597Z" fill="white"/>
<path id="Vector_4" d="M30.4901 34.9597C30.6682 35.4932 30.5066 35.7155 29.943 35.7155C28.4117 35.7165 26.8794 35.7106 25.3481 35.7204C25.0317 35.7223 24.8477 35.5985 24.7504 35.3049C24.0689 33.2589 23.3845 31.2139 22.7021 29.1689C22.6953 29.1474 22.7021 29.1221 22.706 29.0704H24.8477C25.9653 29.0704 27.0838 29.0762 28.2024 29.0655C28.4234 29.0635 28.5373 29.1045 28.6151 29.3434C29.2294 31.2188 29.8641 33.0883 30.4901 34.9597Z" fill="white"/>
<path id="Vector_5" d="M3.1602 6.39391C3.15339 5.26558 3.87962 4.51857 5.0225 4.52149C13.5854 4.54392 22.1473 4.54392 30.7102 4.52149C31.8579 4.51857 32.5802 5.26949 32.5744 6.39196C32.5462 11.9614 32.5588 17.5309 32.5695 23.1004C32.5705 23.4241 32.4907 23.4973 32.1714 23.4963C27.4042 23.4846 22.636 23.4885 17.8678 23.4885C13.0996 23.4885 8.33239 23.4856 3.56518 23.4963C3.24879 23.4973 3.1641 23.428 3.16507 23.1023C3.17675 17.5329 3.18941 11.9634 3.1602 6.39391Z" fill="white"/>
<path id="Vector_6" d="M35.2171 26.5702C35.0564 27.4928 34.3068 28.1608 33.3752 28.19C32.8154 28.2066 32.2557 28.1939 31.6969 28.1939L17.8674 28.1939C12.7468 28.1939 7.62622 28.1959 2.50563 28.193C1.34425 28.192 0.482708 27.3465 0.499258 26.2416C0.51386 25.2946 1.23522 24.4969 2.17951 24.3906C2.34793 24.3711 2.51926 24.3652 2.68865 24.3652C12.8081 24.3643 22.9276 24.3643 33.0481 24.3643C33.3888 24.3643 33.7276 24.3769 34.0498 24.5105C34.8637 24.848 35.3641 25.7296 35.2171 26.5702Z" fill="white"/>
<path id="Vector_7" d="M32.5695 23.1004C32.5705 23.4241 32.4907 23.4973 32.1714 23.4963C27.4042 23.4846 22.636 23.4885 17.8678 23.4885C13.0996 23.4885 8.33239 23.4856 3.56518 23.4963C3.24879 23.4973 3.1641 23.428 3.16507 23.1023C3.17675 17.5329 3.18941 11.9634 3.1602 6.39391C3.15339 5.26558 3.87962 4.51857 5.0225 4.52149C13.5854 4.54392 22.1473 4.54392 30.7102 4.52149C31.8579 4.51857 32.5802 5.26949 32.5744 6.39196C32.5462 11.9614 32.5588 17.5309 32.5695 23.1004Z" fill="#2140A4"/>
<path id="Vector_8" d="M35.2171 26.5702C35.0564 27.4928 34.3068 28.1608 33.3752 28.19C32.8154 28.2066 32.2557 28.1939 31.6969 28.1939L17.8674 28.1939C12.7468 28.1939 7.62622 28.1959 2.50563 28.193C1.34425 28.192 0.482708 27.3465 0.499258 26.2416C0.51386 25.2946 1.23522 24.4969 2.17951 24.3906C2.34793 24.3711 2.51926 24.3652 2.68865 24.3652C12.8081 24.3643 22.9276 24.3643 33.0481 24.3643C33.3888 24.3643 33.7276 24.3769 34.0498 24.5105C34.8637 24.848 35.3641 25.7296 35.2171 26.5702Z" fill="#2140A4"/>
<path id="Vector_9" d="M29.943 35.7155C28.4117 35.7165 26.8794 35.7106 25.3481 35.7204C25.0317 35.7223 24.8477 35.5985 24.7504 35.3049C24.0689 33.2589 23.3845 31.2139 22.7021 29.1689C22.6953 29.1474 22.7021 29.1221 22.706 29.0704H24.8477C25.9653 29.0704 27.0838 29.0762 28.2024 29.0655C28.4234 29.0635 28.5373 29.1045 28.6151 29.3434C29.2294 31.2188 29.8641 33.0883 30.4901 34.9597C30.6682 35.4932 30.5066 35.7155 29.943 35.7155Z" fill="#2140A4"/>
<path id="Vector_10" d="M13.0644 29.0703C12.5076 30.7409 11.9634 32.3714 11.4202 34.001C11.2742 34.4379 11.1262 34.8738 10.9831 35.3107C10.8925 35.5867 10.7212 35.7213 10.4175 35.7194C8.84917 35.7115 7.28087 35.7194 5.71257 35.7145C5.25405 35.7135 5.08369 35.4677 5.23166 35.024C5.86541 33.1165 6.50499 31.2109 7.13679 29.3024C7.18839 29.1474 7.2429 29.0645 7.43176 29.0654C9.29114 29.0732 11.1505 29.0703 13.0644 29.0703Z" fill="#2140A4"/>
<path id="Vector_11" d="M22.6979 33.1255C21.0809 33.1147 19.464 33.1206 17.848 33.1206C16.232 33.1206 14.614 33.1147 12.997 33.1255C12.7235 33.1264 12.63 33.0981 12.741 32.791C13.0545 31.925 13.3426 31.0512 13.6181 30.1725C13.6872 29.9511 13.7933 29.9053 14.0046 29.9053C16.5814 29.9121 19.1583 29.9121 21.7361 29.9053C21.9503 29.9043 22.0505 29.9579 22.1187 30.1764C22.3913 31.0434 22.6746 31.9074 22.987 32.7597C23.1155 33.1079 22.9939 33.1274 22.6979 33.1255Z" fill="#2140A4"/>
<path id="Vector_12" d="M20.0002 3.65841L17.8498 3.65841C16.8782 3.65841 15.9057 3.65159 14.9341 3.66329C14.7054 3.66524 14.6012 3.61745 14.6217 3.36292C14.647 3.06158 14.6178 2.75536 14.6402 2.45304C14.7005 1.63679 15.3557 0.999968 16.1734 0.988265C17.3027 0.972662 18.4329 0.972662 19.5631 0.988265C20.3672 0.999968 21.0146 1.62118 21.0954 2.41696C21.1785 3.24459 20.8134 3.65841 20.0002 3.65841Z" fill="#2140A4"/>
<path id="Vector_13" d="M20.2011 18.6643C21.8551 18.6643 23.509 18.6604 25.163 18.6691C25.4054 18.6701 25.5359 18.6311 25.6274 18.361C25.9769 17.3399 27.0117 16.7714 28.0962 16.9606C29.1057 17.1371 29.8611 18.0616 29.8562 19.1168C29.8514 20.169 29.092 21.0838 28.0757 21.2603C27.0068 21.4456 25.9642 20.8546 25.6196 19.8296C25.5349 19.5761 25.4161 19.5361 25.1825 19.5361C21.9349 19.5429 18.6883 19.542 15.4407 19.54C13.9921 19.54 13.1978 18.9666 12.749 17.5769C12.6886 17.3887 12.5514 17.3848 12.4248 17.3419C11.4406 17.0015 10.8701 16.1521 10.9256 15.0989C10.9743 14.1617 11.684 13.3484 12.6419 13.128C13.702 12.8851 14.8011 13.4976 15.1603 14.5557C15.2363 14.78 15.3278 14.8453 15.5614 14.8434C17.009 14.8307 18.4556 14.8512 19.9032 14.8307C21.0909 14.8141 22.0838 14.0876 22.4664 13.008C22.8441 11.944 22.5326 10.7728 21.6798 10.0248C21.0334 9.45723 20.2644 9.31875 19.4369 9.35678C19.2909 9.36361 19.2704 9.44065 19.2286 9.5489C18.845 10.5495 18.076 11.1171 17.1258 11.1112C16.1728 11.1054 15.4242 10.5514 15.0406 9.53037C14.9715 9.34606 14.8712 9.36166 14.7417 9.36166C13.3185 9.36166 11.8962 9.36946 10.4729 9.35386C10.2237 9.35093 10.1828 9.46796 10.1157 9.6552C9.81487 10.5056 9.01465 11.08 8.12001 11.1102C7.25554 11.1395 6.41347 10.606 6.05717 9.80246C5.55971 8.68388 6.09611 7.35856 7.23218 6.89338C8.38383 6.42235 9.69902 7.00163 10.1137 8.18262C10.1955 8.41472 10.2831 8.49567 10.5372 8.49274C11.9108 8.47714 13.2854 8.48104 14.66 8.48982C14.879 8.49079 14.9939 8.45666 15.0747 8.21675C15.3852 7.29225 16.1922 6.73345 17.1482 6.73735C18.0857 6.74125 18.8908 7.29615 19.1867 8.20993C19.2831 8.50932 19.4515 8.49567 19.6715 8.48689C21.6039 8.4079 22.9249 9.66983 23.3397 11.0283C24.0561 13.3776 22.3418 15.6762 19.8321 15.7103C18.4099 15.7298 16.9866 15.7191 15.5634 15.7084C15.3356 15.7064 15.2333 15.7601 15.1564 15.9912C14.9403 16.6378 14.4886 17.0893 13.8471 17.3146C13.5969 17.4023 13.5891 17.4999 13.6913 17.7017C14.0126 18.3385 14.5256 18.6633 15.2372 18.6643C16.8912 18.6672 18.5452 18.6643 20.1992 18.6652L20.2011 18.6643Z" fill="white"/>
<path id="Vector_14" d="M17.1297 7.61134C17.8647 7.60841 18.4517 8.18964 18.4498 8.92008C18.4488 9.64077 17.8404 10.2435 17.1239 10.2347C16.4142 10.2259 15.8321 9.64272 15.8253 8.93276C15.8184 8.19842 16.3948 7.61426 17.1297 7.61134Z" fill="#2140A4"/>
<path id="Vector_15" d="M8.06134 7.61133C8.79438 7.61133 9.38335 8.19938 9.37653 8.92592C9.37069 9.63198 8.78659 10.222 8.07983 10.2347C7.35945 10.2473 6.75977 9.65538 6.75588 8.9269C6.75199 8.18573 7.32148 7.61133 8.06036 7.61133H8.06134Z" fill="#2140A4"/>
<path id="Vector_16" d="M11.7979 15.2493C11.8047 14.513 12.3858 13.9523 13.1315 13.962C13.8422 13.9718 14.4205 14.5579 14.4205 15.2688C14.4205 15.9846 13.8091 16.5912 13.0936 16.5844C12.3673 16.5776 11.792 15.9846 11.7988 15.2484L11.7979 15.2493Z" fill="#2140A4"/>
<path id="Vector_17" d="M27.6329 20.4108C26.9193 20.3932 26.3478 19.8012 26.3585 19.0923C26.3693 18.3677 26.9777 17.7757 27.6961 17.7913C28.4282 17.8069 28.9919 18.3999 28.9782 19.1381C28.9646 19.8724 28.3747 20.4293 27.6319 20.4108H27.6329Z" fill="#2140A4"/>
</g>
<defs>
<clipPath id="clip0_1031_4390">
<rect width="34.7431" height="34.7431" fill="white" transform="translate(0.499023 0.976562)"/>
</clipPath>
</defs>
</svg>
