<svg width="46" height="45" viewBox="0 0 46 45" fill="none" xmlns="http://www.w3.org/2000/svg">
<g id="magnifier" clip-path="url(#clip0_805_7001)">
<path id="Vector" d="M0.619629 16.2327C0.664814 16.2744 0.66481 16.3274 0.66394 16.3796C0.66394 16.3874 0.663074 16.3952 0.663074 16.403C0.663074 16.41 0.66394 16.4169 0.66394 16.4239C0.65525 16.5064 0.69001 16.5968 0.619629 16.6672L0.619629 17.0147C0.692619 17.2458 0.692619 17.4778 0.619629 17.7098L0.619629 18.2303C0.672634 18.279 0.662205 18.3433 0.66394 18.4041L0.66394 18.4319C0.66394 18.4849 0.664814 18.537 0.619629 18.5779L0.619629 18.9254C0.729111 20.2392 0.968933 21.5278 1.39818 22.7747C2.33313 25.4934 3.83115 27.8638 5.94001 29.8171C8.49115 32.1788 11.4941 33.6681 14.9376 34.2024C18.4559 34.7498 21.8282 34.2172 25.0293 32.6654C26.1363 32.1284 27.1798 31.475 28.1408 30.6956C28.5406 30.3706 28.5536 30.3836 28.9229 30.7529C29.784 31.6114 30.6442 32.4707 31.5018 33.3318C31.8459 33.6776 31.8442 33.7046 31.4931 34.0599C31.1377 34.4205 30.7711 34.7716 30.4218 35.1374C30.1124 35.4615 30.1185 35.5683 30.427 35.9011C30.4861 35.9654 30.5486 36.0254 30.6103 36.0871C33.4039 38.8806 36.1983 41.6741 38.9902 44.4694C39.1552 44.6336 39.3212 44.7917 39.5324 44.896L39.6192 44.896C39.7991 44.8004 39.9494 44.6701 40.0937 44.5258C41.6334 42.9818 43.1757 41.4395 44.7207 39.8989C44.8649 39.7547 44.9952 39.6044 45.0908 39.4245L45.0908 39.3376C44.9909 39.1421 44.8501 38.9814 44.6955 38.8267C41.8802 36.015 39.0684 33.2015 36.2548 30.3888C35.7291 29.864 35.6909 29.8658 35.1504 30.4045C34.8428 30.7103 34.5387 31.0205 34.2285 31.3246C33.8992 31.647 33.8688 31.6479 33.5325 31.3133C32.6714 30.4557 31.8129 29.5955 30.9544 28.7353C30.5738 28.3539 30.5773 28.3469 30.9153 27.9186C32.621 25.7559 33.7914 23.3351 34.2841 20.6241C35.2512 15.2969 34.0234 10.5101 30.5434 6.35592C27.8671 3.16097 24.428 1.24418 20.3154 0.546451C19.92 0.479546 19.5125 0.522122 19.1206 0.424805L18.8599 0.424805C18.8122 0.476939 18.7479 0.467381 18.6879 0.469119L18.6557 0.469119C18.6036 0.469119 18.5523 0.469119 18.5124 0.424805L16.7754 0.424805C16.7259 0.478677 16.6598 0.466512 16.5982 0.469119C16.5955 0.46825 16.5921 0.469119 16.5895 0.469119L16.3983 0.469119C16.3462 0.469988 16.2949 0.469119 16.2541 0.424805L16.0803 0.424805C15.1801 0.524728 14.2773 0.587289 13.3927 0.821892C10.8025 1.50745 8.48854 2.69524 6.45267 4.44608C4.70441 5.95014 3.32457 7.7366 2.29403 9.78634C1.51635 11.3321 0.976753 12.9656 0.739536 14.6895C0.68132 15.1153 0.709995 15.5498 0.619629 15.972L0.619629 16.2327Z" fill="#A83595"/>
<path id="Vector_2" d="M8.52808 42.6726C8.51678 43.4138 8.52286 44.1558 8.52286 44.897C8.58803 44.8275 8.61758 44.7493 8.63148 44.6667C8.64625 44.5816 8.64277 44.493 8.64364 44.4052C8.64625 43.9125 8.64278 43.4207 8.64538 42.9289C8.64625 42.7899 8.62192 42.6422 8.72445 42.531C8.73749 42.5171 8.75226 42.504 8.76877 42.491C9.42567 42.3494 10.0878 42.438 10.7473 42.4424C10.9862 42.4441 10.9897 42.6518 10.9923 42.8264C11.0019 43.3017 10.9932 43.777 10.9975 44.2523C10.9984 44.42 10.9871 44.5885 11.0384 44.7519C11.0392 44.7571 11.041 44.7615 11.0427 44.7667C11.0497 44.7814 11.0575 44.7953 11.0662 44.8092C11.0844 44.8405 11.1053 44.8692 11.1287 44.897C11.1253 44.8683 11.1209 44.8388 11.1166 44.8092C11.1218 44.0481 11.1218 43.2869 11.1366 42.5258C11.14 42.3372 11.0844 42.2799 10.8941 42.2834C10.1338 42.2981 9.37267 42.2973 8.61149 42.3025C8.42555 42.3885 8.52982 42.5518 8.52808 42.6726Z" fill="#FEFEFE"/>
<path id="Vector_3" d="M5.93988 29.8174C8.49102 32.1791 11.494 33.6684 14.9375 34.2028C18.4558 34.7502 21.828 34.2176 25.0291 32.6657C26.1361 32.1287 27.1797 31.4753 28.1407 30.6959C28.5404 30.3709 28.5535 30.384 28.9227 30.7533C29.7838 31.6117 30.6441 32.4711 31.5017 33.3321C31.8458 33.678 31.844 33.7049 31.493 34.0603C31.1376 34.4209 30.7709 34.7719 30.4216 35.1377C30.1123 35.4618 30.1184 35.5687 30.4268 35.9015C30.4859 35.9658 30.5485 36.0257 30.6102 36.0874C33.4038 38.8809 36.1982 41.6745 38.99 44.4697C39.1551 44.6339 39.3211 44.7921 39.5322 44.8963C39.4401 44.7903 39.3541 44.6782 39.255 44.5792C36.3398 41.6623 33.4272 38.7437 30.5016 35.8372C30.2487 35.5869 30.2192 35.4557 30.4964 35.2081C30.9595 34.7954 31.374 34.327 31.8258 33.8995C32.0065 33.7284 32.0013 33.6319 31.8249 33.4581C30.804 32.4537 29.7856 31.4458 28.7898 30.4161C28.563 30.1824 28.4518 30.2953 28.2763 30.4396C26.0327 32.2799 23.4877 33.5094 20.6315 34.0064C15.6891 34.8675 11.1742 33.797 7.19981 30.7246C3.64941 27.9806 1.55533 24.3338 0.81501 19.9094C0.760269 19.5801 0.808926 19.229 0.619503 18.9258C0.728985 20.2396 0.968807 21.5281 1.39805 22.775C2.33301 25.4938 3.83102 27.8642 5.93988 29.8174Z" fill="#FEFEFE"/>
<path id="Vector_4" d="M3.44706 32.4017C3.44011 32.049 3.5887 31.9073 3.93801 31.916C4.41417 31.9291 4.89208 31.923 5.36824 31.9186C5.66194 31.916 5.78359 32.0438 5.78098 32.3357C5.7775 32.8701 5.76881 33.4053 5.78619 33.9397C5.80096 34.3959 5.9035 34.5001 6.35707 34.5175C6.87668 34.5375 7.39803 34.5297 7.91765 34.5219C8.23915 34.5175 8.39902 34.6313 8.3886 34.9746C8.37556 35.4507 8.37556 35.9286 8.3886 36.4056C8.39902 36.7489 8.23915 36.8618 7.91765 36.8575C7.39803 36.8505 6.87668 36.8418 6.35707 36.8618C5.9035 36.8801 5.80096 36.9843 5.78619 37.4396C5.76881 37.974 5.7775 38.5092 5.78098 39.0445C5.78359 39.3364 5.66194 39.4642 5.36824 39.4607C4.8773 39.4563 4.3855 39.4563 3.89456 39.4616C3.58609 39.4642 3.44707 39.3338 3.4488 39.021C3.45141 38.5006 3.46184 37.9801 3.44359 37.4596C3.42621 36.9817 3.32194 36.8748 2.84404 36.8618C2.25143 36.8453 1.65796 36.8531 1.06536 36.8592C0.905481 36.8609 0.747341 36.8775 0.61961 36.993C1.3999 36.9913 2.18105 37.0017 2.96134 36.9835C3.23157 36.9765 3.33498 37.033 3.32368 37.331C3.29935 37.9801 3.32629 38.6318 3.31151 39.2817C3.30543 39.5206 3.36539 39.6067 3.61911 39.6006C4.28296 39.5832 4.94856 39.5841 5.61328 39.5997C5.85657 39.6058 5.93391 39.5389 5.92783 39.2904C5.91132 38.6257 5.93304 37.9601 5.91653 37.2954C5.91045 37.0504 5.9817 36.9774 6.2276 36.9835C6.89232 37 7.55792 36.9782 8.22264 36.9948C8.47028 37.0008 8.53892 36.9252 8.53284 36.6819C8.5172 36.0025 8.51981 35.323 8.53197 34.6435C8.53632 34.4332 8.47202 34.375 8.26521 34.3785C7.58572 34.3907 6.90536 34.3724 6.22673 34.3889C5.97735 34.395 5.91132 34.3159 5.91653 34.0735C5.93217 33.4088 5.91045 32.7432 5.92783 32.0785C5.93478 31.8265 5.85223 31.7666 5.61328 31.7727C4.94856 31.7883 4.28296 31.7892 3.61824 31.7718C3.36626 31.7657 3.30543 31.8483 3.31065 32.0881C3.32629 32.738 3.30022 33.3897 3.32368 34.0396C3.33411 34.3342 3.23505 34.3959 2.96134 34.3898C2.18105 34.3733 1.3999 34.3854 0.61961 34.3872C0.734307 34.4906 0.875939 34.5158 1.02279 34.5184C1.64406 34.5279 2.26621 34.5375 2.88661 34.5158C3.31586 34.5001 3.421 34.3924 3.44098 33.9632C3.46445 33.4436 3.45575 32.9222 3.44706 32.4017Z" fill="#FEFEFE"/>
<path id="Vector_5" d="M42.3503 15.5269C42.3572 15.8796 42.2086 16.0221 41.8593 16.0126C41.3831 15.9995 40.9052 16.0056 40.4282 16.01C40.1345 16.0135 40.0137 15.8857 40.0155 15.5929C40.0198 15.0585 40.0285 14.5233 40.0111 13.9889C39.9964 13.5327 39.8938 13.4285 39.4402 13.4111C38.9198 13.3911 38.3993 13.3989 37.8788 13.4068C37.5573 13.4111 37.3983 13.2973 37.4079 12.9541C37.4218 12.4779 37.4218 12 37.4079 11.523C37.3983 11.1798 37.5573 11.0668 37.8788 11.0711C38.3993 11.0781 38.9198 11.0868 39.4402 11.0668C39.8938 11.0494 39.9964 10.9452 40.0111 10.489C40.0285 9.95461 40.0198 9.41937 40.0155 8.88499C40.0137 8.59217 40.1345 8.46445 40.4282 8.46705C40.92 8.47227 41.4118 8.47227 41.9028 8.46792C42.2104 8.46445 42.3503 8.59391 42.3485 8.90758C42.345 9.42806 42.3355 9.94853 42.3537 10.4681C42.3711 10.946 42.4762 11.0538 42.9533 11.0668C43.5163 11.0833 44.0811 11.0764 44.6442 11.0694C44.8049 11.0677 44.9631 11.0512 45.0908 10.9356C44.3244 10.9356 43.5572 10.9252 42.7908 10.9408C42.5466 10.9452 42.4728 10.8783 42.4797 10.6306C42.4962 9.96591 42.4745 9.30033 42.491 8.63475C42.4971 8.39059 42.4293 8.31673 42.1817 8.32368C41.517 8.34019 40.8505 8.34019 40.1858 8.32368C39.9416 8.3176 39.8678 8.38538 39.8738 8.63301C39.8912 9.29772 39.8686 9.96417 39.8851 10.6289C39.8912 10.873 39.8234 10.9469 39.5758 10.9408C38.9111 10.9234 38.2446 10.946 37.5799 10.9295C37.3357 10.9234 37.2619 10.9912 37.268 11.2388C37.2853 11.9183 37.2819 12.5987 37.2697 13.2782C37.2662 13.4858 37.3262 13.5493 37.5356 13.5449C38.2151 13.5327 38.8954 13.551 39.5749 13.5345C39.8208 13.5284 39.8921 13.5988 39.8851 13.8447C39.8686 14.5103 39.8903 15.1758 39.8738 15.8414C39.8678 16.0873 39.9399 16.1577 40.1849 16.1516C40.8644 16.1351 41.5448 16.1377 42.2251 16.1507C42.4354 16.1551 42.4936 16.0899 42.4902 15.8831C42.478 15.2036 42.4962 14.5233 42.4797 13.8438C42.4728 13.5962 42.5475 13.5301 42.7908 13.5345C43.5572 13.551 44.3244 13.5414 45.0908 13.5414C44.9761 13.438 44.8345 13.4128 44.6876 13.4102C44.095 13.4007 43.5024 13.392 42.9098 13.4128C42.4815 13.4285 42.3763 13.5371 42.3563 13.9655C42.332 14.4859 42.3416 15.0064 42.3503 15.5269Z" fill="#FEFEFE"/>
<path id="Vector_6" d="M37.1829 4.46584C37.1725 4.02357 37.3758 3.43012 37.0987 3.18335C36.8588 2.96873 36.2749 3.13816 35.8431 3.13816C35.4303 3.1538 34.8786 2.93658 34.6431 3.20246C34.4398 3.43098 34.5744 3.97231 34.5849 4.37461C34.5962 4.81688 34.392 5.4086 34.6692 5.65798C34.9116 5.87607 35.4938 5.73009 35.9256 5.7188C36.3392 5.70837 36.891 5.90474 37.1256 5.63886C37.3289 5.40947 37.1934 4.86815 37.1829 4.46584Z" fill="#FEFEFE"/>
<path id="Vector_7" d="M19.1206 0.424805C19.6845 0.640292 20.2902 0.635948 20.8741 0.750642C27.6829 2.08962 33.1163 7.64537 34.2372 14.4714C35.0687 19.5328 33.8409 24.0667 30.6399 28.0654C30.4383 28.3174 30.4591 28.4295 30.6763 28.6415C31.6617 29.5999 32.6332 30.573 33.5933 31.5558C33.8088 31.7765 33.9296 31.8312 34.1624 31.5697C34.5656 31.117 35.0296 30.7181 35.4371 30.2689C35.6552 30.0282 35.7726 30.0291 36.0054 30.2646C37.9892 32.2709 39.9859 34.2633 41.9827 36.2565C43.015 37.287 44.0551 38.3106 45.0908 39.3376C44.9909 39.1421 44.8501 38.9814 44.6955 38.8267C41.8802 36.015 39.0684 33.2015 36.2548 30.3888C35.7291 29.864 35.6909 29.8658 35.1504 30.4045C34.8428 30.7103 34.5387 31.0205 34.2285 31.3246C33.8992 31.647 33.8688 31.6479 33.5325 31.3133C32.6714 30.4557 31.8129 29.5955 30.9544 28.7353C30.5738 28.3539 30.5773 28.3469 30.9153 27.9186C32.621 25.7559 33.7914 23.3351 34.2841 20.6241C35.2512 15.2969 34.0234 10.5101 30.5434 6.35592C27.8671 3.16097 24.428 1.24418 20.3154 0.546451C19.92 0.479546 19.5125 0.522122 19.1206 0.424805Z" fill="#FEFEFE"/>
<path id="Vector_8" d="M0.619431 15.972C0.820151 15.3742 0.822759 14.7425 0.940062 14.1291C2.25213 7.26392 7.78366 1.85501 14.7089 0.668097C15.166 0.589896 15.6413 0.607274 16.0801 0.424805C15.1799 0.524728 14.2771 0.587289 13.3925 0.821892C10.8023 1.50745 8.48835 2.69524 6.45247 4.44608C4.70421 5.95014 3.32437 7.7366 2.29383 9.78634C1.51615 11.3321 0.976554 12.9656 0.73934 14.6895C0.681122 15.1153 0.709799 15.5498 0.619431 15.972Z" fill="#FEFEFE"/>
<path id="Vector_9" d="M0.61961 34.3872L0.61961 36.993C1.3999 36.9913 2.18105 37.0017 2.96134 36.9835C3.23157 36.9765 3.33498 37.033 3.32368 37.331C3.29935 37.9801 3.32629 38.6318 3.31151 39.2817C3.30543 39.5206 3.36539 39.6067 3.61911 39.6006C4.28296 39.5832 4.94856 39.5841 5.61328 39.5997C5.85657 39.6058 5.93391 39.5389 5.92783 39.2904C5.91132 38.6257 5.93304 37.9601 5.91653 37.2954C5.91045 37.0504 5.9817 36.9774 6.2276 36.9835C6.89232 37 7.55792 36.9782 8.22264 36.9948C8.47028 37.0008 8.53892 36.9252 8.53284 36.6819C8.5172 36.0025 8.51981 35.323 8.53197 34.6435C8.53632 34.4332 8.47202 34.375 8.26521 34.3785C7.58572 34.3907 6.90536 34.3724 6.22673 34.3889C5.97735 34.395 5.91132 34.3159 5.91653 34.0735C5.93217 33.4088 5.91045 32.7432 5.92783 32.0785C5.93478 31.8265 5.85223 31.7666 5.61328 31.7727C4.94856 31.7883 4.28296 31.7892 3.61824 31.7718C3.36626 31.7657 3.30543 31.8483 3.31065 32.0881C3.32629 32.738 3.30022 33.3897 3.32368 34.0396C3.33411 34.3342 3.23505 34.3959 2.96134 34.3898C2.18105 34.3733 1.3999 34.3854 0.61961 34.3872Z" fill="#A83595"/>
<path id="Vector_10" d="M37.2697 13.2782C37.2662 13.4858 37.3262 13.5493 37.5356 13.5449C38.2151 13.5327 38.8954 13.551 39.5749 13.5345C39.8208 13.5284 39.8921 13.5988 39.8851 13.8447C39.8686 14.5103 39.8903 15.1758 39.8738 15.8414C39.8678 16.0873 39.9399 16.1577 40.1849 16.1516C40.8644 16.1351 41.5448 16.1377 42.2251 16.1507C42.4354 16.1551 42.4936 16.0899 42.4902 15.8831C42.478 15.2036 42.4962 14.5233 42.4797 13.8438C42.4728 13.5962 42.5475 13.5301 42.7908 13.5345C43.5572 13.551 44.3244 13.5414 45.0908 13.5414L45.0908 10.9356C44.3244 10.9356 43.5572 10.9252 42.7908 10.9408C42.5466 10.9452 42.4728 10.8783 42.4797 10.6306C42.4962 9.96591 42.4745 9.30033 42.491 8.63475C42.4971 8.39059 42.4293 8.31673 42.1817 8.32368C41.517 8.34019 40.8505 8.34019 40.1858 8.32368C39.9416 8.3176 39.8678 8.38538 39.8738 8.63301C39.8912 9.29772 39.8686 9.96417 39.8851 10.6289C39.8912 10.873 39.8234 10.9469 39.5758 10.9408C38.9111 10.9234 38.2446 10.946 37.5799 10.9295C37.3357 10.9234 37.2619 10.9912 37.268 11.2388C37.2853 11.9183 37.2819 12.5987 37.2697 13.2782Z" fill="#A83595"/>
<path id="Vector_11" d="M39.6192 44.8973C39.7991 44.8017 39.9494 44.6714 40.0937 44.5271C41.6334 42.9831 43.1757 41.4408 44.7207 39.9002C44.8649 39.756 44.9952 39.6057 45.0908 39.4258C44.9892 39.4241 44.9483 39.5101 44.891 39.5683C43.1792 41.2774 41.4683 42.9874 39.7591 44.6992C39.7027 44.7556 39.6123 44.7939 39.6192 44.8973Z" fill="#FEFEFE"/>
<path id="Vector_12" d="M8.52824 42.6729C8.51694 43.4141 8.52302 44.1561 8.52302 44.8973L11.1289 44.8973C11.1254 44.8686 11.1211 44.8391 11.1167 44.8095C11.0915 44.7869 11.0646 44.7687 11.0385 44.7522C10.8456 44.6401 10.6232 44.6818 10.412 44.6774C9.9941 44.6687 9.57528 44.6687 9.15647 44.6766C8.8619 44.6818 8.74025 44.5567 8.7446 44.263C8.75068 43.7729 8.75068 43.282 8.74286 42.7911C8.74112 42.7033 8.74199 42.6155 8.72461 42.5313C8.70897 42.4496 8.67682 42.3714 8.61165 42.3027C8.4257 42.3888 8.52997 42.5521 8.52824 42.6729Z" fill="#A83595"/>
<path id="Vector_13" d="M0.619324 17.7111C0.752326 17.479 0.751457 17.2477 0.619324 17.0156L0.619324 17.7111Z" fill="#A83595"/>
<path id="Vector_14" d="M0.619537 16.668C0.73496 16.6046 0.703715 16.5005 0.693301 16.4024C0.666398 16.3694 0.642101 16.3712 0.619537 16.4076L0.619537 16.668Z" fill="#A83595"/>
<path id="Vector_15" d="M18.69 0.497702C18.7603 0.507248 18.8384 0.532415 18.8584 0.424805L18.6848 0.424805C18.6553 0.443029 18.6466 0.459518 18.6579 0.475139C18.6683 0.489892 18.6788 0.497702 18.69 0.497702Z" fill="#A83595"/>
<path id="Vector_16" d="M18.6904 0.497702C18.6878 0.473403 18.6861 0.449104 18.6852 0.424805L18.5117 0.424805C18.5446 0.513323 18.6141 0.514191 18.6904 0.497702Z" fill="#A83595"/>
<path id="Vector_17" d="M16.5948 0.497702C16.6703 0.511587 16.7371 0.504645 16.7744 0.424805L16.6008 0.424805C16.5748 0.43869 16.5653 0.454311 16.5722 0.470799C16.5791 0.488156 16.587 0.496834 16.5948 0.496834L16.5948 0.497702Z" fill="#A83595"/>
<path id="Vector_18" d="M16.5945 0.497702C16.5971 0.473403 16.5997 0.449104 16.6006 0.424805L16.427 0.424805C16.4001 0.439558 16.3906 0.455179 16.3984 0.471667C16.4062 0.489024 16.414 0.497702 16.4227 0.497702C16.48 0.497702 16.5372 0.497702 16.5945 0.497702Z" fill="#A83595"/>
<path id="Vector_19" d="M16.4232 0.497702C16.4266 0.473403 16.4284 0.449104 16.4275 0.424805L16.2539 0.424805C16.273 0.535019 16.3511 0.508116 16.4232 0.497702Z" fill="#A83595"/>
<path id="Vector_20" d="M0.619381 16.407C0.643681 16.4052 0.668846 16.4035 0.693146 16.4018C0.702692 16.3306 0.726126 16.2534 0.619381 16.2334L0.619381 16.407Z" fill="#A83595"/>
<path id="Vector_21" d="M0.692752 18.4093C0.709241 18.333 0.709241 18.2636 0.619853 18.2314L0.619853 18.405C0.642417 18.4423 0.666717 18.4441 0.692752 18.4093Z" fill="#A83595"/>
<path id="Vector_22" d="M0.692286 18.4096C0.667987 18.4079 0.643687 18.407 0.619388 18.4053L0.619388 18.5788C0.730472 18.5597 0.7027 18.4808 0.692286 18.4096Z" fill="#A83595"/>
<path id="Vector_23" d="M29.2832 17.3356C29.2719 10.871 23.9941 5.61852 17.5276 5.63677C11.0646 5.65501 5.80766 10.9457 5.83547 17.4034C5.86327 23.8489 11.1341 29.0936 17.5745 29.0849C24.0367 29.0762 29.2945 23.8003 29.2823 17.3348L29.2832 17.3356Z" fill="#FEFEFE"/>
<path id="Vector_24" d="M8.60454 44.466C8.60281 44.5494 8.61063 44.6155 8.63148 44.6667C8.67319 44.7771 8.77224 44.8188 8.95298 44.8153C9.65767 44.8014 10.3615 44.8092 11.0662 44.8092L11.1166 44.8092C11.1218 44.0481 11.1218 43.2869 11.1366 42.5258C11.14 42.3372 11.0844 42.2799 10.8941 42.2834C10.1338 42.2981 9.37267 42.2973 8.61149 42.3025C8.61062 43.0237 8.61845 43.7448 8.60454 44.466Z" fill="#A83595"/>
<path id="Vector_25" d="M34.6692 5.65798C34.9116 5.87607 35.4938 5.73009 35.9256 5.7188C36.3392 5.70837 36.891 5.90474 37.1256 5.63886C37.3289 5.40947 37.1934 4.86815 37.1829 4.46584C37.1725 4.02357 37.3758 3.43012 37.0987 3.18335C36.8588 2.96873 36.2749 3.13816 35.8431 3.13816C35.4303 3.1538 34.8786 2.93658 34.6431 3.20246C34.4398 3.43098 34.5744 3.97231 34.5849 4.37461C34.5962 4.81688 34.392 5.4086 34.6692 5.65798Z" fill="#A83595"/>
<path id="Vector_26" d="M11.2058 23.8755C12.5631 25.1658 14.0646 25.9843 15.8076 26.3023C20.9507 27.2416 25.6455 23.9736 26.5613 18.8324C26.709 18.0026 26.7212 17.1649 26.5952 16.3256C26.5596 16.0892 26.464 16.0527 26.2607 16.0545C25.3631 16.0623 24.4655 16.0658 23.5688 16.0519C23.3533 16.0484 23.2247 16.1422 23.0874 16.2804C22.3749 17.0007 21.6546 17.7132 20.942 18.4335C20.7935 18.5839 20.6501 18.6725 20.4207 18.6699C19.1469 18.656 17.873 18.6534 16.5992 18.6707C16.3012 18.6751 16.2421 18.576 16.2508 18.3049C16.2699 17.6976 16.2733 17.0885 16.2499 16.4811C16.2377 16.1605 16.3012 16.0345 16.6618 16.0467C17.5289 16.0771 18.3987 16.0475 19.2668 16.0623C19.517 16.0667 19.696 15.998 19.8724 15.8155C20.5476 15.1195 21.2479 14.4479 21.9213 13.7502C22.1272 13.5364 22.3314 13.4408 22.6347 13.4469C23.6565 13.4669 24.6784 13.4547 25.7167 13.4547C23.2421 7.98066 15.7998 6.37754 11.2345 10.8489L11.695 10.8489C13.9533 10.8489 16.2117 10.8559 18.4691 10.8402C18.7915 10.8376 18.8871 10.9106 18.8705 11.239C18.8401 11.8455 18.841 12.4555 18.8705 13.062C18.8862 13.3887 18.7941 13.4634 18.47 13.4617C15.5747 13.4478 12.6795 13.4591 9.78514 13.446C9.46799 13.4443 9.30897 13.5216 9.18037 13.8301C8.1985 16.1952 8.19763 18.5474 9.19254 20.909C9.31506 21.1992 9.46712 21.2766 9.76515 21.274C11.8062 21.2609 13.8473 21.274 15.8884 21.2592C16.1969 21.2566 16.276 21.3383 16.2638 21.6398C16.2386 22.2758 16.2403 22.9136 16.2638 23.5496C16.2742 23.8285 16.183 23.8807 15.9232 23.8781C14.4756 23.865 13.0279 23.872 11.5803 23.872L11.2058 23.872L11.2058 23.8755Z" fill="#A83595"/>
<path id="Vector_27" d="M18.8856 22.6117C18.8995 23.0244 18.6806 23.5753 18.9482 23.8107C19.1785 24.0141 19.7181 23.8811 20.1195 23.8707C20.5618 23.8594 21.1526 24.0636 21.402 23.7855C21.6201 23.5431 21.475 22.961 21.4637 22.53C21.4533 22.1164 21.6488 21.5655 21.3838 21.3309C21.1552 21.1276 20.6148 21.2623 20.2125 21.2727C19.7702 21.284 19.1776 21.0798 18.9299 21.3578C18.7153 21.5976 18.8856 22.1807 18.8856 22.6117Z" fill="#FEFEFE"/>
</g>
<defs>
<clipPath id="clip0_805_7001">
<rect width="44.4712" height="44.4712" fill="white" transform="matrix(-1 5.85265e-09 -3.07317e-09 1 45.0908 0.424805)"/>
</clipPath>
</defs>
</svg>
