<svg width="72" height="72" viewBox="0 0 72 72" fill="none" xmlns="http://www.w3.org/2000/svg">
<path d="M21.6023 40V38.36H22.1023V33.86H21.6023V32.22H25.8223V33.86H24.9023V38.36H25.8023V37.44H27.7923V40H21.6023ZM31.8955 40.14C30.6755 40.14 29.7322 39.82 29.0655 39.18C28.4055 38.54 28.0755 37.5167 28.0755 36.11C28.0755 34.7033 28.4055 33.68 29.0655 33.04C29.7322 32.4 30.6755 32.08 31.8955 32.08C33.1155 32.08 34.0555 32.4 34.7155 33.04C35.3822 33.68 35.7155 34.7033 35.7155 36.11C35.7155 37.5167 35.3822 38.54 34.7155 39.18C34.0555 39.82 33.1155 40.14 31.8955 40.14ZM31.8955 38.36C32.1222 38.36 32.2922 38.3 32.4055 38.18C32.5189 38.06 32.5755 37.8733 32.5755 37.62V34.6C32.5755 34.3467 32.5189 34.16 32.4055 34.04C32.2922 33.92 32.1222 33.86 31.8955 33.86C31.6689 33.86 31.4989 33.92 31.3855 34.04C31.2722 34.16 31.2155 34.3467 31.2155 34.6V37.62C31.2155 37.88 31.2722 38.07 31.3855 38.19C31.4989 38.3033 31.6689 38.36 31.8955 38.36ZM43.5955 37.5H43.0955V39.5C42.8021 39.6667 42.3721 39.8167 41.8055 39.95C41.2455 40.0767 40.6388 40.14 39.9855 40.14C38.7388 40.14 37.7621 39.8133 37.0555 39.16C36.3488 38.5 35.9955 37.4833 35.9955 36.11C35.9955 34.7033 36.3455 33.68 37.0455 33.04C37.7521 32.4 38.7588 32.08 40.0655 32.08C40.6988 32.08 41.2921 32.1467 41.8455 32.28C42.3988 32.4133 42.8155 32.5633 43.0955 32.73V35.12H40.5955V34.65C40.5955 34.37 40.5355 34.17 40.4155 34.05C40.3021 33.9233 40.1188 33.86 39.8655 33.86C39.6121 33.86 39.4255 33.9233 39.3055 34.05C39.1921 34.17 39.1355 34.37 39.1355 34.65V37.57C39.1355 37.85 39.1921 38.0533 39.3055 38.18C39.4255 38.3 39.6121 38.36 39.8655 38.36C40.1188 38.36 40.3021 38.3 40.4155 38.18C40.5355 38.0533 40.5955 37.85 40.5955 37.57V37.5H40.0555V36.01H43.5955V37.5ZM47.6377 40.14C46.4177 40.14 45.4744 39.82 44.8077 39.18C44.1477 38.54 43.8177 37.5167 43.8177 36.11C43.8177 34.7033 44.1477 33.68 44.8077 33.04C45.4744 32.4 46.4177 32.08 47.6377 32.08C48.8577 32.08 49.7977 32.4 50.4577 33.04C51.1244 33.68 51.4577 34.7033 51.4577 36.11C51.4577 37.5167 51.1244 38.54 50.4577 39.18C49.7977 39.82 48.8577 40.14 47.6377 40.14ZM47.6377 38.36C47.8644 38.36 48.0344 38.3 48.1477 38.18C48.2611 38.06 48.3177 37.8733 48.3177 37.62V34.6C48.3177 34.3467 48.2611 34.16 48.1477 34.04C48.0344 33.92 47.8644 33.86 47.6377 33.86C47.4111 33.86 47.2411 33.92 47.1277 34.04C47.0144 34.16 46.9577 34.3467 46.9577 34.6V37.62C46.9577 37.88 47.0144 38.07 47.1277 38.19C47.2411 38.3033 47.4111 38.36 47.6377 38.36Z" fill="#808080"/>
<rect x="5.5" y="4.5" width="63" height="63" rx="7.5" stroke="#808080"/>
</svg>
