<svg width="24" height="24" viewBox="0 0 24 24" fill="none" xmlns="http://www.w3.org/2000/svg">
<g clip-path="url(#clip0_1187_2097)">
<path d="M12 15.25C13.3807 15.25 14.5 14.1307 14.5 12.75C14.5 11.3693 13.3807 10.25 12 10.25C10.6193 10.25 9.5 11.3693 9.5 12.75C9.5 14.1307 10.6193 15.25 12 15.25Z" stroke="#323232" stroke-width="1.5" stroke-linecap="round" stroke-linejoin="round"/>
<path d="M17.49 9.25C18.8707 9.25 19.99 8.13071 19.99 6.75C19.99 5.36929 18.8707 4.25 17.49 4.25C16.1093 4.25 14.99 5.36929 14.99 6.75C14.99 8.13071 16.1093 9.25 17.49 9.25Z" stroke="#323232" stroke-width="1.5" stroke-linecap="round" stroke-linejoin="round"/>
<path d="M18 12.2501C19.4433 12.2413 20.8493 12.7088 22 13.5801" stroke="#323232" stroke-width="1.5" stroke-linecap="round" stroke-linejoin="round"/>
<path d="M6.51001 9.25C7.89072 9.25 9.01001 8.13071 9.01001 6.75C9.01001 5.36929 7.89072 4.25 6.51001 4.25C5.1293 4.25 4.01001 5.36929 4.01001 6.75C4.01001 8.13071 5.1293 9.25 6.51001 9.25Z" stroke="#323232" stroke-width="1.5" stroke-linecap="round" stroke-linejoin="round"/>
<path d="M2 13.5801C3.15071 12.7088 4.55666 12.2413 6 12.2501" stroke="#323232" stroke-width="1.5" stroke-linecap="round" stroke-linejoin="round"/>
<path d="M16.59 19.7497C15.2582 18.7746 13.6506 18.249 12 18.249C10.3495 18.249 8.74178 18.7746 7.41 19.7497" stroke="#323232" stroke-width="1.5" stroke-linecap="round" stroke-linejoin="round"/>
</g>
<defs>
<clipPath id="clip0_1187_2097">
<rect width="24" height="24" fill="white"/>
</clipPath>
</defs>
</svg>
