<svg width="24" height="24" viewBox="0 0 24 24" fill="none" xmlns="http://www.w3.org/2000/svg">
<g clip-path="url(#clip0_1187_2107)">
<path d="M18 9H6C5.46957 9 4.96086 8.78929 4.58579 8.41421C4.21071 8.03914 4 7.53043 4 7V5C4 4.46957 4.21071 3.96086 4.58579 3.58579C4.96086 3.21071 5.46957 3 6 3H18C18.5304 3 19.0391 3.21071 19.4142 3.58579C19.7893 3.96086 20 4.46957 20 5V7C20 7.53043 19.7893 8.03914 19.4142 8.41421C19.0391 8.78929 18.5304 9 18 9Z" stroke="#323232" stroke-width="1.5" stroke-linecap="round" stroke-linejoin="round"/>
<path d="M12 9V17" stroke="#323232" stroke-width="1.5" stroke-linecap="round" stroke-linejoin="round"/>
<path d="M13 21H11C10.7348 21 10.4804 20.8946 10.2929 20.7071C10.1054 20.5196 10 20.2652 10 20V18C10 17.7348 10.1054 17.4804 10.2929 17.2929C10.4804 17.1054 10.7348 17 11 17H13C13.2652 17 13.5196 17.1054 13.7071 17.2929C13.8946 17.4804 14 17.7348 14 18C14 18 13.57 21 13 21Z" stroke="#323232" stroke-width="1.5" stroke-linecap="round" stroke-linejoin="round"/>
<path d="M19 16.85V15C19 14.4696 18.7893 13.9609 18.4142 13.5858C18.0391 13.2107 17.5304 13 17 13H7C6.46957 13 5.96086 13.2107 5.58579 13.5858C5.21071 13.9609 5 14.4696 5 15V16.85" stroke="#323232" stroke-width="1.5" stroke-linecap="round" stroke-linejoin="round"/>
<path d="M20 21H18C17.7348 21 17.4804 20.8946 17.2929 20.7071C17.1054 20.5196 17 20.2652 17 20V18C17 17.7348 17.1054 17.4804 17.2929 17.2929C17.4804 17.1054 17.7348 17 18 17H20C20.2652 17 20.5196 17.1054 20.7071 17.2929C20.8946 17.4804 21 17.7348 21 18V20C21 20.2652 20.8946 20.5196 20.7071 20.7071C20.5196 20.8946 20.2652 21 20 21Z" stroke="#323232" stroke-width="1.5" stroke-linecap="round" stroke-linejoin="round"/>
<path d="M6 21H4C3.73478 21 3.48043 20.8946 3.29289 20.7071C3.10536 20.5196 3 20.2652 3 20V18C3 17.7348 3.10536 17.4804 3.29289 17.2929C3.48043 17.1054 3.73478 17 4 17H6C6.26522 17 6.51957 17.1054 6.70711 17.2929C6.89464 17.4804 7 17.7348 7 18V20C7 20.2652 6.89464 20.5196 6.70711 20.7071C6.51957 20.8946 6.26522 21 6 21Z" stroke="#323232" stroke-width="1.5" stroke-linecap="round" stroke-linejoin="round"/>
</g>
<defs>
<clipPath id="clip0_1187_2107">
<rect width="24" height="24" fill="white"/>
</clipPath>
</defs>
</svg>
