<svg width="24" height="24" viewBox="0 0 24 24" fill="none" xmlns="http://www.w3.org/2000/svg">
<g clip-path="url(#clip0_1187_2142)">
<path d="M15 3V10" stroke="#323232" stroke-width="1.5" stroke-linecap="round" stroke-linejoin="round"/>
<path d="M9 4.78027V19.0003" stroke="#323232" stroke-width="1.5" stroke-linecap="round" stroke-linejoin="round"/>
<path d="M21 10.9997V5.60966C21.0114 5.39159 20.9511 5.17579 20.8283 4.99522C20.7055 4.81465 20.527 4.67924 20.32 4.60966L15.63 3.09966C15.2201 2.96939 14.7799 2.96939 14.37 3.09966L9.63 4.67966C9.2217 4.81985 8.7783 4.81985 8.37 4.67966L4.37 3.32966C4.21664 3.26853 4.05053 3.24633 3.88649 3.26504C3.72246 3.28374 3.56561 3.34276 3.42995 3.43684C3.29428 3.53092 3.18401 3.65712 3.10899 3.80418C3.03397 3.95125 2.99652 4.1146 3 4.27966V15.6197C3.00056 15.8043 3.05224 15.9852 3.14932 16.1423C3.2464 16.2994 3.38509 16.4266 3.55 16.5097L8.11 18.7897C8.38786 18.9287 8.69429 19.0011 9.005 19.0011C9.31571 19.0011 9.62214 18.9287 9.9 18.7897L11 18.2397" stroke="#323232" stroke-width="1.5" stroke-linecap="round" stroke-linejoin="round"/>
<path d="M18 13C18.7911 13 19.5645 13.2346 20.2223 13.6741C20.8801 14.1136 21.3928 14.7384 21.6955 15.4693C21.9983 16.2002 22.0775 17.0044 21.9231 17.7804C21.7688 18.5563 21.3878 19.269 20.8284 19.8284C20.269 20.3878 19.5563 20.7688 18.7804 20.9231C18.0044 21.0775 17.2002 20.9983 16.4693 20.6955C15.7384 20.3928 15.1136 19.8801 14.6741 19.2223C14.2346 18.5645 14 17.7911 14 17C14 15.9391 14.4214 14.9217 15.1716 14.1716C15.9217 13.4214 16.9391 13 18 13Z" stroke="#323232" stroke-width="1.5" stroke-linecap="round" stroke-linejoin="round"/>
<path d="M19.56 16L17.61 18L16.44 16.84" stroke="#323232" stroke-width="1.5" stroke-linecap="round" stroke-linejoin="round"/>
</g>
<defs>
<clipPath id="clip0_1187_2142">
<rect width="24" height="24" fill="white"/>
</clipPath>
</defs>
</svg>
