<svg width="24" height="24" viewBox="0 0 24 24" fill="none" xmlns="http://www.w3.org/2000/svg">
<g clip-path="url(#clip0_1187_2079)">
<path d="M10.84 5.34998L9 3.99998C10.134 3.5645 11.3476 3.37478 12.5604 3.44338C13.7732 3.51198 14.9576 3.83733 16.0353 4.39792C17.113 4.9585 18.0594 5.74152 18.8118 6.6952C19.5642 7.64887 20.1056 8.75145 20.4 9.92998" stroke="#323232" stroke-width="1.5" stroke-linecap="round" stroke-linejoin="round"/>
<path d="M6.83 16.3398L6.56 18.6698C5.61602 17.9061 4.84511 16.9505 4.29835 15.8663C3.75159 14.7821 3.44146 13.5941 3.38852 12.3811C3.33557 11.168 3.54101 9.95747 3.99122 8.82977C4.44144 7.70207 5.12615 6.68292 6 5.83984" stroke="#323232" stroke-width="1.5" stroke-linecap="round" stroke-linejoin="round"/>
<path d="M18.35 14.3196L20.5 13.3896C20.3483 14.416 20.0094 15.4058 19.5 16.3096C18.5438 17.9712 17.0611 19.2666 15.2863 19.991C13.5114 20.7154 11.5457 20.8275 9.7 20.3096" stroke="#323232" stroke-width="1.5" stroke-linecap="round" stroke-linejoin="round"/>
<path d="M12 15.5799C13.9772 15.5799 15.58 13.9771 15.58 11.9999C15.58 10.0227 13.9772 8.41992 12 8.41992C10.0228 8.41992 8.42 10.0227 8.42 11.9999C8.42 13.9771 10.0228 15.5799 12 15.5799Z" stroke="#323232" stroke-width="1.5" stroke-linecap="round" stroke-linejoin="round"/>
</g>
<defs>
<clipPath id="clip0_1187_2079">
<rect width="24" height="24" fill="white"/>
</clipPath>
</defs>
</svg>
