<svg width="24" height="24" viewBox="0 0 24 24" fill="none" xmlns="http://www.w3.org/2000/svg">
<g clip-path="url(#clip0_1187_2054)">
<path d="M12.83 16.6797H11.17C10.6404 16.682 10.1333 16.8941 9.76 17.2697L8.05 18.9997C7.90897 19.1396 7.81279 19.3183 7.77372 19.513C7.73465 19.7078 7.75446 19.9098 7.83063 20.0932C7.90679 20.2767 8.03586 20.4333 8.20138 20.5431C8.3669 20.6529 8.56137 20.7109 8.76 20.7097H15.24C15.4429 20.7214 15.6445 20.671 15.8181 20.5652C15.9916 20.4594 16.1287 20.3032 16.2113 20.1175C16.2938 19.9318 16.3178 19.7253 16.2801 19.5257C16.2423 19.326 16.1446 19.1425 16 18.9997L14.29 17.2997C14.1018 17.1023 13.8752 16.9454 13.6241 16.8388C13.373 16.7322 13.1028 16.678 12.83 16.6797Z" stroke="#323232" stroke-width="1.5" stroke-linecap="round" stroke-linejoin="round"/>
<path d="M5.16 17.8395C4.0419 16.5321 3.32196 14.9315 3.08545 13.2275C2.84894 11.5235 3.10578 9.7874 3.82553 8.22485C4.54529 6.6623 5.6978 5.33877 7.14657 4.41104C8.59533 3.4833 10.2796 2.99023 12 2.99023C13.7204 2.99023 15.4047 3.4833 16.8534 4.41104C18.3022 5.33877 19.4547 6.6623 20.1745 8.22485C20.8942 9.7874 21.1511 11.5235 20.9145 13.2275C20.678 14.9315 19.9581 16.5321 18.84 17.8395" stroke="#323232" stroke-width="1.5" stroke-linecap="round" stroke-linejoin="round"/>
<path d="M7.66 15.3395C7.03113 14.5278 6.64253 13.5559 6.53833 12.5344C6.43414 11.5128 6.61853 10.4825 7.07056 9.56054C7.52259 8.63854 8.22414 7.86179 9.09551 7.31854C9.96689 6.77529 10.9732 6.4873 12 6.4873C13.0268 6.4873 14.0331 6.77529 14.9045 7.31854C15.7759 7.86179 16.4774 8.63854 16.9294 9.56054C17.3815 10.4825 17.5659 11.5128 17.4617 12.5344C17.3575 13.5559 16.9689 14.5278 16.34 15.3395" stroke="#323232" stroke-width="1.5" stroke-linecap="round" stroke-linejoin="round"/>
<path d="M12 14.2295C13.2316 14.2295 14.23 13.2311 14.23 11.9995C14.23 10.7679 13.2316 9.76953 12 9.76953C10.7684 9.76953 9.77 10.7679 9.77 11.9995C9.77 13.2311 10.7684 14.2295 12 14.2295Z" stroke="#323232" stroke-width="1.5" stroke-linecap="round" stroke-linejoin="round"/>
</g>
<defs>
<clipPath id="clip0_1187_2054">
<rect width="24" height="24" fill="white"/>
</clipPath>
</defs>
</svg>
