<svg width="24" height="24" viewBox="0 0 24 24" fill="none" xmlns="http://www.w3.org/2000/svg">
<g clip-path="url(#clip0_1187_2062)">
<path d="M15.5 20H18.5C19.0304 20 19.5391 19.7893 19.9142 19.4142C20.2893 19.0391 20.5 18.5304 20.5 18V15" stroke="#323232" stroke-width="1.5" stroke-linecap="round" stroke-linejoin="round"/>
<path d="M10.45 11.0498H5.5C4.39543 11.0498 3.5 11.9452 3.5 13.0498V17.9998C3.5 19.1044 4.39543 19.9998 5.5 19.9998H10.45C11.5546 19.9998 12.45 19.1044 12.45 17.9998V13.0498C12.45 11.9452 11.5546 11.0498 10.45 11.0498Z" stroke="#323232" stroke-width="1.5" stroke-linecap="round" stroke-linejoin="round"/>
<path d="M8.5 3H5.5C4.96957 3 4.46086 3.21071 4.08579 3.58579C3.71071 3.96086 3.5 4.46957 3.5 5V8" stroke="#323232" stroke-width="1.5" stroke-linecap="round" stroke-linejoin="round"/>
<path d="M20.5 8V5C20.5 4.46957 20.2893 3.96086 19.9142 3.58579C19.5391 3.21071 19.0304 3 18.5 3H15.5" stroke="#323232" stroke-width="1.5" stroke-linecap="round" stroke-linejoin="round"/>
</g>
<defs>
<clipPath id="clip0_1187_2062">
<rect width="24" height="24" fill="white"/>
</clipPath>
</defs>
</svg>
