<svg width="24" height="24" viewBox="0 0 24 24" fill="none" xmlns="http://www.w3.org/2000/svg">
<g clip-path="url(#clip0_570_184)">
<path d="M17 9V7H15" stroke="#323232" stroke-width="1.5" stroke-linecap="round" stroke-linejoin="round"/>
<path d="M10 9.29L11.29 8L14 10L17 7" stroke="#323232" stroke-width="1.5" stroke-linecap="round" stroke-linejoin="round"/>
<path d="M14 13.5H17" stroke="#323232" stroke-width="1.5" stroke-linecap="round" stroke-linejoin="round"/>
<path d="M14 16.5H17" stroke="#323232" stroke-width="1.5" stroke-linecap="round" stroke-linejoin="round"/>
<path d="M3 13.5996V20.3996C3 21.2796 4.79 21.9996 7 21.9996C9.21 21.9996 11 21.2796 11 20.3996V13.5996" stroke="#323232" stroke-width="1.5" stroke-linecap="round" stroke-linejoin="round"/>
<path d="M11 13.6C11 14.48 9.21 15.2 7 15.2C4.79 15.2 3 14.48 3 13.6C3 12.72 4.79 12 7 12C9.21 12 11 12.72 11 13.6Z" stroke="#323232" stroke-width="1.5" stroke-linecap="round" stroke-linejoin="round"/>
<path d="M3 17C3 17.88 4.79 18.6 7 18.6C9.21 18.6 11 17.88 11 17" stroke="#323232" stroke-width="1.5" stroke-linecap="round" stroke-linejoin="round"/>
<path d="M5 9V5C5 4.46957 5.21071 3.96086 5.58579 3.58579C5.96086 3.21071 6.46957 3 7 3H19C19.5304 3 20.0391 3.21071 20.4142 3.58579C20.7893 3.96086 21 4.46957 21 5V18C21 18.5304 20.7893 19.0391 20.4142 19.4142C20.0391 19.7893 19.5304 20 19 20H14" stroke="#323232" stroke-width="1.5" stroke-linecap="round" stroke-linejoin="round"/>
</g>
<defs>
<clipPath id="clip0_570_184">
<rect width="24" height="24" fill="white"/>
</clipPath>
</defs>
</svg>
