<svg width="19" height="19" viewBox="0 0 19 19" fill="none" xmlns="http://www.w3.org/2000/svg">
<path d="M15.3735 3.52268C15.2946 3.46823 15.2035 3.43398 15.1083 3.42294C15.013 3.4119 14.9165 3.4244 14.8272 3.45935C13.8848 3.86014 12.8908 4.12663 11.8743 4.25102C11.2314 4.07906 10.6177 3.81224 10.0535 3.45935C9.32464 3.01058 8.51965 2.69931 7.67849 2.54102C6.32719 2.66052 4.99685 2.9532 3.72016 3.41185C3.60255 3.45157 3.50034 3.52716 3.42792 3.62798C3.3555 3.72881 3.3165 3.84979 3.31641 3.97393V15.8331C3.31641 15.9906 3.37896 16.1416 3.49031 16.2529C3.60166 16.3643 3.75268 16.4268 3.91016 16.4268C4.06763 16.4268 4.21865 16.3643 4.33 16.2529C4.44135 16.1416 4.50391 15.9906 4.50391 15.8331V11.2018C5.48961 10.845 6.51628 10.6136 7.55974 10.5131C8.22977 10.6785 8.87052 10.9454 9.45974 11.3048C10.1486 11.7258 10.9032 12.0282 11.6922 12.1993H11.8743C13.0209 12.0546 14.1423 11.7536 15.2072 11.3048C15.3191 11.2616 15.4153 11.1855 15.4832 11.0866C15.551 10.9877 15.5873 10.8705 15.5872 10.7506V4.01352C15.5932 3.9206 15.5769 3.82761 15.5397 3.74225C15.5025 3.6569 15.4456 3.58162 15.3735 3.52268V3.52268ZM14.4472 10.3548C13.6248 10.6953 12.7588 10.9191 11.8743 11.0198C11.2314 10.8478 10.6177 10.581 10.0535 10.2281C9.32464 9.77933 8.51965 9.46806 7.67849 9.30977H7.52016C6.50109 9.40156 5.49654 9.61417 4.52766 9.9431V4.40143C5.51336 4.04462 6.54003 3.81323 7.58349 3.71268C8.25352 3.87805 8.89427 4.14503 9.48349 4.50435C10.1723 4.9254 10.927 5.2278 11.716 5.39893C12.6449 5.3625 13.5607 5.16702 14.4235 4.82102L14.4472 10.3548Z" fill="#FF8225"/>
</svg>
