<svg width="120" height="120" viewBox="0 0 120 120" fill="none" xmlns="http://www.w3.org/2000/svg">
<circle cx="60" cy="60" r="60" fill="#3B82F6"/>
<g clip-path="url(#clip0_1123_841)">
<path d="M54.6667 76H65.3334" stroke="white" stroke-width="4" stroke-linecap="round" stroke-linejoin="round"/>
<path d="M73.3333 36H46.6667C45.9594 36 45.2811 36.281 44.781 36.781C44.281 37.2811 44 37.9594 44 38.6667V45.0133C44.0171 46.1399 44.3905 47.2321 45.0667 48.1333L53.6533 60L45.0667 71.8667C44.3905 72.7679 44.0171 73.8601 44 74.9867V81.3333C44 82.0406 44.281 82.7189 44.781 83.219C45.2811 83.7191 45.9594 84 46.6667 84H73.3333C74.0406 84 74.7189 83.7191 75.219 83.219C75.7191 82.7189 76 82.0406 76 81.3333V75.0933C76.0022 73.9058 75.6081 72.7515 74.88 71.8133L65.6533 60L74.8267 48.1867C75.5739 47.2555 75.987 46.1005 76 44.9067V38.6667C76 37.9594 75.7191 37.2811 75.219 36.781C74.7189 36.281 74.0406 36 73.3333 36Z" stroke="white" stroke-width="4" stroke-linecap="round" stroke-linejoin="round"/>
</g>
<defs>
<clipPath id="clip0_1123_841">
<rect width="64" height="64" fill="white" transform="translate(28 28)"/>
</clipPath>
</defs>
</svg>
