<svg width="36" height="36" viewBox="0 0 36 36" fill="none" xmlns="http://www.w3.org/2000/svg">
<rect width="36" height="36" rx="5" fill="#E2E8F0"/>
<g clip-path="url(#clip0_601_977)">
<path d="M21.21 16.4304C22.0697 16.3995 22.8843 16.0381 23.4841 15.4215C24.084 14.8049 24.4228 13.9806 24.43 13.1204C24.4234 12.7041 24.335 12.2932 24.1696 11.911C24.0043 11.5289 23.7653 11.1831 23.4662 10.8934C23.1672 10.6037 22.8141 10.3757 22.4269 10.2225C22.0398 10.0692 21.6263 9.99378 21.21 10.0004" stroke="#323232" stroke-width="1.5" stroke-linecap="round" stroke-linejoin="round"/>
<path d="M15.43 16.4297C16.2887 16.3988 17.1023 16.037 17.7005 15.4202C18.2987 14.8033 18.6354 13.979 18.64 13.1197C18.5941 12.2981 18.2354 11.5251 17.6375 10.9597C17.0396 10.3942 16.2479 10.0791 15.425 10.0791C14.602 10.0791 13.8103 10.3942 13.2124 10.9597C12.6145 11.5251 12.2558 12.2981 12.21 13.1197C12.2171 13.9799 12.5559 14.8042 13.1558 15.4208C13.7556 16.0375 14.5703 16.3989 15.43 16.4297Z" stroke="#323232" stroke-width="1.5" stroke-linecap="round" stroke-linejoin="round"/>
<path d="M22 26V24C22 22.9391 21.5786 21.9217 20.8284 21.1716C20.0783 20.4214 19.0609 20 18 20H13C11.9391 20 10.9217 20.4214 10.1716 21.1716C9.42143 21.9217 9 22.9391 9 24V26" stroke="#323232" stroke-width="1.5" stroke-linecap="round" stroke-linejoin="round"/>
<path d="M27 26V23C27 22.2044 26.6839 21.4413 26.1213 20.8787C25.5587 20.3161 24.7956 20 24 20" stroke="#323232" stroke-width="1.5" stroke-linecap="round" stroke-linejoin="round"/>
</g>
<defs>
<clipPath id="clip0_601_977">
<rect width="24" height="24" fill="white" transform="translate(6 6)"/>
</clipPath>
</defs>
</svg>
