<svg width="24" height="24" viewBox="0 0 24 24" fill="none" xmlns="http://www.w3.org/2000/svg">
<g clip-path="url(#clip0_570_155)">
<path d="M17.88 5.2002C19.2651 6.40111 20.2504 7.99637 20.7042 9.77256C21.1579 11.5487 21.0584 13.4211 20.419 15.1392C19.7796 16.8574 18.6308 18.3392 17.1263 19.3866C15.6217 20.434 13.8332 20.997 12 21.0002C10.7091 20.9982 9.43368 20.7186 8.26039 20.1803C7.08709 19.6419 6.04334 18.8575 5.19995 17.8802" stroke="#323232" stroke-width="1.5" stroke-linecap="round" stroke-linejoin="round"/>
<path d="M3.31989 14.35C2.70557 12.0603 3.01949 9.62061 4.19348 7.56099C5.36746 5.50137 7.30668 3.98814 9.58989 3.35C10.3746 3.12921 11.1848 3.01156 11.9999 3C12.794 3.00171 13.5843 3.10932 14.3499 3.32" stroke="#323232" stroke-width="1.5" stroke-linecap="round" stroke-linejoin="round"/>
<path d="M17.4701 14.4696C18.0479 13.1897 18.1584 11.7477 17.7825 10.3947C17.4065 9.04165 16.5679 7.86337 15.4126 7.065C14.2574 6.26663 12.8587 5.89876 11.4602 6.02545C10.0616 6.15215 8.75181 6.76537 7.75883 7.75835C6.76586 8.75132 6.15263 10.0611 6.02594 11.4597C5.89925 12.8582 6.26712 14.2569 7.06549 15.4121C7.86386 16.5674 9.04214 17.406 10.3952 17.782C11.7482 18.1579 13.1902 18.0474 14.4701 17.4696" stroke="#323232" stroke-width="1.5" stroke-linecap="round" stroke-linejoin="round"/>
</g>
<defs>
<clipPath id="clip0_570_155">
<rect width="24" height="24" fill="white"/>
</clipPath>
</defs>
</svg>
