<svg width="20" height="20" viewBox="0 0 20 20" fill="none" xmlns="http://www.w3.org/2000/svg">
<g id="a17 1" clip-path="url(#clip0_5420_4957)">
<g id="Layer 2">
<g id="Icons">
<path id="Vector" d="M12.5 2.5V8.33333" stroke="#F1F1F1" stroke-width="1.5" stroke-linecap="round" stroke-linejoin="round"/>
<path id="Vector_2" d="M7.5 3.98242V15.8324" stroke="#F1F1F1" stroke-width="1.5" stroke-linecap="round" stroke-linejoin="round"/>
<path id="Vector_3" d="M17.5002 9.16671V4.67504C17.5097 4.49332 17.4594 4.31349 17.3571 4.16301C17.2548 4.01254 17.106 3.89969 16.9335 3.84171L13.0252 2.58337C12.6836 2.47481 12.3168 2.47481 11.9752 2.58337L8.02519 3.90004C7.68493 4.01686 7.31544 4.01686 6.97518 3.90004L3.64185 2.77504C3.51405 2.7241 3.37562 2.7056 3.23893 2.72119C3.10224 2.73678 2.97153 2.78596 2.85847 2.86436C2.74542 2.94276 2.65353 3.04792 2.59101 3.17048C2.52849 3.29303 2.49729 3.42916 2.50018 3.56671V13.0167C2.50065 13.1706 2.54372 13.3214 2.62462 13.4523C2.70552 13.5832 2.82109 13.6891 2.95852 13.7584L6.75852 15.6584C6.99007 15.7742 7.24543 15.8346 7.50435 15.8346C7.76327 15.8346 8.01863 15.7742 8.25018 15.6584L9.16685 15.2" stroke="#F1F1F1" stroke-width="1.5" stroke-linecap="round" stroke-linejoin="round"/>
<path id="Vector_4" d="M14.9993 10.834C15.6586 10.834 16.3031 11.0295 16.8512 11.3958C17.3994 11.762 17.8267 12.2826 18.0789 12.8917C18.3312 13.5008 18.3973 14.171 18.2686 14.8176C18.14 15.4642 17.8225 16.0582 17.3564 16.5243C16.8902 16.9905 16.2963 17.308 15.6497 17.4366C15.003 17.5652 14.3328 17.4992 13.7237 17.2469C13.1147 16.9946 12.5941 16.5674 12.2278 16.0192C11.8615 15.4711 11.666 14.8266 11.666 14.1673C11.666 13.2833 12.0172 12.4354 12.6423 11.8103C13.2674 11.1852 14.1153 10.834 14.9993 10.834Z" stroke="#F1F1F1" stroke-width="1.5" stroke-linecap="round" stroke-linejoin="round"/>
<path id="Vector_5" d="M16.2992 13.334L14.6742 15.0007L13.6992 14.034" stroke="#F1F1F1" stroke-width="1.5" stroke-linecap="round" stroke-linejoin="round"/>
</g>
</g>
</g>
<defs>
<clipPath id="clip0_5420_4957">
<rect width="20" height="20" fill="white"/>
</clipPath>
</defs>
</svg>
